<mxfile host="app.diagrams.net" agent="Mozilla/5.0 (Windows NT 10.0; Win64; x64) AppleWebKit/537.36 (KHTML, like Gecko) Chrome/127.0.0.0 Safari/537.36" version="24.7.5" pages="2">
  <diagram id="kGaF6oFHwQYXv3rQBrP0" name="PÃ¡gina-1">
    <mxGraphModel dx="5185" dy="1930" grid="1" gridSize="10" guides="1" tooltips="1" connect="1" arrows="1" fold="1" page="1" pageScale="1" pageWidth="827" pageHeight="1169" math="0" shadow="0">
      <root>
        <mxCell id="0" />
        <mxCell id="1" parent="0" />
        <mxCell id="ezgKTgP5tMkvbKeKi-sx-2" value="" style="rounded=0;whiteSpace=wrap;html=1;fillColor=#f5f5f5;fontColor=#333333;strokeColor=none;movable=1;resizable=1;rotatable=1;deletable=1;editable=1;locked=0;connectable=1;" vertex="1" parent="1">
          <mxGeometry x="260" y="852" width="2510" height="808" as="geometry" />
        </mxCell>
        <mxCell id="ezgKTgP5tMkvbKeKi-sx-72" value="" style="rounded=1;whiteSpace=wrap;html=1;arcSize=5;dashed=1;fillColor=none;" vertex="1" parent="1">
          <mxGeometry x="1910" y="910" width="790" height="410" as="geometry" />
        </mxCell>
        <mxCell id="ezgKTgP5tMkvbKeKi-sx-114" value="" style="rounded=1;whiteSpace=wrap;html=1;arcSize=5;fillColor=none;strokeWidth=2;strokeColor=#82b366;" vertex="1" parent="1">
          <mxGeometry x="2110" y="990" width="560" height="250" as="geometry" />
        </mxCell>
        <mxCell id="ezgKTgP5tMkvbKeKi-sx-50" value="" style="rounded=1;whiteSpace=wrap;html=1;arcSize=5;dashed=1;fillColor=none;" vertex="1" parent="1">
          <mxGeometry x="580" y="910" width="1160" height="670" as="geometry" />
        </mxCell>
        <mxCell id="ezgKTgP5tMkvbKeKi-sx-105" style="edgeStyle=orthogonalEdgeStyle;rounded=0;orthogonalLoop=1;jettySize=auto;html=1;entryX=0.5;entryY=1;entryDx=0;entryDy=0;strokeWidth=2;" edge="1" parent="1" source="ezgKTgP5tMkvbKeKi-sx-100" target="ezgKTgP5tMkvbKeKi-sx-71">
          <mxGeometry relative="1" as="geometry" />
        </mxCell>
        <mxCell id="ezgKTgP5tMkvbKeKi-sx-100" value="" style="rounded=1;whiteSpace=wrap;html=1;arcSize=5;fillColor=none;strokeWidth=2;strokeColor=#d6b656;glass=0;shadow=0;" vertex="1" parent="1">
          <mxGeometry x="610" y="1080" width="1090" height="460" as="geometry" />
        </mxCell>
        <mxCell id="ezgKTgP5tMkvbKeKi-sx-41" style="edgeStyle=orthogonalEdgeStyle;rounded=0;orthogonalLoop=1;jettySize=auto;html=1;entryX=0;entryY=0.5;entryDx=0;entryDy=0;strokeWidth=2;" edge="1" parent="1" source="ezgKTgP5tMkvbKeKi-sx-1" target="ezgKTgP5tMkvbKeKi-sx-31">
          <mxGeometry relative="1" as="geometry" />
        </mxCell>
        <mxCell id="ezgKTgP5tMkvbKeKi-sx-42" style="edgeStyle=orthogonalEdgeStyle;rounded=0;orthogonalLoop=1;jettySize=auto;html=1;entryX=0;entryY=0.5;entryDx=0;entryDy=0;strokeWidth=2;" edge="1" parent="1" source="ezgKTgP5tMkvbKeKi-sx-1" target="ezgKTgP5tMkvbKeKi-sx-35">
          <mxGeometry relative="1" as="geometry">
            <Array as="points">
              <mxPoint x="1160" y="400" />
              <mxPoint x="1160" y="525" />
            </Array>
          </mxGeometry>
        </mxCell>
        <mxCell id="ezgKTgP5tMkvbKeKi-sx-1" value="" style="rounded=1;whiteSpace=wrap;html=1;arcSize=5;dashed=1;fillColor=none;" vertex="1" parent="1">
          <mxGeometry x="400" y="190" width="720" height="420" as="geometry" />
        </mxCell>
        <mxCell id="ezgKTgP5tMkvbKeKi-sx-8" value="&lt;font style=&quot;font-size: 16px;&quot;&gt;Application Layer&lt;/font&gt;" style="text;html=1;align=center;verticalAlign=middle;whiteSpace=wrap;rounded=0;fontFamily=Open Sans;fontSource=https%3A%2F%2Ffonts.googleapis.com%2Fcss%3Ffamily%3DOpen%2BSans;fontStyle=0" vertex="1" parent="1">
          <mxGeometry x="440" y="392" width="150" height="30" as="geometry" />
        </mxCell>
        <mxCell id="ezgKTgP5tMkvbKeKi-sx-43" style="edgeStyle=orthogonalEdgeStyle;rounded=0;orthogonalLoop=1;jettySize=auto;html=1;entryX=0;entryY=0.5;entryDx=0;entryDy=0;strokeWidth=2;" edge="1" parent="1" source="ezgKTgP5tMkvbKeKi-sx-10" target="ezgKTgP5tMkvbKeKi-sx-27">
          <mxGeometry relative="1" as="geometry" />
        </mxCell>
        <mxCell id="ezgKTgP5tMkvbKeKi-sx-10" value="&lt;font data-font-src=&quot;https://fonts.googleapis.com/css?family=Open+Sans&quot; face=&quot;Open Sans&quot;&gt;User Interface&lt;/font&gt;" style="rounded=1;whiteSpace=wrap;html=1;arcSize=5;fillColor=#dae8fc;strokeWidth=1;strokeColor=#6c8ebf;" vertex="1" parent="1">
          <mxGeometry x="30" y="190" width="136.5" height="420" as="geometry" />
        </mxCell>
        <mxCell id="ezgKTgP5tMkvbKeKi-sx-11" value="" style="rounded=1;whiteSpace=wrap;html=1;arcSize=5;fillColor=#fff2cc;strokeWidth=1;strokeColor=#d6b656;" vertex="1" parent="1">
          <mxGeometry x="660" y="210" width="440" height="380" as="geometry" />
        </mxCell>
        <mxCell id="ezgKTgP5tMkvbKeKi-sx-4" value="" style="rounded=1;whiteSpace=wrap;html=1;arcSize=5;fillColor=#e1d5e7;strokeWidth=1;strokeColor=#9673a6;" vertex="1" parent="1">
          <mxGeometry x="725" y="230" width="320" height="50" as="geometry" />
        </mxCell>
        <mxCell id="ezgKTgP5tMkvbKeKi-sx-13" value="" style="rounded=1;whiteSpace=wrap;html=1;arcSize=5;fillColor=#e1d5e7;strokeWidth=1;strokeColor=#9673a6;" vertex="1" parent="1">
          <mxGeometry x="719" y="236" width="320" height="50" as="geometry" />
        </mxCell>
        <mxCell id="ezgKTgP5tMkvbKeKi-sx-14" value="&lt;b&gt;Cliente&lt;/b&gt;" style="text;html=1;align=center;verticalAlign=middle;whiteSpace=wrap;rounded=0;fontFamily=Open Sans;fontSource=https%3A%2F%2Ffonts.googleapis.com%2Fcss%3Ffamily%3DOpen%2BSans;fontStyle=0" vertex="1" parent="1">
          <mxGeometry x="825" y="246" width="110" height="30" as="geometry" />
        </mxCell>
        <mxCell id="ezgKTgP5tMkvbKeKi-sx-15" value="" style="rounded=1;whiteSpace=wrap;html=1;arcSize=5;fillColor=#e1d5e7;strokeWidth=1;strokeColor=#9673a6;" vertex="1" parent="1">
          <mxGeometry x="725" y="300" width="320" height="50" as="geometry" />
        </mxCell>
        <mxCell id="ezgKTgP5tMkvbKeKi-sx-16" value="" style="rounded=1;whiteSpace=wrap;html=1;arcSize=5;fillColor=#e1d5e7;strokeWidth=1;strokeColor=#9673a6;" vertex="1" parent="1">
          <mxGeometry x="719" y="306" width="320" height="50" as="geometry" />
        </mxCell>
        <mxCell id="ezgKTgP5tMkvbKeKi-sx-17" value="&lt;b&gt;Produto&lt;/b&gt;" style="text;html=1;align=center;verticalAlign=middle;whiteSpace=wrap;rounded=0;fontFamily=Open Sans;fontSource=https%3A%2F%2Ffonts.googleapis.com%2Fcss%3Ffamily%3DOpen%2BSans;fontStyle=0" vertex="1" parent="1">
          <mxGeometry x="825" y="316" width="110" height="30" as="geometry" />
        </mxCell>
        <mxCell id="ezgKTgP5tMkvbKeKi-sx-18" value="" style="rounded=1;whiteSpace=wrap;html=1;arcSize=5;fillColor=#e1d5e7;strokeWidth=1;strokeColor=#9673a6;" vertex="1" parent="1">
          <mxGeometry x="725" y="372" width="320" height="50" as="geometry" />
        </mxCell>
        <mxCell id="ezgKTgP5tMkvbKeKi-sx-19" value="" style="rounded=1;whiteSpace=wrap;html=1;arcSize=5;fillColor=#e1d5e7;strokeWidth=1;strokeColor=#9673a6;" vertex="1" parent="1">
          <mxGeometry x="719" y="378" width="320" height="50" as="geometry" />
        </mxCell>
        <mxCell id="ezgKTgP5tMkvbKeKi-sx-20" value="&lt;b&gt;Pedido&lt;/b&gt;" style="text;html=1;align=center;verticalAlign=middle;whiteSpace=wrap;rounded=0;fontFamily=Open Sans;fontSource=https%3A%2F%2Ffonts.googleapis.com%2Fcss%3Ffamily%3DOpen%2BSans;fontStyle=0" vertex="1" parent="1">
          <mxGeometry x="825" y="388" width="105" height="28.64" as="geometry" />
        </mxCell>
        <mxCell id="ezgKTgP5tMkvbKeKi-sx-21" value="" style="rounded=1;whiteSpace=wrap;html=1;arcSize=5;fillColor=#e1d5e7;strokeWidth=1;strokeColor=#9673a6;" vertex="1" parent="1">
          <mxGeometry x="725" y="444" width="320" height="50" as="geometry" />
        </mxCell>
        <mxCell id="ezgKTgP5tMkvbKeKi-sx-22" value="" style="rounded=1;whiteSpace=wrap;html=1;arcSize=5;fillColor=#e1d5e7;strokeWidth=1;strokeColor=#9673a6;" vertex="1" parent="1">
          <mxGeometry x="719" y="450" width="320" height="50" as="geometry" />
        </mxCell>
        <mxCell id="ezgKTgP5tMkvbKeKi-sx-23" value="&lt;b&gt;Pagamento&lt;/b&gt;" style="text;html=1;align=center;verticalAlign=middle;whiteSpace=wrap;rounded=0;fontFamily=Open Sans;fontSource=https%3A%2F%2Ffonts.googleapis.com%2Fcss%3Ffamily%3DOpen%2BSans;fontStyle=0" vertex="1" parent="1">
          <mxGeometry x="825" y="460" width="110" height="30" as="geometry" />
        </mxCell>
        <mxCell id="ezgKTgP5tMkvbKeKi-sx-24" value="" style="rounded=1;whiteSpace=wrap;html=1;arcSize=5;fillColor=#e1d5e7;strokeWidth=1;strokeColor=#9673a6;" vertex="1" parent="1">
          <mxGeometry x="725" y="517" width="320" height="50" as="geometry" />
        </mxCell>
        <mxCell id="ezgKTgP5tMkvbKeKi-sx-25" value="" style="rounded=1;whiteSpace=wrap;html=1;arcSize=5;fillColor=#e1d5e7;strokeWidth=1;strokeColor=#9673a6;" vertex="1" parent="1">
          <mxGeometry x="719" y="523" width="320" height="50" as="geometry" />
        </mxCell>
        <mxCell id="ezgKTgP5tMkvbKeKi-sx-26" value="&lt;b&gt;Webhook&lt;/b&gt;" style="text;html=1;align=center;verticalAlign=middle;whiteSpace=wrap;rounded=0;fontFamily=Open Sans;fontSource=https%3A%2F%2Ffonts.googleapis.com%2Fcss%3Ffamily%3DOpen%2BSans;fontStyle=0" vertex="1" parent="1">
          <mxGeometry x="825" y="533" width="110" height="30" as="geometry" />
        </mxCell>
        <mxCell id="ezgKTgP5tMkvbKeKi-sx-44" style="edgeStyle=orthogonalEdgeStyle;rounded=0;orthogonalLoop=1;jettySize=auto;html=1;strokeWidth=2;" edge="1" parent="1" source="ezgKTgP5tMkvbKeKi-sx-27" target="ezgKTgP5tMkvbKeKi-sx-1">
          <mxGeometry relative="1" as="geometry" />
        </mxCell>
        <mxCell id="ezgKTgP5tMkvbKeKi-sx-27" value="&lt;font data-font-src=&quot;https://fonts.googleapis.com/css?family=Open+Sans&quot; face=&quot;Open Sans&quot;&gt;API Service&lt;/font&gt;" style="rounded=1;whiteSpace=wrap;html=1;arcSize=5;fillColor=#f8cecc;strokeWidth=1;strokeColor=#b85450;" vertex="1" parent="1">
          <mxGeometry x="230" y="190" width="100" height="420" as="geometry" />
        </mxCell>
        <mxCell id="ezgKTgP5tMkvbKeKi-sx-29" value="" style="rounded=1;whiteSpace=wrap;html=1;arcSize=5;dashed=1;fillColor=none;" vertex="1" parent="1">
          <mxGeometry x="1360" y="190" width="420" height="170" as="geometry" />
        </mxCell>
        <mxCell id="ezgKTgP5tMkvbKeKi-sx-30" value="&lt;font style=&quot;font-size: 16px;&quot;&gt;Data Layer&lt;/font&gt;" style="text;html=1;align=center;verticalAlign=middle;whiteSpace=wrap;rounded=0;fontFamily=Open Sans;fontSource=https%3A%2F%2Ffonts.googleapis.com%2Fcss%3Ffamily%3DOpen%2BSans;fontStyle=0" vertex="1" parent="1">
          <mxGeometry x="1380" y="260" width="150" height="30" as="geometry" />
        </mxCell>
        <mxCell id="ezgKTgP5tMkvbKeKi-sx-12" value="&lt;b&gt;&lt;font face=&quot;Open Sans&quot;&gt;Data Base&lt;/font&gt;&lt;/b&gt;" style="shape=cylinder3;whiteSpace=wrap;html=1;boundedLbl=1;backgroundOutline=1;size=15;fillColor=#d5e8d4;strokeColor=#82b366;" vertex="1" parent="1">
          <mxGeometry x="1570" y="230" width="175" height="95" as="geometry" />
        </mxCell>
        <mxCell id="ezgKTgP5tMkvbKeKi-sx-45" style="edgeStyle=orthogonalEdgeStyle;rounded=0;orthogonalLoop=1;jettySize=auto;html=1;entryX=0;entryY=0.5;entryDx=0;entryDy=0;strokeWidth=2;" edge="1" parent="1" source="ezgKTgP5tMkvbKeKi-sx-31" target="ezgKTgP5tMkvbKeKi-sx-29">
          <mxGeometry relative="1" as="geometry" />
        </mxCell>
        <mxCell id="ezgKTgP5tMkvbKeKi-sx-31" value="&lt;font data-font-src=&quot;https://fonts.googleapis.com/css?family=Open+Sans&quot; face=&quot;Open Sans&quot;&gt;Data Base Service&lt;/font&gt;" style="rounded=1;whiteSpace=wrap;html=1;arcSize=5;fillColor=#f8cecc;strokeWidth=1;strokeColor=#b85450;" vertex="1" parent="1">
          <mxGeometry x="1200" y="190" width="130" height="170" as="geometry" />
        </mxCell>
        <mxCell id="ezgKTgP5tMkvbKeKi-sx-35" value="" style="rounded=1;whiteSpace=wrap;html=1;arcSize=5;dashed=1;fillColor=none;" vertex="1" parent="1">
          <mxGeometry x="1360" y="440" width="420" height="170" as="geometry" />
        </mxCell>
        <mxCell id="ezgKTgP5tMkvbKeKi-sx-36" value="&lt;font style=&quot;font-size: 16px;&quot;&gt;External Partners&lt;/font&gt;" style="text;html=1;align=center;verticalAlign=middle;whiteSpace=wrap;rounded=0;fontFamily=Open Sans;fontSource=https%3A%2F%2Ffonts.googleapis.com%2Fcss%3Ffamily%3DOpen%2BSans;fontStyle=0" vertex="1" parent="1">
          <mxGeometry x="1380" y="510" width="150" height="30" as="geometry" />
        </mxCell>
        <mxCell id="ezgKTgP5tMkvbKeKi-sx-39" value="" style="shape=image;verticalLabelPosition=bottom;labelBackgroundColor=default;verticalAlign=top;aspect=fixed;imageAspect=0;image=data:image/png,iVBORw0KGgoAAAANSUhEUgAAAZUAAABmCAYAAAADKgw4AAAAAXNSR0IArs4c6QAAAARnQU1BAACxjwv8YQUAAAAJcEhZcwAADsMAAA7DAcdvqGQAAHwBSURBVHhe7V0FYFxV1v6Smclo3F2aNvXUqVGj0JbS4m4Li7v/y8LisMtiu8giywKLy2Jtgbq7e5M07p5xn+Q/52bSpunMZFJSg/l2H9OMvHffffee75xzzzk3yGKxtOE0R1tbGxwOF2w2O+x2B4xmB7RaE2rrmlFWXoODhVUoLa3Hjr01aGiwIVgeDHlIMKQSQCYJgjQ4CMEdR1AQJPTKCA6mc4t/HQm6nPiglf7R2koHvbpaAZerDXb6h9MF8eqytUKpkGBgv2gMHpCElJRYZGYkIiM9EdFR4dCoZJArZFDIQyCTScX1AwgggABOZ5y2pMLkodeb0aw1or5Bj6rqJpSUthPIhu0VqGswEmkQeciCoKCD/83kEcSHVEpsIkVbsIQIJFgcIDIJkhDLoItg5886g75HTOJmFkYb2lzEIoRWenW2Mbu0IsjpBOhoo+86iWz4sLkJx+IgspFJMG5EMgb0T0V2dgqSk2IRFxuGmCgNwkKVUKkUdKkAyQQQQACH0UryxGAwo6nZSK8WmEiBbiU5M3HiQPc3Tj5OK1LR6YxkfbSgrKIZldXNKCquxL59Zdh1oAYWtgpCgiCXMnkAEjZDFHIEK5XEH2QF0GsQkUgwWQXScA1kERGQqBV0qCFVqgWhBMtlkChVhwmDCCVIrmz/dye02W1EHEQaJPRdNitaLTZhLbksJjhNZvrbglaDEU6dAXYivjang8jFBYeNvsdEozeKgeAgK8fuaIOFCIf+iZzMKAwfkobMzGSkp8QhKyMaiYlRiIqmtgb4JYAAftfQkjzZurUEm7YWYF9eCYqK6lFRZYS2QQuz/gv3t04+TmlSYUGr1epRWFSNA/n1KCmrRXFJFXbuLkeD1gaVPBghwW3CCgkmzT4kIhxSlRoSjYbIQoWQyDDIokggE2nIIsIgCWGSIdIQfi06+SFr40iwdeEX2LrxZE3we3zQ+VuZdKxWQT4OrY6IxwJbTT0cehORj5lIiMhHb4CLSMjlbIWNbtpsbyMLKxgjBicjKzsZaanJGNg3Gv36JiM+LlK4ygIIIIDfD+qJOL763xp8/uUG1NRpoVRLSVkmuUdyprBED2Pdf9zfPPk4JUnFQpr/gbwybNpWirz8apSVV6OgsB5Wu1OQCMlbBIeEICQpDoroGEhCQyGLiYI8OgqyUA2kYWEIIgJhgc8WxCHy8EIixx1diCeISK3V4YDLaBCEYm9pgb2hmSwbHWzaFiKdOrQazWTJANZW+q0L6JsdJdZiMukYPTIduUOzxLpMYBkmgAB+22B5+N2CTfjbq/PgIrkRwq6YTigsNcBY+777r5OPU4pUKirrsWb9PixdW4jG2kZUVjRBZ7QiRAJI21rJ6giDIi0FyoQkhMRGk/URLg6JXIEguVyQxhEkcqqjg2z41ekUVo3DoIejRQd7fTOsDbWwVFTBXtOAViIiG5GLPESK5OQIxMXGYtSwNEybPAj9c1IREiJrP1cAAQTwm0J5eT2e/OuXWLvxINTyo70UAVLxgO07C/C/7zdi445KWE161DeZICM5K3G5IAtTQ90/G6o+faCIiSUrRA2pWgPISIiebAvkeIAJhg+7HS6bRazROBqbYa4oh6moBLaKGjiDguFsC0KYRgF1ZCiyUqNwxUVjMXnKCCi6aDEBBBDA6Y2tO4pw7S1vQhbcJtxdXREgFTd4kXrz5n14/d2lKCmth91qhc1OqnhrK0KCg6Dsl4GwQYOgSk+HNFSNYFkIsQxHZ7nxWyISX+BBRH3Ci/0uC/VRXT30B/bDuDsPTg4G4CAESbCIFkOQAvffPgnnnTsOYaEq9wkCCCCA0xnrNhTgoqteQWK85zn9uycVq9VOnbQXL7+5GIXFtZALrw0xsN2JIKkEkVMnIGLoEIRERkMsGHhg5t89iFBdNhuMBfloXrkW1qo6uMhy4zWkVnDejRwP3j0VF51/JsLIsgsggABOX6zdkI+LrngVSYkBUjkCTrJMdu8twdPPfY2NW0oQFSUnwyMIQUQy8sRoxM06B6EDBzO/iPDbALoHL/hzzo21uhL1S5ZBv3Uf2jQKSIlctFo7IpRqPPaX2Zg9cyxUakXXDJwAAgjgNECAVLqAIxdKy+rx5ns/4+vvtyM6MgQhMikJuCAo0hIRM3kCNP36i+92JBEG0DN0kIujqRENq1dDt3kPXMwgRM4tjTYM7p+E+x6ag7Gj+iE8VIlgDqn+jYMrHbS1tbZ7SakvJBLJMZMqB3+0n69NWINc+eBEJ6byffD9sOXuya9+MsD90dEnv6Y/+BG1h/HTebhvxbsnBh33wFUxuCHtVS3an/GJAF+b4av/uiWVYj2M9cceUiwqg7haRWLl4fYEiz6Qcr5fD3HcSMXpdKGktA4//rIZ732wDC5qtFopE5FaiqQERE0cC3V2thCIATLpHXBf0kiAva4WzZu2wLA3X7jJ7FYbWsxOnHfOEPzxmmkYMjAdGs3RSZ2nM3gQswKj1RrR1GJGS4sReqPZPUmCEBsXhXC1DNFRGkSEq7uNlnPRBNO2GNDUbEKz1gSt3gwHh3PKZFCHqhGmCkFUpEqc63j0pdFkgclohYEOvckGp90Fo9kCKV1fqZBDGRJM15UjNFSBUI3quEf/mcxWmM02mExWOuyw2Fx02OGw2pGaEo2M9Fi/8qc6npPRYIGeDoPRBqurDRajSawNKlVKyPlVKYWGrGuNWg61WnlMws0TWC4ZaFxwNrpOZxXP1Wan+7E66NM26tsQupYUEaEq0b9c3UJD1r+CE6l7gWiMRrouXVOns8BsccBCY4o7RaUMQUSYApERPKZCj7jW8SAVzsrndjTTXGnWW9DSpKW2mWCzcT9Qe1TU9zSukuKioQmlsU7zJjxMDXn7eoVPHBdSqa1txup1+fjPf3/GzvxGJITTg1IoIE9JRsToYWSZ5CCIJofQTtzMeErDHy3sVLoPd3tt1dXQbtsB08FiOPV66EgYxJAgvPqSSZg1cxhy+qWK753O4F7ncj15BdXYsbsEW7cewJpNJWhuNgNS6gfuC3o2wY42En6hOHN8DsaMGYDhQzJIEMaRsAhpP1EnlJbVYeeeCmzcvBfr1hcgr7Cp/Vw80cliAZ0rKiqELL9MDB/eFyNy+2Bg/2TERIe7z3BsYIHHSW4HCmuxf18p8gvKxH3tPNCIILomWK7yoyUdLCZagQH94pCTk0yvmejfLwHZfUhZi/p1begMXv+srm1CQXEDCgurUF5WjaLiWuQXNqKunvqX2uKytuLqK0fh0UcuIaEX7f7l0eB7q6vX0rnq6b4qkHegBHv3V2Dvvka6Hbo3vi9+VtS/IbJgZKSFIadvIrKyEmmcZiCnT5x4Xse6RshlnQ4W1WB/fhX27S/B/v3l9Ixr0ELEIp6r6Ft65XnspDa0BqH/4BhSwFLRr18atSUZ2VkJdI9Rx5R8zM9134EK7Npbhj17irBjRzkqyg2AnK9Jl6d7HjY4AaOGZ2HcGYMxalgG4uMjxW97k1Ta21GJ7buKsGtXITZuLUWL1i7qIXIdxA4r2EXPwUFk36Z3IisnAuPP6IvhI3IwlPqjT2YCKTOe28LoVVLhB7dl20H8sGATvvhmCw0AKWSkOasz0hA+qB/UuUMhUWlOfTJxdyy/tpEmwfkjbQ47Wh1Oajeb6W5w2RfSEDkyLVjBZWDI6up8Xyf7HsUkbYW5pAS6HbtgKiyBg7SR5gY7ppzVF5dcMAHTpgwRGsjpCAcJqgP5lZi3cAeWLN6KkrJm0rBozNEElXQ8w05gM99MGnYbfTZyUBouPP8MnHPWUJFEymAhunDJDvy8eAvmL9oHDZ1LIZd4PBc/Z67nprc4EUka7dw5ozBnxkiMGNbnmIXOqjUHsH7jfixYvhdWi729YoSMxhh93tU9wkPLSda/zdkKk8FBAi8CkyfnYtK4AZgwtj9p9wr3N3sOh9OJoqJqrFyTh83b8rBoTYHwNIST9SAjcmXB0yF8TFYnLpo7Eg/cdb6o9uAJLS16Otd+OvZi9Zp8NOlMotAqPycpW9ce4OL+pXuzOuiwuDAyNwljRw/C9Cn9MXrMwB6VLaohJXf+L9uwcPE2bNldASn9WBlC1yeLyMOjFeD+ZWvVQW2w0PWjSRk7Y0wWJowbiGmThghy8cflR0MEmzbtx3c/bcUvC7eh2eQQ/Sgny6vrz1mQm6k/+XXu7JG49rIJGD0yp1dIxUyW5vpNBVi6cid+XLBNPDeNkvvg6HZ0BY91M1nKVlJsBvaJwSwa5+dMy0W/7GSPFmSvkQo/uB9/2Eqdtx6llc2Qk/4hi41CeO4whA8dgJDYePoWXYqf1qkI6lkmBS6dYm9uhkOrha2+GU4Swq1mOshEbiXSbBVaFX2XBhzXC5PIQ8jqCoEkNEzk1Mg5KTMykv5NgorMaIGTec/u++LsfUNePnQ798BSUg6zwwUlmbJzpo/BlVeNxeBBme4fnB5gzXf12r14672l2EYWCk8QLtfjL3jyRkaocfH5o3H91WeRWS/B2+8tx5ffroTF5iShI+12snWABaDV3oq+pE1fc9U0XDhrJJRKufvT7rE/rxyff7MGC37eKdxMKhK4PV2jYMI0EMElxYbi/JljceWV48gyi3N/6j+4vt5PS3bh54VbsGVrCY2fVhon3knSF6kwER0kcvr0y9VYunw3GpuMgvR7uibE08dJ802vdyB3SAKmTB2NP149gZ5fmPsb3pFfUI5XX1uI5Rv2CDKRE0kfCzoEK4+LcSP64757zxXFYH3BRvLi2/lb8OlnS7D3YAMi6d79ea58v01GO0YMSsR9d8xBiFzxq0ilsUmHL79Yjy9/WIO6RgMpKz0fXx2wE8kKpSw3E9ddPRWTxw84yiXWK6Syl0z1Dz9fhSVL9tJktwkNJHTwAIQPz4W6Tx8h2E5lMmGesNXXwlRcAmtpZXtWu8kMl1ZHFopTRK7R/BATlzUP7tQgeo/zDMViFh18GolSAWlkOGRkjUnCwyBPiIMmMw3yuHjh7mP4XVest+F+BvaGeuh370Pzhs1wkgCz2oIwZmwWrrniTMyYPgo9kMsnFctW7MCzL81DZUUDNOpjW09w0EPloJFLLzgDOoMVP8zfRhPk2BbCeXjzdgdhkaG465aZuOKCsd1aLDSEsH1XMd56ewG27iwRC6WsPf8asPXicgRj1sxc3HnrOeiTmeT+pHvwVhGff74WX363ETqTEQoSwN11hTdSYSHMVuQTz3yD/QWlNE/aq4T/WvAzY4fBnGkj8cQTFyE8XOP+5Giw9Xfzze9h94EyhEWQ8vfrL99O3loHhg3OxEcf3E7X92zl89rEx1+uwvv/XQajwXxMz9VGil9WZjxmnzMcL762AJHhnhUVX6TS3KzDu6wsfbMeriA76bm/foLzWOe2JSXF4v/uPx9nTR50hMUiefzxx59y/7vHYPfDKjJpX3trATZuPkiy2UVaMRA2ZADiZ0wXiYuiBXycauARRoelqgpNy1dBt2kbjHkFsFXXwtioha7ZRBPLCZVGjkEDEjFoYDJyh2ZgxDA6cjMwdHAq+vVNQCxphq1trSitM8NI2oWdExLJynE2NNC5q2EuKYMp7yBcNhpYYaGQqDXCfXyy+oTrpClTk6BKTSErTA/otahp0GPXnjKxcDqgX6LHdYZTCZVVDbj1lv+goUULterYF6h53xx2cRSX1Apfe4dr51jAP2OhyYvZZeX1yEyLRXqab0th34Fy/PXlb7FzT6lw54gtGH4lWMkJkrThYGE9Wsgy4HHrzzpEEwmfjz5diY8/X0cathXykO4JhcHuoQE5SRg3pj+R++GABV4/ufWBD5FHVhhbOsfar13Bz4zlV0FhLSx2OyZN8F7y/dGnPsHqdXmIiOQ6gO43fyVYw5eTJVla3kiC1IXxYz1f/5dFW/HvD5eKwJFjVRQk9LsWnRlFpbVCGfXWh80tNvz54fPdfx0G7y/13/+uwcefre41QmFwM3isttC9FRRWIXdwOuLjI9yf0ufHaqmwj+67eZvxxjuL6N8mMotcwv3AD12mVIpqwZrhgxA2aABComPFb8R6w0knGHYHBcHe3IimtRthLCiCy2iCk0xVLZEId9hF5w7G0KF9kJmRjJhIDU1KBU0yGWQ00fj+eGC1MYWS2WKzOYXLQquzora2BUUlldiy9SA2bi8nK8CFCI1UFIALUqnooYZANSAL0WPHICQ+kf0DJ8Vy4S0AONHUVlONyi++hq2xRTyW4DYpzpmai3vvnYmU5PZndirismv+ju07y6HRHDuhdEbHkPQyZ3sEPpeVtLjzzxuNh+46D3Fe1hlqaprx11e/wdIV+3369tm1xq46XguyOdsE+XAFa41CKlw5Xn9HZpCTrNAbrpmKe+6e6VNR4LWkb/63AX8jyy8oxNkjN6I3S+Xmu97EyrX5UFM7fYFlgonmkMPRHtbLc0VB84zb4Ot5cL9EklX4t6cuJ8E+2P3uYWzeuh/X3/E+QoI45Nn9Zhewtt1icsBucdFYat8kT69zIJiUizAaW2ql1ON6GoPb3VzjwL69fz+KtDkQ4fmXv8e2HUXdEgrfM6/NsZXKciWky1oLD03+jrd2MLxZKouW7BBKS0OTQVQ09gb2xBjMDjHGXDTGWOtVhAQjlO5f4cMNTM0Scn/GtEH400OXIcEdWHBMpMJhcR99vAz/fH0pZBquRwOMHpmJg8WNOFjSiDCVVCyEtclCqFNJsyANPWzkUGj69oU8gYQpQYQRc6tONOiaxoICNCxZDjsJU9ZUG5ttyMmOwvVXT8bUScNFqKhcHoIQ6tCe5HSwn5/9qDaapFyeeteeQvw4fwtWby4TG4WFUr+0BUvFQFP0TUfk6FHQZPdllUTss3Jc+4NMSCZThqWsFM1btsK05yBag4jUXK1i4LIP3GEPwuSJ/WiQXIDsPsni+6cSlq3Yjutufx8x4d61T3YBGS1OaOng/BL+YphcgnASFD3VGsWEI8FjIOHpJMHH1gwv4POz9LXIHEzE/dwTV2HOrJHudw+DhfjX363DY89+i6gwroTg/qALWgw2+lyJqy8fi/456QiPUIsdTuvrm7Fy9V78sqoApDSLueYJvNCdmBBOz/IinDVlmPvdo7FrdwnuuP9d6PQWvwilfZi256cYqV8u7kIq3/6wCvc/9jUiQ0ParXIPYKFcr7Mhlp7j5ReNISUmhpQ2Gd1biyicuGFbmQgB71qRtwPcBibvcWOH4N9v3gSZe2x34LZ73sL6TYVCNnlCs86O0cPTcc2VEzF4YBaRLj0Hep8FfF1dEymG+fjs67XCLcqC3hPqGi34/D+3Yurk4e53+NkDf//nAnzw0RKy0LxbvjzftAYHJHR/owYnIi01ipRQJ9ZtLkFNoxnxZF35a915IpWy8jpqxw9YsnyfWEPxBG4D75KbkhyJqy8ZhwED0hEWqhYKMys96zfsxXsfbkRMLMlCL33Az4H78h9/uxpzziVlmUmop6TCJtU/3vwRr7y+jC4mJ21JirvuOJcG/hTqhDZs30EP40s2o3ciLEpKAyNEmEosvCUkdEMSYhE+ZjhCBw4iCya6vVV09HauisjZcD8U1soZrdT25jXrUPfTEgST5tZssiM6QoWH7pxJHXKGCJPrzcRA1j7YmuEHPP+n9Xjh5aXQhJNwoz5hYRfkcEIWHYHIM88gi24wZBGRYrL1Sn/QvXfkrTA4MVK3Zw+0azfDqTfCRYNZSkRjtpPwNZMZn5soSrzszauFnXhm4pgsPPf4FcjO8t8nfyIwbfYTaGjQC4vRE5qNdiTHa3DdFRMxYdwgREaEipyPvPwy4d7ZuqdGCDJ/YDI7iUCUuPv2qRh3xkCRD2Kgc+0mZeHVNxehqcUEjdKztaQlIrqOBNZ9t806KsyXdym95JoXRb6HN8FRVGnEc3+aidtvPV/Mn855CzxEeGwVFVfjroc/REVFo9DuPaHZ6MBlF43Fn+6Zg5iYo8ON9XoT/vX+z3jng5VkVft2e1porLSQADFaW6FWSxBKjKatt+Hyi0fi8ccuRXJSjPheVObtSI6T+9TyK5useOnJi3HFxWcKBa79q+1bVfDcWLdhH1545XuUVTR5JU1eX8nMiMcLT1yOoUP6uN/lPZgMmDL7b3A5TB7HSYvejlnnDMdfHrmASDf6iL5ldLRh6/YCPPb0p2IXWU/3wiH6jz0wCzfdcJ77HeAAjbMXyErZsq3Y6zPhxW4JKdx3/XEyLrt4EjQkyDvOztfdf6AUdz/0PqrqjKSgd2+NdyUVOgU+I8vzT49/ghixlnR025lQDLY2PHz7dNx04yy3Zcjf6/huu/XU2KTH1Te8jMoavbBaPIGDKOKiNfjivw+TYhHRM1KxklD+60tf4Y331yIhRoHo6FA8cvdszDlvnPsbh9FCD3bl6p34+NPV2LS9BmERHL5Gg4bvmMgliDR6GQ1yTe5ghGb3EesvvAeKmDEsCPm1J+AO4d/QwcUXbfUNsFRXwVJTA0dDE4IaG8nCsiGYOoDUTbER1rQpg/DY/ecjPY0j044/OMnr448W4K9vLkdwG0eSuB8i9UcwkYgiPRnqnD7QZGWLRf5g3nXSnUXtnnWH+6XjfjtI0H3vHZ+3Wi1077Uw5OXBuOcAnC369uKTRLDsQuEtjQ26NhK+w2hSzEDf7BQSvOV4+sXvsHFLEZ2mFWOGp+H5J68hiyXJPeBOLg4WVmLaxa8g2kOuId82r4FdesFoPEQC1FN4K0c2vf2fRXjr/RXtFoL7fU9ga2P8mL74+3N/8LoY+8if38e3P+1EqAdiYYE3sG8Cnv7LVRhIGmAH2Jr96rvVuPexr5Di6UYIDST0nnxwFm7542Fh5Q02GlOXX/UiCktqPS6Es/Bgy/vpx67E5DOHuN89DF5Mn3PZ34Sbytsz5nM0tLhw+x/GYO55Y9EnM9lrnsJ3P64mK+UrRHohKD5Xk9aBN1++DufNHOkzmGH5yh148R/ziISbPVqFfC5OGrzlhum48fpz3O8C23bk4ZZ7P4LdZgWJSve77WDlNisjFo/QvJ84/uj+6IwWrR5vvLsQH3222qNwN1ocuObS0Xjq8evF30xG//lkBV589TuyDjxboDyuZHIFnn/sIsyaMcb9rmc8+H/vYt7ivR7L3XdGV1LhLUT+9uq3WLJiP7XD829NNhfJ7nNw843djzHu57mXPEtjzLvyUkFW2wf/+APOI2vF74V6HWk0L77yDd78aD0RihLxiVH4073nYfa5Y93fOBKc9TuATPbLLp5I5u1opCWHo5HMOp2BtHMyx5w0SOw2B0zl1TBs2Ymm5WtgLiuG02gggWgV4bpBLFDphrhkgOcn5BIEwtv3OptbhABtXLMW9fMWonn1evq7EGbei8RoEguKbIW46IiJCcU9t5xNwueCX52w1hPwpB85Igd33DgdfdIi0NRoRFOTTSQ+cVkVCwk9S1EZdJu3ifYbC/Nhqa0RwQP2xgY4dDq4DAY4DCY4qY8cTc3CArFWV8NSWgrdvn1o2bYdDQsXo/7nZdBu2wVTZa1wmXA+DYe5tgWHoG9WHO6+5Sz84+80sen5RUe1h2ayJps7OAXVVS2ooqOMjoKDZRiem4XIqFCfQvhEYN6CdWQJF3l0abArZNY5uXjo7vPgLQmP1xWy0uOg02qxP7/Gq5+ZJ35mZhLeff1Wn4vcZ581AstXbEdj89EaMf9dVN6CyRMHkxCOOySweQ3uby9/C5PRLCyQruD1k5lT++PBey/2K0uex9T4sf3w74/XghXJrtOEr8tbzub0TcKQQalHCHE7WR4LftmIJavzvK59cOVwTXgofvzsHlx84SQkxEcfFULaAXafPvjox3CQ8umNoNhddusNU3DpheNEprwvZGYkYuf+auQXVAlLwdO9NettUIWGYeZZQw9ZHFu35mPt5kKRz8iL07zg3XFw5NioYf1w2SXjaDz4tljpimS5V2HNxgKPLiRet8rpG4+zpra7v5qb9Zi/aDt27quEyovwJS0QN11zJq6+cpr7b++YOH4wNm06gKpanU+3ZOeFeiY2jiR8/Z2FIvzZ02Mw0xicMr4fkeG17nd8g/t5zOh++JDHGCnCnp4tV3ioq2vGBaR0+EUqvDfyG28vwJv/WYPYKDmSkqPxlwfPp0l1tL+4K7gBrOnlknl6wdwzMOvswUQwEWT10EOhx64gE9pO2paN+MNK1o31YDH0O3ZDu3UHzJXlsJLF4dTqhCC1t2hFmC9vYmVtaoK5oADaPXvQvHYDGhavgH5fPkz1TbCTgFFqlAiL0oiB3t4FQSKXIJO07scemEttGU9CxduDP77gwd0/Jw3nnzcG55w1CLExapBSRUQqhVwlpX6hB0+WlFVvhrmqFhbqE+OBAuqXvdBt30Wksx3aDVug20qvW3fBQJaI4cBBGIsrYGpohpU0KHb5acJVCCfCCA8PR/9+Sbji4jPw4F2zcfMN52DIYPYjH61NMsEMHkTEUt2CGjpKKppRXFot4tIjIryHb54IfPTpcpSVNR41UZgEEuLCyOqahFEj+rnf9QzWsE0WF5at2UeCqn1doCuMZLy/8+r1ZMEmuN/xDs5Nef/jdQj1ENasMzlw5rh+ou+59hiD3QkPPvoVoiOPTk6k2xBte+axy5CVmeCxbZ7A88tq1mLT9jKPaxBBdGm+Hidmdt4SgSPVXn39B7LgzB6FllgbCgrBNx/fg759U9zvekdVVQNefXspWDn21HQWwrHRatx0/XT08+N8DLmkVbiSdAbLoUXrzoed5nR8bDiRd3+oefsHArvoUxJDaSxkYnSXY8zITEyi7+b07b6aRG29ViRMchUBT/3Ka3cDcxIPkUpxaS3mL9iElmaDR4WB+zNMHYaXXrhWuPy6A4fppqfF4ptvt3gV5ozOpMLPdOnK3Vi+1ouiQJ1YR0T88du3i0AHf8Hla0hKY+2mIo/WCt/vtl21ZDVO7d79xbV+3iYT8I33lkGpDkIiWSiPPTgX06eOcH/j2MGhoexyWbuhAPlFTTQYLNASYdQ3GEQkAvubJWiFlB5GEB/cp51ay/kiTiILB3+PDjbzY2MjaeKEYkDfWDidVixYuFu4HIx6B0aMzMafH5qNYbl9209wCoEX+DlP4MCBcmwjTaOwRAeL3Qqb2UwEbIODPrdY7PTqEqHcTJIsCCTSILHIKJPJEEIapEKhhEQuRwwJj8ED4+hIIwGVKNxBPcn0Li6pJjN+PlauzyPhaMOMM/vTZLgOcbGHQwdPNKbNfpas3aaj1iEs1CdnjOmH5/58KdL8cGXu3F2IF/7+LfblVx+1cM+Cqg0y7Nn0kvsd3+BnkTngbiLjo33XzQY7Hrl3Nm64euohrXzR0q34w53/QbwHUmFfe+6gZLz64k1ITIhyv+sfdtE9nXXhS0iJPdotxT7v5IRwvPzCjaRMZLjfBaprWjBi0qNI8OKGa9bZ8OT/zcX115wtBFx34HXDR5/5FlIO/vAAtlLOP3cEHrpnrljL8Ac8J97/aDVq6ptJcLnf7AQHKV/9+yTimqsnILoXvA7s4ue6ZKUV9fhp6V7M+2GtCHjo8mgFOEn24rnD8cLTN4q/lyzbhUce+5jIo112dQVHyj141zm47aY57ne6BycuPvbUx1i17qBX11Nn91ddfQuee/ELLFmZJ/KMuoLdstmZsfjx68fd7/gHtoC2bC/ERde8hpgwsvA89Ee91or//PMG36TC5vGnX6/Bqy8vgCvYQcymwrOPX36ImXsTRqOZBnkTCg5WY8+BatTU6mEwGWEgK8lgtNDnVuiNNuhJ++MhG6aUIjE+VGTVRtJgiokKx6CceBKiqcjKSsKBvHK89uYCeq1Cc4MV06cMwaOPzhVrBz0FE2tZeS3KK5tQXqWF2eCASi1FRloUCbEYZGenwYsn5ZhB45g0Hq2IhmkmzYdzSLgAnJEEPFsiDA5xVipl7UXv1Ap6Pmoi1jDERLN14r8W4g0FByvw/Gs/YvPmQui0Nlx14Vg88cQlIkLkRIOjasZOfhIWq+6otQM9TdbpZw3Dy09e4VdOhiDM176niZp/1MRjwT4yNw2f/OdB9zu+wQrLzPOfIKF3dD6C1mjHHTedhVtvmHFoXeaNt77Ha+8uFQUpu4IXwufOysWVl046IufDH5gtVpxz8StI8kAQJA9EBNt/37sLZ45vrwjO2LQlD+de/hpS444mIv4NR9At+Ob/yNJK8ShUu+Lvr36Nz77eSPLGs0hp1ttx7x3nUp+cLTTfkwV+ZiaTReRZ8KI+R701NRtRWU2yhtMDtHrkk7K760ANwlXec2w6kwp7RL78diMeeuwTxEd7LpFT22TDygV/El4Kf8GRgl98sxp/eeE7EfHoCZ1JheubXX/LP4W89NRuHpNPPHwebrx+lvsd/8HV5m+68w0ier1Hy5bdajdfN9E3qSxetgPPvfQ9aYc6UYPoBZq05870vbjUG+CoAyMJ8hauEktMrSXzXM+VNOkwmJ1Cm2RSSU6MIA08TPh52ZTr8PVu3pqHV95YIAqnaYlQ5pJ29Oc/X9jj3As2uVeu2o0V6wtQW9OAetKaquvIiiKrR6WWIDWVrk/XTklOxoWzB5G27D0R63TF/gNleOzpz5FfWAurwYW7SNN64O657k9PHHhBesJZT8Fq9kAqJPxmnDMCLz91Rbd+ekZpWS1e/Mf3WL5qv/A7dwbnLkyflIM3XrvT/Y5vsDC55KrnhKXd1UXCCtBN10/CnTefS6TS7jq8+4E3sXhFvsfSJ2xRJCVEkLUdISr29gS8hrNpa6GoKeUJNfUWfPjO7Zg5/fDaw3c/rsHdf/rCYzQcu3Yy06Px77fuofnln3V6w22vY9uOYq9CWEcC7bFHLsUfr53iF0n1JrguYUFhJfbsK8f+/Dq06ExELHQYzG6CMaGq1oQ2ahevtclDgkXdQl/t7Ewq7Hb68POV+Our80iTP5owWdMvb7ShZt8/PbqdvYGjwZav2YerbnoTiVFKj+3pIBUW5Dt3l+Pci15AfIzneVDZaMG8T+/ymNvTHRqIB54nK+inJfs8utZ4/I4dlSFq1XnEvv2l+OSLVaIYXAuZ8ffeORuzZox2f3p8wQvq7PvlqKwRw/th2pRhuGDuONxwzTTcc8s5uO/WGbjxurMw4+yRwpWVkBB1iFB27S7CW+8twr68SjTXWXHZxWfgsccu6jGhrF2/F7c//BFeeXM+5i3YhK3bi1FaSVYKacV2mrcmEj7F5S1kEhbhm+9W41ki32de/BZV1Y3uM/w2wJFLTzx6qQgdV0dI8eX/1uGXRVvcnwbgCywAeLG3M6rI0uU1NU/gCKeaWh227yrB1m1FPTq20OGNUASkQeAS76ywdYAtcG/cxW6S9LRoIVz9RWmFnhQ+9x9dwJZPVDhZ00RgJ5pQ2OV4+0Mf4s/PfI033/0FX3+7Br8s3o71Gwuw90AVyitbqC8ciCQyiAoNEUl/IdQxPWknb4tgNJhIg/f8I+6WfunhPSIUBisAUREqJMaypeulc91g4jKRxergBEYv4FJCcbE9c612gKtHR0WHCaLzBElQMEpKGz2Tio5Y/LPPNmDbtlKRGPjHayfjorljqZNP8GjoIVirfp0GzdadpWTO2nDhBSNw372zkZTYHj/vD/SkuTz9/Kd4+KmvsG3LAZETwREwXHzwkrkj8Oj95+HFJy/D4w+dj8suGCVCBy1EMIXFdTRY1+H+P32KVWt2u8/228Dw3Gw885fLUVNNWp3Fhjc+WI7ikhr3pwH0BI3NRq+Ch8EWB5MDZ8v35Og2qZMu2U4qhwUCh9d6A5MAB20EuwMM/IHFygnN7j+6gFeqVCoZVF7yeo4HeH3hj3e8iWf+/j3WrduLwsJqGAxWYSUycXD+C1uX3OddRRvfP7tCbWL9sns4XS5YaW54ewycr5aedGxrPlz4lXOvvD8tN6jRDnrGYpsGb6Db6Umx087ghN4wDSdHegb3oVZr8Uwqi5btwLI1O+BodeLMsZm44arJR0SNnIooISH3+r8XYtXGg2g22DB75mDcf895wkLxlws56WjWla/ihwXboSMLjclErlbhr09dhs8/ehCPPngJrr9qKq64aDyuvWIKHrn/Ynz7xf/h2UfPFy4ZFrj76ByPPfsl3v9oMawc4vYbwYyzR+CRB2aIEM6Sklq89PYSGh/ehlcA3sCh7ey+PRloJ5Qjr+1rbnA4rp9TR4wFX7fFH7HW3TXR8HiBw1svuvJ1bNxyEHqtSaydMYF4c80x2H3DnogmnQ31pJQOG5yCKRP7+0csdIP8XL2dnT871tpbwaSEcJANWyLdgr/ii33oc3/lYVfw9Zk8fYEj/I66y6LiKixevhMtBovohDtuOReZGf6HN54MNDRo8c6HS/HzL3tEdNSUsdl48M456JOV6Pcgnv/TBlx27VvQ1jUIf3JjnQ13/nEKls1/AldeMgl9M+MQGRkmdkTjcEAVsT1na2dlxOO6q87Cwh/+gnPPGoSGeguxtQkvvDQfTz73jWjbbwFczffWG2diUJ9otNEk27+7AAt/3uj+NAB/0Z2mzlnadS1W1DX37mFttsNhdvgnmI4BXCaFK3e3S7WjwbOQ159cHIFynMEpCjfe/W80tTQJC65rDlEHOMSX+7uk3ozCEr0gnDnnDMRLz16K5Qsexeuv3IKsPqkwWPyzVnyB5ZCerKRjAnUpPzd/ZHC3a3FkePJzOBZwG3htyheio1RHkgqXa/554R78smifiJe/+orJGD4044RpF8cCjt54692F+O8n66BQBGHEoGT86f65GNA/za+HwJEgr/zzWzz0xFdoC7KLhVrOKVix8P/w8H2XIjpc1W0+C2sRXLvopRduxAtPXwyrrZVMzGB8/MVa3PfIh6KcxnGayycUYWFktT1zPZoabKis0uLLb7cJF0MA/iMyQulN7kJPQv+um8/CZ+/ejC/ev6VXjx+/vQtTpgyExI/Q4GNFEK+/eJlzvLakN9hgICF+vPHZ54tQU9Ug3IKewFZDo9YuNqd78M5zsOr7h1BT+g52b/oHXvn77bjikqkYkJMq3EQsQ/yZurxOxsqmN48ik1th6bHNFQvXEqzVu//yDl6LjgjVIMjhnTQUsmBU1xzbui+Hzzc3ceSX52fM63CpKVGHSYWFXn5+JVas3g6lSoKRQxIxa/qQQ1ErpyKYBL/8eh3efms5omPk6N83AQ/dOwe5Q7Pd3/AOJpOiohrc89D7ePfDlQhua4XJGSzWTXZueAWDBvZ80yq2YrhcxHtv3kokE4WIKAXWbSnEXQ/+Gzt2FbnzS05f8ATr1zcJt90ykUYwWbWl5Vi4ZNsxaz6/R3BJfLaEPYE3gUpIisWE8UMwZdLwXj848EXagzWSnqJPaihp++4/uoC5plnvQLPO2iNriccWV0TnCC0OLDj6sJDQtR06p8nqwOff7IKVXj3xGxNKVKQaLzxxERZ+/zjuuu18EezjqdROO5t4d2l1Bu9rz/OfC5B6Q32tReTq9AR8Xzoi47Iao8jF84hOna5QcsIkb8fhuR1cfZhD6o8FZrMdeQePzu3qACedc/WIQ59aLFas25CPjRvLqfESTJs8nLT9wzWLTkXU1mnx7Ks/IjZViTQS4nffOgsTxnUfKmcwWrF89W7c/8jH+OnnXWRpBCNUpsHfHr0Az/7lOve3jg38fKedORgvPnMVRo7oI8rVFBY34pa7/oX5v2yF2XJ6r7NwHsj5509CqEaJ2gYzVqzNF7WGAvAPGRkJZA17JhUladbV1JecEX46YshArhHnWeAwgonPGpq0IhjGX1RVN+DDT5bgzXcX4O33fzrqeP3t+Zg3f5MgGEZ+XgkJdotYh+gKFrQKuQxXXTZJuKw1NIZ9weVywUmCsmsIuyewt0KlVsLhy0oIl+JgXrH7L//ASdGl5bWiHL83yOWH+5xz1oblpom1O09QyiVYunKv+y//weTGJfS37av1aqlwwvrgQZ1CiiurW/DTwi1QhkqROyQV0yYNEOsGpyqYiBsaORGRc+qDkJWViDNG57g/9QweJJwc9MGnK/CX577CjvxyYU0M7J+G19+8HpdcNLFHWee+wNoPZ3ifN3UYPUi5KD53+0Mf4cMPl4uExtMVPJz6pkfjiovHivDUvbtLsGFTgbD8AugeQwZnkmLhua94wq9dn3/svveTjEED0uAjmlXUzyojLbkn64x795fhv5+ux7/eX0HH8qOON95ZgRUrDx7K+K+oaBC1xzzxgMPVhhSy1qZN9i9Hg3NPmhpbSDP3LESZpHitkcEpDUkxkQgLkQnZ5Alc1Xn+zz0Lx+dtRlav2Svy8jyBF8YH9z8c3cpJ0AMHZHgdYxywMH/xgR67rdkrtH7DPhHs4G1ZwWAlUhmY1U4qDoeTHl45tm2vFAuJI3L7+FXr52SC7ys2JgL9SMAxQ+49UIn3PloqSmZzqXmuMMpFMHnNpba2WZSx+PjzVXju7//DP976CU31RiRGhmL2rOF4/umrcMaonEMDs7eQkZ6AR8n6uerKSQgnDYKTop574Qe89I/5ojzN6Qp2iU4YN1DU26pvMoscCU6QDaB79M1OJW1Z6tE9wW6FLbsqsGlL/mnpKh2Wm03Ch8vXu9/oAjkJpK07SrFnf4WQOd2Bv7N1WynsDhsiQuUIU4cccYSqQhAXp0JWv5hD+R+coOek33kSe+yaCg6RIzLSP5d+Tb2W2lou8jM8wU5WCZd670BqajgGDUkg8vL87HhztZ+X7kNNTZP7Hd9g199OUtq48kPXJN0OcITqtMkD3H+1hwtz1RA5fd/Tc2BCCFNL8fo7P4kqFf6ioqoRX3y7wWspfo6cG9g3Dikpse2kYjCaiUE3QhkuQ1p6DCaf2e+YY5lPJBISIvDQQ7OREB+OouJG/PujZXjh5W/x/Mvf4em//4CnX/oeT/79ezz/ynfivb//4wes2ZBPWoWETPUU3HXLDDxw11z0IyvHm7vy1yIqKgz33T4DD94zFylJEQiNDcE387bgxdd+FAmWpyv6ZyeSNUsaH42g9dsOIo8swAC6B+c7TZ/UF1YSBl3BYzCCFI833l2E7TsPut/tHux+/Otf5+HZV70cf/0Bi5fsPOQiOl7g8P3hAxNJWHl2vbBAM1ns+OaHTSirbOp2AXzv/lIioWLYmCQ8zE8HCbLomHBMHne4lh/79b2t2QjrpdUFm9V3BBODLYR1Gw7gYHGD1zUEdmN2LoyZnByDnL5psHixEji6jMstvfmfJaL8SneoJEH+j7d+EVG43uSTXs9bKh8u4c+Kcf9+iRg9Il0EHXkC7wH07byt+HGBf9GbBoMZr5EiXl3rfR+jFq0dN181UVReCeYHUFHRhBVr2IQMpo6Jx+BBPV+kPhngLX5nzxyNvzx8Ea64cAwi1Eqytqowb+EufPntenzxzTp8/d0G/PDTdmzcWgq9yYnM1Ej84erJeOKxS3H5ZRNOSOl7LrF92UUT8Pgjl2DYkFTYSJPhkhqvvD5frLP0RGM4VcBkOWxoBiJDFaIeGlcwsJzm60UnAuxevWDOOOh1noUKZ3JXVDaLWk8L/AjZ5j1mnnj2f3jvw0X4z0eLPR7/ePtnEo51XjP5exM33TAZjc3eBaaGrLSdu4rw0j9/EPX5vGVnFxZV4b+friANuQHedh1kIc0Lw52Datj9w7spegK7sYw6PQ4W+V6oZlfPkhU78OnX670WcWSY9E6MGHY4KIhTDHKHpCMmUuV1oVwS3IafftmGt99fJErle0N+QTkefuIrUbvQU2FIBru+stKjjpLXKUnRmDJpiGiDl2aAja/X35qPDz5eIrw53rBvfwnueexTLF2xGxFetu/mdqSnRGDSmVwCSALJnx599KmFizdjycoDiI/VYO6s4Rg35nDRuVMdPEkzM+IwPDcTZ4zuR0c2BvaPR5+USCTFa5BJr7mDkzFpfA4unDMW114xCedMyxWuqd52d3UHjr4ZOiiNtAsDtm+sgNVlxa69ZaRdOdG/b5Jf+2ecKuAw89ZWJ/ILq0SZ/OgIOUYOzz5uSbJMvB98vBJOh00Ik86wOVuR3ScR50wZ7FcfanVGrNuYh5Kyo7XQ9oka43eNO1bKvv52NZpaLEdpceweGZGbgdEj+x5yz3C/cZADF+ssr24Wdaa6gt0k9Q164ZJevDYfwa1WUrA5CsomvAq8JpFXUEZK01p88Mlq7NpTKgqccoY4C6DOB9/P6JFZuP6qSaQwHlkZeOfuIrGPvCfXCoeH8t46Y0f3F6Gy/oKrK69ZtwvNWt5jxoNwpy7i51de2YhVGwpRXFQOl8shCsrW1jUhL78C3/64Ee99tELU6eJ10K7Pm8Hb/iqUKjx096wjrAWuarx2YwEsZI10/V1HWLOONO+c7IRD+wh1RklpDd54Zz4+/mYjtCT0vYUl8/49k8f3wTVXTnW/0/5sNRo5DuTXoKi4nsbi0b/lNrWStbRnXyW27y6D2cjE0gYrEVldXYsQ4p98sRLv/HcV9u8v87ilQgcaGq24/66ZQl53VhhE0IAyBAVFtSgli5Ddjl3B7WCrcfeeMqzfUoKmhkZYzFYiOh3N5wbs2FkoPD+fkGK+c1cxVDRGPDwGgaY6bse5OHPCQLq2BEFarb7tj7f/A5u2l9PETMCLT12JoUOy3F8//cB+WI6w4g3AWFjzpOdwP/Zjs0uvJxPkeIGrMX9EAvL1txcjKkZOAyIEl180HrfffBYN9BO3adivBa9ZvfDKPHzxv7WIiVDi32/eTsRyeFvX3sTpWFDSYHbgpusm446bZx0Rms+/Wb12L+5++D9icnsSmgzWNO3ONkSEkfYdEgJnK+dMBEEaRAzb5oKdxrnV7hShpp5OwYTC4/6eO87F5RefeRThfvTpIjz5tx8RSYKwK7ji7LWXj8W9d1zgV+Xnztix8yDOmv4i0rJ9V8pm9xEHJyjIumhrc/ddWyvNXbuIemq/r6NvjLVvdrBdev5o/N+Dl4pF8g7weup1t75HxNt41PNgcJ8GBUmQkBBOpJAjLAsuIVNPRL1idT72lzSj1Wykfnd5dXsxyosMWL3ysaOsBA5Y+ea7taJclIETyD0RK4ETL/k+WPjzOg9v/c2KA0hRc9L9c7FKT+3vAJMab7b3+ks3iy2Vu4Ll4PfzNwi3la92cH/wZdVKGaQcZOCO3Wp1OWmu2cRaia9+4ErWk8fl4Ik/X4a0VN6MjgiLY+YXLS0UA1uu0KBvzqkdRtwdmKU5qYkrvfKe2eznTYiPRASZpqcCoTB4Z8I7b5uJF565VGizTocdH364Es89/7/TqiClKPpJliAv/FXXm1BdqxWaZQC+wVolRyrecctskYTHwsUTeE5yspqFJrdea4BJp4dZp4OBXo1E6LyjJxOsB7krlCme27Nnj8WF5084oVZw7tA+eOrpOWKLWV9gi4yJz8hbOhiM4uAdMdvDeL1HGfF9cYWLB+698AhCYaSmxGLY4ASvglAQOBFXTU0zvvh2Ix556ms88uQ3+MdbS4TFZzPohUvOlyDlSr+P/2W2x5QL9n7w9upjRg8QYb3eni0TJj87m9UOk94Ao1YHs8EAi8kilA5fhMKERNIfD97DW6F7LpTLcnD2rDNw9vSRdD4mMM8N4f5gtyDvSGokC048AzrYauGu8tUPXBstOUGDG66bQv0ec2gcBh8kMzxIHgSVQoK+GeHChA7g+IP317j+mrPw1j9uQShpiiGkDH7x8zb86alPUVHZ4P7WqQ2e9IMHJAl3kVQahLKyar8WIAPgRFk5rrviTDx89yzoTXahEXoD93OHEOKD/83CgP7vEax9sqUxfdowOv950NC1TiQ4s/umG2fiijlDUKf1HRzAt8D3wvfU3X0x2JKUymR4/+07Pe45w9fmrRlcJqkQpp7A52+/JglNsvpCgnmHSz7a+9fX9SubLLji/KG4+YYZXteoNKoQUXC2b1IqjEYujeP+wAM6nm3n+/cFHie8L82fH7kE488YIO7XG9RkBT1812yMPGOgsOZ9t+Pwc+DX7trB7lFe63rongtFbmDndgSzb5ezLPmC3/+0DcMm/R9e+PsXotJuVXWzSFRiQRHQQHsf7IOfMXUoXn7hOtI4YhChkmHdhkLcfu+/UHCwSuSBnGpgLYrHA28YVkXaXl09WSfsZqExxP5o3jkvAP/AyXf33DkHr/3tOmjIkjaT1cqEcKzgn/Iuhbx/8OUXjsXfnroKarXnDaOONzjH7bknriViGYEWnVOMkWO9Nf4dE4SZtwNPj8aqhU+Kzei8gdcu//7yxfR9soSElu7+4BghXER06JqcuOf6yXie7ou3pfYFTnf48KNbMPqMvnDwc6F5481a8AfcBrYMFPIQvPzMFbjionFkfXoOM+4MbufbL16HC2eNaN8p91f2h1BY6DlERofi+aeuwJzZY44iYcmwEWc9tWtvpQgF4zUpl92BzTvK8dk3m/DJlyuxa9dBVNc2oUnLZikXhOP4cmJ11ph8mEYB+A+eBKzxF5Y0gkvtNzQZ8fPCraIkSnJiFPXzybMemUS42kJzixFlFY0isICLb771zk945sUfsHDpXuEDF/Xh2loxg8xtrhHW22Cl84MPl8Fis7LlLyZ5x8Gx+n2zk3DOVP8X6tesO4CDRQ0kf4OOOBfved4nIwazZ/m3UN9K9/zl16tR22AiFa1Lu6wujByWgTGjDi/UdwV3G++sOHlcP7H7YGOzCQ67UwgQBs9Xb24gugT1Rfu1OJNbSZpphDICTzw2F7fddG63QofDlpetyIeMFILO7e5oe+6QVLEIfKxuY17DnDh+IBISNMgrrBM7yXLILwum9lvybW3xM3c628Tir7RVgdv+OAmvvngzEVb3RMm5GsMGx2PxT3kIktH9iLDkjot5vy5d9lCf8npWED2gkBAFjYl4PP3ERbjqyilkIfk3vnnP/EvOH4vo8BBs31QLiZIX5J1kbbSXfmnvAmoLv3YB3z+PAP5uK31HIZFj+MBM/PXZK8gCHd4jmcAuwhlnD0d8rAo7NlWjTeqCiXePpQu390P3z4ETR7n/FHIFRgzJwgtPXEbP1nMSadAfb3upbdnqAsGAIVGRcDkccFotaON6OqQpc8dydI3RSoNWFoQp4/sInykLwsx0Xq+IELsuiuJr7pMGcGw4WFSJ1179Bas2HCCtwgnee/25x6/AeTOHn9AabFwmhLdaravTig2MysprsGtPMZauzofJ7KJJJSXTlyYbCWQeaHzwBOCp8v0X/4fsrIT2E/UiuLT6LTe9gSoiNyGJO6GVxug5U4bg7ttmCMHaHWpISXr//WVYuf4gTfQjFSO7xYVpEzPxxJ+vdr/jG0y6dz3wDvJKWkj4HXkup9GFqy8fg8sunditZtuB3XuL8NlXa7H9QC0cZhPMRgua9Vbw2ryYYDz72yWfWFxVaUKgUqshl6lw5cW5mHPuOOFa9QfffLsK//rXasgijiYfp8GFSy8ehmuvOcujm6mn4D7/ft5GLF9TQJaLEQ5SDqxmO7QGljN0M+5HyrenVEhFFJVSpYQ8RIVJ47Jw+cUTkJYW59Pd4wl83Y8+oWe9phh2lwVmEx0kUFm4dy0Rr1RK6NoyKGgMyeRyBBOZ9O8Th4vOHY6Rw/v6/Qw9gT0+y5Zvw7cLdqKWlIdWvn9S1swmh4hUa2VHED9aOsLpmcqpHSoOj5YrkZoSjesuHoNRI/qJ+mK/Bhw5uHDJFnz9wx6YbWZ6DhZYjDYY2QVL88i9Ti/Gl0IhIQLnMaZEELWjX3oMrrr4DIwemSPkvTcEzb7gsba8wgYoIyORdNXFcJktsNbVwVbXCBc/fKsZLoOe/m0Qg5lJxkz2HJuz6clhGDU8C1kZqeiTGY8+WbwwHiPMem/aVQC+wZnpr725ED8v2kJ97UBLsx333nYOrrt2EhITjgwJ7S3Q+GmvhFrdiKKSBhQU14pyGjt2FyP/YJOoo8T1hZRcf4jGQJBMBklEOGQqFaQaDex19bC3tKCi1oI1i5/EwJyk9hP3Mmpqm0mL95y4pqYxFxEZJvzk3YEjY7REmt7yalizi4/3f3c8jubjLG5PCA1TkuWm8Rxe6wMcXlpQWCHCanfkNZCi5yKN0UVCp43ukTT3oGCkp4Qhp2+csHRyBmR6DB31BR3Nb96QzxvkZF1xHldveiQ4ka68sh5FhdUoLmtAXlEzWjlYhZ4bPzpWVGJJo87pEyusz5x+aSLw5teA3U6NTTqRF1NUXCN2bG1osojrdkZ8nJLmWCjSUmORRnIsNbV9u4veBCshtUR0xaU1KC2tR0lFM+pqSM6yj4y7mRSTzBRqQ3IkKe1xyMhIEoE9vQ12rXNVj+KSWuqTOpSWaWEwOtFK+oVYUyH5Hh2toDZEYWD/ZHpNRLKfu+cGjZl0X5u2xYyQiEik3/oHBGtCBSGw9tBqMQlhYW9sgq2mAQ76t8Ogg71ZC5feQIM8SIR62i2tiI9RI2dgEtJTk0SeCCfGZWUk+mS0ADyDhd1HX6zGJ58ubXc7moNw4SWjcMPVkzBoQIb7W78eHHpdVlYr9vLfm1+Pyooq7NlfKfbh521kSVGhcc6UE0QkEgZFTAxptRHiUKQmIIQUEVlUNOoWLIR28xZU1lqxkkhlyIDk9gsE0CvgJ8BlWxw2JlQiFSJ1rjnVxWA7rcGWKDuCesiLAfQi2GBkt1/7Yr37zWNA0OCRd7RxaKIsnEjl7psRLO3kk3ZbGxxDza4wEb+t1QtysdcR0WibYK+ugaOeNDX2l9KgsNnbEBejEgUe42KiMXZ0qgif7JMVEDQ9Afsxf/5lM15/ewEKy5qFf3zC6GzccsNZGDvmcK2fnoJd9cVFlaK+1KatFURaLSgrrUV1rVFYIzypJfSsg5UKyJPiIScikUfHQhYXiZCoKKF8UGOEVskaYJBEgroff0ILk0qdBct+fhK5g5LF5wEEEMDvD0E5ubeJcABZeATS77gJwXIflkUHybAl43TCRZaMk0mGLBlzbS0slVWwllWhlT6zkY7rcrYhIV6DGCKXvkQy588eKorOhWp6fyH3t4qNmw/g1TfmY83mUpG13j87Abf8cSbOmprrl6unA+yi2bI1H4sW5aG6oRF1dNTXk4VKRMLKocTlgjRcA2VWOhTJqZDHRhOBhEEaGkoEo2pXLGicCHS8EgSpzPs5QCoBBBCAwBGkknbrHyBR9cB/6SYZsBVjt6HVaoW9xQBrVSX0e/fCUlgOkJnuCAoW0QoREWpkpMXhojnDSSgOQ0S474zbANqtgQP5FXjn34vxzddbEJ2oRGxsOO64eQbOP3e0z2gnk9mK3bsL8b8F27F1dzkcZjN0zWa0BfMjp2dO5B+sUSM0dwDUqWmQx8dDGqYhxUIh1k0OoROJdAWTTe0PC6Ddug2V9dYAqQQQwO8ckpiEUU+JfyjkCB0yEBI1kYoPIeIRRC5BUilptErISLtVJichbOhghI0YDolSitaWZrQaTLA4XGIPlGVrD+KXpTsRIm1DZnq8R8HIeyFziWguW8/+5BC57HcZwsxWYUx0GIYOTgeHr67bWETPx4nlawtEqOWAfkfWDOMnp9Vb8NU3vGfMN/jkm00oKa6GifqfC+UFOx2QhUgRMWIQYqZNQvyMsxHavx8USUlEKGGHSkb4DRorhn15sFXXQG924fqrp4iS+AFSCSCA3ycOkUpwSAg0JFxkJFh6TCpdQUKJSUZKWrA6uw+ixp4BZUYynI2NcNY3EzmQFm2y4rvFe7Fk6TYM7JcoIhxYgHI9qX+++T1uu/9D/POd5fj4f+vxL3qdt2ADiPeQnZUkShCczmjUmfHs858gMSEScbGH92PwBu4Xzv0YOSILKk6Q3HQQcuqCxb/sI+HtwpAh6SIknGta/fPN7/CHmz/A5h2FsJotCCIiauM6SkQ3oQP7IW7mNCReOBdhAwdBHhcvnnuQhE7WYXX2BPSbNoedSOUA7A2NRCrOAKkEEMDvHEETz3qwraHBSJaKAnEXzCJhM1gsyvcqSPiw752pylJejoZFy2ApLqX3guEkAisvN+HuW8fjgrkTcMd9/0ZtoxlhGhl71UTyjcS9eFDbbMOkUSn44J17RLz2tu0F+N93a7B0VQGKy/QIVUkxakQyZp41FOfNHif2N5Cd4ErE/oB3nxwz4UkkRofib3+7GOfOOsPvislsbXz+9Sq89e5CWIks6ppsuOqi4aiva8H8JYVIjFdATYwj1AJnK0LiohE5YTTCBg0iK7Td3djWW9UR6Lk6mhpRO38hzMUlYk1lzaKnMLD/8QkpDiCAAE59SIaNnP5UfaMJbdJgyGNjoEpP//WWiicIhmgVllD48FyoMtPaQ5OtVkSGSrBrfzU++nK9KDLH+6QkkDC88pJRmDNzGOJiQlFDRCMNakVNnR5r1u7Cho378een5qGspkloxTHRCqiUUhKyJqxaX4j3P1mJNqcd2ZkJ3e5FfaIRTlbHoP7xmPfTLqzdWkD324acvik+10c6wOQzPDeLLByN2O2Ss6YKCuvQ0GxCbKQCUiUdMrI6hw5A0sXnI3b6WVCmprVbI/wMevPZEqnYGxqgy8uH02iCxegUxeVi6XkFEEAAv09Ipkw7/yne3Uza1kqCRybWQk4EZJGRRC7DIA1VwlFTD4nTBpVCCqVchj9cNRl/f/5aTD5zKAYPysLUybmYPT1X1CIrr2hCi9aC0vImaEJDREZ/dGw00lNjEB0TCYlSKba8DEYrli7PQw2de9zYHGHZ8OJ0x17qoqzISQJnBWdwYlN6JFatyMfmHQfJOnSiT1YilCo5yeru29Y/J1XsJJlfVAednktb829akXDeDCTMmYXwYcPbgy7ouQoyOQ7gtRdTUREMe/ejzeFERIQCV152JqL83K41gAAC+O1BMvu8y5/atqtclD+WEKmo+2ZCojhxIb+sRbfBBcP+QvDO0ueeMwyP/d9lR2ntbG2MHZMtCi42NuugIPIZOSIHD989E/ffeS6uuvRMXHbhWFxy3kgM6JeA2kYjmrUG7NpdDaWiXUhv2lSCbXtKsT+/CnUNWqHlKxUhJ2WNhi0O3lwsLjYUWzaWYP2WAmj1JmFZcQaxP8SSlZmIflkx2LG7FHq9mTdZQOy5M0RSIod8E6O0f/F4weWEYfd+WApLxLPLzozG3NlnHLeNugIIIIBTH5Lrrr/lqcUrDpCQlqCNiEWREAtFfPzxcYF5AGu7zRs3wtbQBIMFeOe1G72WZVByhJpGgm/n7cRtf5yOJ/90MbL7JB9BQPxv3tVxxNA07Murgslkwt595Vi/cT8++XQ9Fq/ei8XLd9PfeWJto65Bh5ioULEQfqKtFyYzJpaoKBV2767EBiKWukYDsrPihbbvT3uSkmIQ1ObAqo2FvDc0gogfNTk5x806OQReT9Fpod29F/bGZpERPSI3HWdNyf3V9YkCCCCA0xeS++574Kn/fr0RYWoZ2ngXOY2GrBXed/nEkEqwVIrGZSvgMplhMLfhmccucX/iGRzlZCT2eexPl0HuowprRLgG0ZFKzFuyR1gkFXVkBWSFi5pCvEVnPQnvguIG7NlbioIDtchIi0ZcXLhwTZ1ICBLMjKX2KnFgXzU2by9CaXEjsrKikRAf5ZfFwvvF//vTtZwSBNhtiBo/rvcW472B+slaUQnttp1oczhgtbfi7KlDcMaoHFE761QCEx6XoOCDK/adRM/nCQXfL5dRMtm5Xl8r9UN7X8ioA/wYVr0GrrRroDYYbK302gojHVZne/VbUZTU/b0AfhsIKi2raes7/GFkpWqEIFJmZiDxwvMgi4w6IdYKh7SWvPEWLDX1aNC2oib/dfcnnsEVdNnVwzs7dgez2YqhYx5GYqIal1w0CYP6J4utWY1mG4pKGoX1smVbEfQ6G3JzM/Cvf9wkSs2fDBiNFvz0yza8+tovqKlrRv++KXjiibmYOH6I+xvewYUBh01+EpoQFxSxkejzwH1otR/nfU2cTjSt20AKwUoR2VfXYsWrz1+Ni+ee4VfAwfFCi4UUCKMT5QYnqkytMJFAY6HWARamXNsoTBqETLJ6+0WGIJFe29ekfj1YWFbQtSsNDjRaW9HCAp2kZ4fdKKfLRIUEI1oRjAS1BMlqKSKUkh5VR/AGvs2DLXZx/TKjC9oOIiH9ggU4l+DhyyhI+YiXByMrTIascCkSNL3v/q2lZ7C/2YFSaksTkwi1gcundzwK3kuIizor6dIJcgn6R0qpLTJEUl8EcHojqLlF13bOnCfRojO3FxIjSyB2+lREjj3j+Gu7BBZI1T98j+Ytu2GyAr9884DHbTqPFa+/+QPGjx+EQQPSjihuyXs7cOmST79cgR8XbBNRY08/egGuvnwaCcXen2T+gElw4aIdeObZ76E3mxCTGIm/PDQbc2aPc3/DM7ZsO4Brb3sfEjgRmTsAyZdddnyfHY0Te30dan5cAEtFtbDuWgx2/PfdOzB5wkC/rKveBAuqUr0DS8otKNS7oCchZiPhbqGD/u8R7QKNyIUEWr8wCaanKZEdITsm4c6X0BKBrKq0YFuTAy30b4ujDXZqmJ0EKQv0jmbw+dlS4GKdUvojlAgmURWMkTEhGB4nRzgJ+56Cr7G6woIVdXbo6Np87wY3oXiDnNoQHhIEFV2/X7gE56arkBr268d9XrMd3xdb0EDtMJJlou+mHQw59YNaFoRoIpQRUVJMTVEilgg3gNMTkscee+ypmtoGbN9VITbqauOsa5kMqvQUUa7jeIMFUDBptrr1WyFTylBU2oDZs8cIgusK1uYlUokozewvBhKZZGYkHLUYz9n5EREaDBiYjnWbilFL1kFhUTUuu2iC1w2VegK9wYSS0lpqb7BYC/IHYo0lMx4ZmdFY9Ms+2FwWrNp4EGp5G4YNZZfk0dDrTXj4ya/Q0tyCYIsdMdMnQxGfcHytTCIsY0EhtBu3IZiUAt7VbnBOAi6YcwZiY8LdXzoxaDS78EmeEd8UWXBQ50KThQR6JzJhA8TTwR/biXeZgKpMLmyqt8NG/x4YHSKsGX/B51lHZPLKLiO2NzrQQO1hVw+7mZhMGHy+jusymATpUmILCS0J3hq6/h7S6jfW2iCh55ZMloO/lhNbJi/vNGJltQ31dB4TndNGF+BLd1zT08Fy3kIN5OuXklWzi9rO21mkhUoF6fUUejrPxwcM+IYIpVTnFH/70w4+uD/4mTEZs1Kwm4hZQR+kUD/w5wGcXpA8/vjjT1ltLnz2/RaEq2RiBrhIS5YnxEMRF3d8hRODzh8SEwNzWTHsOgPq67XYvacIo0b0OaLw5IG8MvzhD//AkMHpSEiIFGTkD7rz76vJetG2NKGgoAp5B1vIUhmPqMhfn2excs0ePPzw51i/8QCGDcsQG5n5A44Ky8pMwNChSfj0o03QhAdj/eYSGA06DB2SKXJ4OrBj10Hccv9HKDxYKdwa8tgIJF144XG3UlwmIxpWrYVdq6VJHyQ2E5s6aSCmTh4idrs7EeBRWaZ34s+b9DjQ4hDaOgsnHhZ+Do1D3+Vz8e93tzixi8iFrRZ/8fk+Az46aBbWQcdU6en1GVw9msloGwl3Pc3HwURu3RHLxmor3t5nFKTE1+58Pn/R8X0mo91EbA1mJ7JCZVCTBeMvqgxOvLbLgK1MzNSPx9oOPvgZ6ohxtzQQydFN9Q2X9ZprMoATg2B2XQzsnw6Ve9c6Fta8OZdxfx6cel3PR8cxoM3pQuqNN4qNjFytrVixJg9jpz+FG299FU888xHOv+xZTL/oRazfVQN1qH/htj1Bv+wkqDQKSOXBojZZb2DiuIHIHdcXi9fn47Z7/4XSsjr3J92DiWXa1GGYN/8eFJcZud4z3v5gFQaMegRX3/Ai7rz3DQw782HMuOQVVJRVg74u+i7j7ruPv8uSJrq5pBymvfmHNp4yGhzI7pMmgiNOFAq1Dty5qhkmEsC9sR7BkNF5ComoHlnTLIimO3yXb8SnpJn33GHlGTys+Vzzy634Ms/Q/qYXFDTb8VmhGY1kmfUa6KZXVNnwzl4DKqkf/EE1Ecpbe43IJ2LvTXBO2RcFJvxUSoTdYfIFcFpAzIfwUDkuP384zLzFJkMmg37PfpiKSkh16MVB6wPs1sp+9EFoUuKhJusiTC3B+i0l+OLbLWIv8Rhqo0Imoeb0/gATSZGuVjGpTUar2PrTbLaJXdqOFWq1Es/+6QLMmT4CeQXNuPrGV7Env4ra7/85x44ZhL8+fi50JofYYjQ6XIoduyvFlqwuqx3xUUqEUL9p0lOQ/ch9RIrHf4HcZTSQlbIKULW79NhlMmxIPAbmxJ+wfB92WT26XgsVsUlv6zysFOeRQH1rp+6IBf6u4LWDz4hQQnk3zF6Gmu7rm1IrynWeBXsLEcnXdO1qo6vX3UMhdMJtjXYsKrdAZ/M9Vnkd6fNCE/KIUHqL2DuDXWBfFpixrd4mLJgATg8I9xevL1hI4/v+l53QKKTtE5UEKpdQUaYkt1cuPt4gwc7hxRG5QxEcphLhzVJqCO9TLVGEkAbO++Q7cO7Zg8V2n71prezaXYT1mwqIQF0oK63B9p0F2J9fDovVRYJSItZY/K3N1Rm8ljJmVAYO7K5GQXEd5v20AUMHpyE5Mdrv0OW0tHi89M9FiAwPEWtdirAwyOi8MqUSSiKT2GlnIu7s6e374BxvBYCeUeOatTDuOgCJm0DMViemTcnFuTNGnBDXF/ven9qghc7e7mbxBRZEHLKqkgYjiLqbF6fZzUS34fO3PO5qSGCmcXRW6NFEya6yN3YbxBqAN7AMVNC1lbJgqMgEYneSmv7Nrhz+jNvmqx3cBg4DHpt4ZJ+ynrOswoJ1NaT08Im6Ad9/CBGfgvqACYivydfu7v73ElH0ISWG13f4d13Ba0bLqR3LKmzdWnX8ew3dPwdGiFfuB2oXzyhexPfaFnrfQQ2uIJIfECVDhEISCD8+DXCIVDjRbtOm/dCTps7hfpyUaK9vRDAJClVaKv19gqIx6Dqq1DSEjxiG8FHDETEyF4rkeFiqatBmMUOjlmLC2IHHJOQ9weVy4cuv12PX3jKyVmgA1+ixt6AOm7aW4Ieft+HAvhKRGxMfH3ZMWyPzutDgwQnYvbcKFbUt+OmXrejTJ0HsP+1PKX+2zF57YyEiIkKg6NsHaX+4GmG5gxA9cRz10XDIeVH+BIDHAxcDrf7hp0OEwhaeJFiKC+aMI6uqX7dCvjewgjTonyusPheTWWiqSIBlhMswNlaGcQkhGBMXgj5hUhJq9DtqKJMTC2hvbebPqskiGBsvF9FJncGut/llVvEdb4hRSjA5MQRzM5SYlabEuelKTE9RYFRsCDI0EjHHmskS4HBfb23gsOBLstnd636DwKG6iyqtKDP4tlLCSHgPiZZhSqJcXHdSkgK59HcEvd9KP/RFiAwmCv7OSOq3Dtd4ZxSTFTWvxII66iNv7eBzRMmDxTnmcB+4+2IqtWUEPZd4RTCs9KVG+o+3W+GAHQ5JDqM29IsIrK+cDhCkwv/gMFqjyY7V6/Oh5LrqDIkEtpo6yBPixGL6CQOrU3RwuDHv7yFVqWAuLgUMOhwsrCNtPwXppMH3BgxGCz77fAPsTgcGDEpHdnYK0tJjkRithsNmQ1FpE5FtochUz8qIh1rdc208JiYC/XNisZ2Iq7HRgFVr9yM+LhzZWQndkuOq1buwYOkuaMIUCO/fF5qc/pBwVB6TPFsm3FfHGzSxXSYDqr/5Dk6ThYRI+8TmhMdRwzJx5SVjT0jUFy+Gv7nHKHJBvAliJpRIElZnkyC9YaAGZ5Cm34eEUToRTL8oIpd4BQZGymAlRmCB6Euoc/RSJJEQ/74zVpKGztFansCPI1oZjCv6qkmIqoSlE0aCVSGshSBqmwRZdL6h0SEib2O/1ulRKHObOMfm/EzlIVLjc29rsGEFkSp1gVckEKFd2lclCGlQTAiSyNqIU0mQQm0ZFifH8BgZWojQivTe16NYmFeZXRhOJJigcnsv3OCoteWVFhFx5o3c2YpKIkvvSuqHi6gd6WT1sKXBBMVWG5NuDj2P0UQ4Rvpyic77WiBbTiXU1pHxIaL/vDQ5gFMEh0lF+OODsXlLAcwWm7BceCBxtrStth6a7MwT4wbrCppJ7NoJpsFoLi6DlYTavrwKhGkUSEuLhUx62D3hcDixlywLo8kqSr34U+aklYSLUi3DWZMH4upLJuDC80bjnKmDMHxohiiVojWYUVLZhINFtQhVy5HT9/CmWCUlNcgvKEdKSpz42xcS4qPRJy0Km7YchN5gwdbtxZArQkRCpjdi4XP/+fmv4SJyCyFijZ40EbLw8N7fmsAXaBDwnim1ZKGYD5Yg2N1WFnAyIv1Z54zA2WcN6zXL0RfK9U78WGr1KVQ43+ECEsSzMlUiB6QreExzLkgmCVjO7q42tXp1I3HIsYt+MCpWLmrjdeDbYtLQSeB6Ap9qTIIcs0krZ5eTN7Bbilc0dzc6vJIkNQ8zUxUIpfYyTI5WrCFBziG3nkLuGazJX9lPhbPIIvCm1bNgHxwlI0HtFPfvjVjYfpAHtWEEWWudr8cJjd8VWmCkdnu8BHUCG+F3DgnFWLJKfE1DJswRRFxNZBUVEMF6a4uFujuUzjmYnoUf0zqAk4hDpMLPSa2Sob5ejy3b2eXTLiTY7eHSG0VtrlDSlIPIcjgh2nEXiCKJrS7Yy6vQ0GTA3v2l2LOvBg67mUjQQhZMFb6btxnvvrcc0UQGAwekkKHVvaDjxeWcfsmiQnBoqEpYbLwWEh8XidwhGUiMj0AFkUpxaQMaGrQYkJOM1JRY8dt5C9bh1TeWQKs1iJ0Zu1uoTiXyySQi3LDpABGLldpfAV7o7pcdD0WnXBYLkfripdvw0r8WYX9eldgfJXRwf0SOHtUuFU8ogtCwdBm0m3eIfKIO2EjFz+6ThD9eNwXJSSfGil1TaRVhr97A2vukJBLomWphHfgCC9Y40pYPkmDlCCpP3cqjnAVYNmnZsaTpM3hN5udyC5pJCHb9CVM9E9kUasMA0sK7Ay+E72u0e10fEqSSphAaPqPS6MTKSpsQwN4Ea1aYFNf113TrJmJSS9ZIsLSKFEj3e13BAr6W+mY2WVwdFgkHL+yhNi+hdlAXeoSVvnMxkfoM+p0/4HtPD5XgQHN7X3gCt6WaiPw8Uhi8EWoApwYOkQpDLg+hwdqGvIKK9gx790DizbTsTU2w1jYgbOiQ9kXmE00sRBCKhDhIQ9WwFZfCqDUhv7iWyKUMqzcUCJfSZrIC8osbMGpkFkbkZv7qaCTWvpOTowXB7tlTjNJqLdJSYzB0UJo4N0d4ffPdOqzfehBl5U2YOLZftyVKMjPikZ4ai9Vr9sJstWHPgUrs2FOGupp6VFXVY8WqXXj7Pyvwy+JtKCyugyaoFepB/RA3YzqClTRJT2S/0+RtWrsOzes3CwHaMZe5CVzd+dyZw3HujFEnxEphfFVkQb0XC4ERSUQykyyEvpGyowS+JzAB1JucpHm7vForbBRyxju7ajqQRMJ4DGnvE4g8uh4T6RhI3+VFaV8QeTEknFfX2AV5eQKTyux05SFS4eTOJRVWsc7m6QYd9PbV2Spk0/37Aw4caCYT4KCuPSjGE/TE1BcQQbDrjsG5NKuJ3PP5N16Iiy2c/xsZDnk3fdAZHTXANtbbvbaFS97wGhdn3gdw6uIIUuGIqri4CFTX6bF9VzFkncx3tlisTc0IaqqHcsBAvyZtb4O3KFYkJoiCl0GyINiqa2EmctE2GWGgV87flRABREcpMGJoFsK8VDvuCVhghmoUKKtowP78GsRE0rlzs9oLVkaFYcyYHHz7/XrkF9Zg195qTBib3e26S2pyDORKGX5auo8mK1BV3UTkWIH1m4uwbWcJEVQ9TGSthNjtiJw0FvEzzyEy7YVtnnsAXs/Sbt6MhjUb0Ebk11l+2G0upMUn4OEH5iA6mtp1gvA/IhWj42gLgcFWSk6EVCxIR3RjpXSAZRcHG+xpdorkv66yjP/m6CQuGTIqrt2S5PfiSahxtjdHRnU++L0Esmh8EQo/wTqjC4vKzPih1CrKuXS9bge6kkqh3oHVZFl4i++gr+Pe3LAjXHW+wGtj3NZlRBLe1kaYqCYmHhbkHEb8C7Vb76XdPETHx4dgag8SSBkd63RsiXnrD34WKcpgDIj+9RUvAjh+OGp4qpRyzJmRi/4D0mDsyFtxg5PdmvYdRM0PP7jfOQlgiyU1GfGzZqLfg3ch7frLkXL5HKRedSHChw6Cgiyteb/sxfyF28Q++J5gNFl6lOQYGxuOpOQEsd9VZUU9dERgHRgyMBUfv3c3LFYHNm7Yj3vu/ljUFPMFdrGNH9MfYTRR2ZTnDdIsdE5Dow6WFiOkTgfC+/dB+u03In7G2ZCoNSecUPR796B59XpQJx5BKLy9c1iEEldcOQqpqd2vJfUWWLPnrae9yBvRPXEk/HmRvCfIjgwRaxbeepftIqOzVSxO9wRMUiU6B3bU2rCw2IR/79bhqY1a/GFZEx7a0CLKmfCajjcB2hW8qM+lT1q9tJSNlzSyqJScwekn+LnGKoIRR4ev4cUZ/h3g4phlZN154SBYqCG5Mf5ZSp3BpwslyykjVOK1LRyizetJAZza8DgDhwzOxAUzhiImXCGESAd4AgTR3y0796P6hx9peLeHHp8MBEllYvfIsCFDEDl6DMJHjETUmeOgSktBGCmVTz//A55/8SsYDGb3L9pRQwL/gQffw0MPfYjGJp37Xd8Q+7iolIJU9Hqr2Bu+AzwZeHvfj96+DY16G7bsLsB9935C1obvDHruN4PFiVanC6qsTKTdfA0y77gR2Q/dif7PPY7Uq68S7/N9nmhCMRzYj4ZflsKh09MzP1J6cFMy0uJx1RVT/QqE6C1wD3TXDRxGLPcjTLsz+Dc+1tMFWKZ2l9XNn++st+FfO3W4YWkjrlzciHvWtuCJrTq8ud+ERZV27Gt2wEJEYueFeffv/AVbYt0RWxpZSj0Fu53Y8vIFJqwOuOhJmLgxXsDfTQ3rOakw2CBLJEuPo+48gfvsgMF3HwRw8uFxOrEgufzSyRiQkw0rmbudJzPLGCkNLMPOfWj8/ju4uMS6v+rWcQBHQonD5YIiOQXR086EPCYK8bFyfPH9ZiQPvBf3PPAm3nr3RzzxzH8xfe4z+HlVHuwkELVao/ssvmG12mG0WHkrDoSFKaHosm7Ca0xnjh+ID/55I2ymVmzeUYDH//INiktq2v3fXcAL+x99vBCh7PuSSCFLTISmX3+oMrMgT0wCZCfJvKd+1G7fjtrvF8ChJULpojBwUAHa5Hjhqcvb19VOMbALpzuC8AQNaci+kmk57NjOK/RdwDzD2f3vkRVy5cJG/HmTDgsrbTDa20DKP5TUHiUJbc78Z/79NdOEF8itHtrQAbYgWMvvKbjP4snC8SbIO4PlAEeqdQfOkTkW8BoNbwngDdyHui7ekwBOPXh9gpwd/fB9M5DRN1Fkz3ZGx+Ro3LUfNf/7Do6mxvY3TjKYWEL7D0DCJedDkUoWS4QamUlqLF6eh7//cyE+/99mYWlFhIagqUmLopI6L86EI1HfoEVlZY3IAk5Pj0Okhz3YeeH+7Om5ePIvF0Aul2Pl2n145vnvsHN3kbCItFwsk86Tf7AGz7zwBf7z1WYoafKp01MRPWb4IWIUtbu6U8mPA1oddjRv2YranxbBQQTKwRmdwU1iF8yjD56NPlnJ7nd/GwiTtkES1LM+5+TJ1ZUWYZHML7cJMtOQ1cMuGn/Joyccw1PwZNfAYkrrqRswgN8ffKoUAwdk4M7rJyMyQnWEG4zBE4f0Oxj25aF23kJYKiqEpnuywUKZ971Pu/YKJMyeDlV6OsKTExGfmYyo5ASoEhMgVSlRWNqEn5fvQ1Oz78J9bKVs3JKPLVsPQkICIyUlAeHhngMAeIH+kkvG4vo/TIA6IgQrNh3A3Y/8B089/yle+ef3+PMTH2HKnGcxf/FuJEcqoEhJRsxZZyIkJvakEIkAPUinToumFWtQ/8sStNk950AYLA7MOmswrrpiuvud3w5cZIL66n7WkDtvt8CL64tKzSIRk+t0sTXiC0wIzAd8sDbOWebpYVKRnxFJioW/j57bcTzAp/Xn3PyVHnoXA/gdotshcv6c8bjiwnHCr9x18AtikUphLixC3fyfodu9G602W/sHJxPU0CC5AuHDRiLtj9ch9aZrkXLNpUj5w5VIu5HLnAwmQQBs3rgXX3y5Eg1kSXia11abHSvW7MHHX66BzmCDSi7B/rxK/LR4u8iT4R0XO/cJl3wxmx3QqOQIU4cgTCWFttGIJUv346v/bcK69QcRp5EgNDEGoUOHIGHuTOHyEtbJiYb7GXHplToik6aVa0hosJvm6Gdn0DsweGAmnn3iGvc7vy1oiSR8qUMyGitcP6sDa6utYqHdF5cwkXCcGoc5ZxCBcO2qMxJDMCtVjuty1HgoNxQX9lEh1M+Fdb6Wr2RK/txXAUxv4PHLc1vmx5zlr3gq2dIVFh9uOl/wxxo7HgU8A+hdHBFS7A1DB2egqk6PrRuLoVIfvRjIrhKn0QRzeQUcVisUURGQcva9vyrYcQNdnwkmRC5yPIIVSgRJQyClfzuqa6Cvb0ZBcY2o98XxP5xuwcRgNFpRUFiBH+ZtxmffrCUiqRGlJThvp6SsAWs25KGwsBr7DtZhb14VSoqrsWtPKZasPoD5C7dg2YpdMOgskEdFQpPTF+rkeKgTYqFOSSISyUDk2BGInjihPUz4JFh3vBjfZrfBtH07GpavJKWgVOz46Umu6I0ODMxOwZuvXY84P7ZwPl5gWbOw3CrcTp7AAqlvpFRkinsiRm/g83LuB2/u5eln/HQyiRTGJciFlcF5HR/mmbzWzuIhzyG9XNplVFyICHGemkJHskLs05IbKxc7LHJhRU5i3FbvO/mxI6SY748z4Hc1OTzmcbB1mawOxqiEnpUR4jWhhaUWryHC7O3iZE4uN8Mf814nyyuODDHvDG7zaLLAuCRMT8Hh4hwyzQmXngib+6BPqATTqU8COHURZLFY6FF1D15cfvqZ/+Gb7zYhJsHzQ+1wkakzMhAxZhhCBw5qV29OOrl0ARGHqagIjctWw1hVLfzE2RkxSE2NFVWRXU4XmhtbsO9AlSAZVZiGLIv2e7EWFsJa3yQWLIWAo/e4LD/nO3D0FyuTaiInRUwUoiZPQNgQ+h2hzeVEsIwEN1ckEG+chD6htop8o6pKtGzYCvO+fXDYHYJkPEFLVteA7EQ8/eeLMXpkDv3ciyQ5AWAN9t41LUKoewLnMExJDiErQNOjfc75fC9s14vdCj0JSn7E01LkuGNImPj8lxIzviw0eyU3LjtyRrwMM9NVYhdFUY7FC7h8/ju7jaLGlqeu5TIo/5oUKQpjMvktrbDgX3sMotpyV7DAzQyT4aWJPSN+ztJ/aG2L+L0nmOjCT44Mwxh3tWTe//6vW3Ro9FIWn0nlonSyxgb3PH+pnM795CatCMf2BA4mmEXP4rbcE7u7aAA9g98e0oiIUPz5zxfi4gtGoaHG4n73SLCGyIeZBHbNwmWo+X6e8Ndz0uIpBRKi6j59EDfnXESNHYmIMCWqy+qxdtVe/LxwGxYt3Ym9u0ohaWtFeN8sxM+egdhpk8WRcMFcxM86B9HDByE2KRIR0jbYDWZRaJELGcakxyN68njEXzAH4blDhHXEh0QderjEzUkgFGGd8GL8hg2onfczdDt2wuEk7dwLoRitTvTrE4dH7puD4bnZJ5VQ/AHL7gpDqyjl0RNwaRADCUhvmjevl3AuR8fnB3QOn9YSr5Vc1Ect9rv3RSgMJkKO2vIHfKpwsm40Xlxg3D7OH+kaVOML/FXetdFXiHBXcH+kaCSi7Z5ATcSyGrv7L//BbeF6ao1eLEAGe9Vy/KwWEMDJg1/urw5wRNiQIWkwGUzYuLEU6lDPD5i1YV5bcdQ3wHSwmP5tFSVWuOLwKWO1UBtlYaFQpSRD0zcbyqR4KOMioY6PQnhmKiKGDETkGaMQdcZoKFNTESSTCXKURkRAkZRI1lgaQgf0R9jgIQgdPhThI4cjctQIhI/IRWhOP8hjY70K7BMKJgM62DKr/3kJ9Lv2wKHViWfkjSeYUPoSoTx891xMHD+w29IzJwIse325v/he2DWTqpGK+lcdJYZ8gYXUgjIL8ls8h6myoOPik5NJS2eXFVu0y6psolSMp77jRezhMSGYnKz02redwYUZl1VYvRIaa/2XEEGxq4zB1nGh1ikEr6ffWIlPszTBfueJWKlTv8w3+yxf39n9xWClkft5e4NduAM9gcupDI+WicrI/sJM9/ZDoQlVJh9tof64Y2hYtyVwAji58NtS6UByUjTuv38ubrz+TNRXe7ZYGB1+bVtjI+qXr0X5R5/BWFBwSMidKpCo1FCkpSJyzGjEn3M2ks6bjcQZZyN6wjhBGkwiR7SXSZHIQhIahpD4BCizMhDatw802VlQZqYjJJbIk0vTn2xQm5k4HC3NqP1xPqq++h7GomK0Edn7sjp0Zgf69InH/917PiZNGHTEnvinOvjRLCUhzVsC+4MN1Vbsa/SdoR1BVkpmeLtA5QVoX5YAa/G8R4g/w5vJkTef4k2ovILO07nScqxSgowwideseq5Ow6Vf/EVekx1bGu0e1y+8get5pRBpyX0EDWjohG/s9S8HjMF3U0wW4No6723hbhpKVkoo74cTwCmNHpMKC6SkxCg8cP8c3HHH2ahvsPo0Pvj7wa1O2KprUPXfL1H56RewN9S3a/H+zL4TBWqPWNDnxXwmBXbZkVD2eXPis06f89++vn+C0O7qcqBxxUqUvvlv6Lfv4tjodg3QR5/zonz/Pkl49tFLcOaEwaeEhdIT8K2VG5349IARNfTqC/tJoPImU/U+3C3cU/HKYCS4g1O6e7xsWei8+YW6oM7kElZKiI/nwcK5c9kVrrycShaDt0gtfrfK6MJX3exvz2gka+u57foeEQqDv56plmBigozu13NncPN4reqlbf5VrOBaaH/bxsEy3sHlX+ZmBSoUnw7okfurA0wUvAviiOGZUJGJu2FroRhIPqNu2r8gdpNs2rAF9pYmqJISEKwMRHL0GriPnS7otm5G3SefQ5dXKKSAsEx8PBoOMjAanBjSNx3/fPVaDBmUdUJLsPiD7txfHWChw+sqm2ttSCBCiKHxyaHS/Cs++Pcba6z48IBJ7KzoTeFm8mC30wWZ7PpqJ1duw0bSphtIYHoa6swnGrJUxsS1R4p5Arehidr3xi4DiqjPvRVyZHl9Xqocw+LdgR0E/iYnWNZYWgV5ePop70bJG3/pqY0Z1G6ORONrdhwuurGNVVY8sF4rCM3TfXRGV/cXg8OKOQx5e73vtZMaIk7eIXIAWRidy+ccbguwqdqCBzdoBaF4aws/iySy0q7op+lRbbMATg78jv7yBh4Y389bj7fe/QV19QYxiLsbqIw2hxO873z4mFxEjBsPRUy0WLdo//BXNen3A+5okYnvgMtohnb3bjQvX4NWu5OsLt6tr/sHwbkNwUHBmDhhAJ59/DJER52akTXdRX91BQ8h1m5VMgmGhAeLfBFec+C913kbXwVL5G66h3dNfHL0kf3xt+06bK21exToDDUJfQ4DPpsOLhfP3+O2sNuMBTEHBny034g6spA4+94beE+SNydGIc3teuuMH4vN+Oqg2WdeChMclxVKIVLN1EhIqAMGYojtTQ6xfsHt9Addo786wJbO5wVGrKr27T7jdSvmk4ERUgyKlCKKyIGbzZbaijoH6s1OUcbGF9j2uz83FGe4w7oDOLXxq0mlA5u3HsDL/1yEffnlpHW0+rVQymByabU5oB4+EFHDhkGeGA+JWoXgEBrELBQDBHMkOojC6YTLYha7cuoK8mHYvJPIxOE3mXC3Wi1ORCVE4OoLx+DWW8/zqjWfCugpqXTA0/Dxo3uEq+lPw8OO2pvk63wj5pVZRdVkb+BrcsLj2PgQsdDPC+wVBgd2NzlRScKYCc1XG9gYGxEjw+NjPIcH8+ZeH1M7eBdIofL7QNf79+feO8MbqTB2Ndjw8QGzcDl2d14mua7rRxwa3Q2fCKV1eoocV+VoRF8GcOqj10iFUVnVgNffX4b16/agtsEAjXv3SH/AxQqDbHaEJMVC0z+nvbhibBSkGg1ZMO4Ci54kxO8BHTOWrBKXyQh7Uwus1dUwHCyEpagMLrL4JKSR+ysvuDhiiDQY6fHJeOT/zsGE8UPdn5y68IdUuHQ6+/m7y8ruDtzdF2UqcTkJsq6o1Dvx0k49qo2eXWAdYA29qxDtjkwYrMUnqCV4bGQ4EsnC8IaDZHH9N8+EfC0pEu73jgUs1LnftLwg5AG+SIW7eUm5BV8XmkVYdnf31lNw9w2MkuGPAzVII5IO4PTAMa2peANvijV10mDERCrRrLehpLxBDDR/rBZejwmSSUn7tsJaXAZjXgGs9fVwtmjRauUoszZIQuSHc156ewSfauD+cIcku4wGWKtqYDiQB92OXWjesAnG3fvhaGkPDZZIuApb9xBrJ3oH0jNiMPfcUXjmyUuRk5Pu/vTUBgswn2sq1F9nuC2DWrIGjhUs1GelK3BlTqhHFxdbMBZSu/O1ZGF7aQqDf8uWX+ejuyHL98jb6v6hvxpZEVwZwP2BB/CmWVHyIDRYWkWIsT/P3xPGJ4Qgmu6Jd7/0dD1Payod4O9zCDevS/HvbfRsemNaMpnwebi0zRX9qC/CZb1y3gBODHqVVBg80PrnpGL0sAwiAQUMWh3KK/WQ08D1xy3D3xHRSzRjHc3NMJeUwlRWAWtNLQnWWjgNOhp1pJkr5AgOYQuGzsnnPd0HnbgH6iMiCC6h4tTrRJFO3dad0O/dB+3uPTDs2gNbbR1aHU4Ec7SaH4KKwZPUZHeKmmRTJw7BTTdMw1WXT4JGffoESXRLKoSxCXJMSJSjxtQqhK0/fdMBds/wOgPvgX41EYqPiFmxAM5rJEwsorjxrxx7fG9cUmt4bAguy1aJtRx/1g44Ko0TEe1kqbJQ503M/IqOouvZ6bsz05WYk6ES1k4RWWCerumLVBj8Gy5jw0UytWStNLgJrid93xlM1LwWNT4xBJf0VaNvN+QawKmHXnV/dYWDBvumTfvxy+I9WLR8Oxq1FoQre651cPkXLlnPoS1BGhXkERGibpY0OgLKlETIY2LEIUKBGfxdfjkFqiZ7A1sYAvTaZrcLEuGcHieRp7maLDSzGXaDHo66xnaioe/5jK7zAn4GTmcrcnMzccHskZg+OVfsZOkPwZ9K8Mf9dVlfFS7JViOvxYElZWasqbGLBW+5+1673jIPE+YoFlpcp2scae0TkhTCqugORnsrVtfY8HOxGeVkGfHTDPFT+vF1eYSyYOcM+YGRUuQSoYyKlSNeLemxEG2g62+qt2N9tVUEInBbPIUdM0Fwjksfsi6mpSkwJVkBJ/XrW7sNYgHf09q9L/dXVxTQtbc32LCt1o58Ayk+9B63w9dQc09V2OgfvGA/ivqB+2IYEWtsD5InAzh1cFxJhcEul5YWAzZvL8KChVuwfNV+2B0uqOWkafsabV7A52uflXRIpQhWqyDj/BKlErKocMiTEiCPixUkIw0l4cm5Fp2qAIubPVFkIyZUp3t0u7OcLc2wt2hhb26CpaoGtrpmwGKGgyyUNpP5cKVn8Vv/rJGu4DUqrcmOzPRYXHfZBJHIyHvBnE7JjJ3RE1JhcNhumcmF/Y027CGBWWLkWm2HfysjkuYclIGREgwlYZ4TLhPbEfdEoLOFcZC1fJ0DO0mos+XS4mVtogN8/mSlBNnhUlHSJYNeE+hvFqDdlXXxBW4Ll1yppHsubLGjRMclT1zQudN1YkPIooiQYEBUiHBZccFLvhxHYT23WSuKOHoaZ0wqfz0jXPSRP+CqAzVmaofRhYJmO722opja5W3NhpNF+1Lfp4by3vNyJFE/8JbQgSiv0xfHnVQ64OQijUQuu/eW4ZMvV2LV+oMIIZtfyQvMv2L8MMlwJD5zDIJJaJPQlJDwDpZwFFQwZAlkxSSSMI2JgiwiElKVChK1WmTSd6zP9MrGWHQTHWsgYsMtqwUOgwEusjgcOh3sTc3CnWctqxGJiW2tLrjolQtWBnVc/1eQSAc4D0FntCM8QoN7bzkLkybmIiUxAipV95rmqYyekkoHTI5WGGxtQjiyls7uFRbAbFXISZXmRWrOWu+URtFjcCQY7x/PBSB5P3uTvU24x3hTsw4o6TpqEuwcRswL9uxq4/fY1dOb4pOHEd8zhw237+vf/j4n5qvJKuJq251de1zE8T7qV09WCoP77YOp0cKC6gm4n9ma48g3rm/GQQscvNC5PcwbbEVyXyhk9Mo+wABOe5wwUukARyoZjRbs2luMD/67FAtXH0Q4aSfKkN6J7uCbEa4yN9po0LYGScSrTLxPI5lHPJGZNDIU0jA6wjWQhYYR0SjaS6zQV6Tq0PYTeIHLahZk1Gq3i+ACQR7NWrgMRrJEDGi1cGIYXYfOxcTnohnE5fWDulpJv4ZBOsFJ523W2RERJsdDd8/EeeeOQ3ioCnL56WmZdMWxkoonuEfBcQGfm4dZ+yv/tx1ssbIQPV7XPRZwnsviMjPe3mfyutEYk8rXM2JJ4PdOyzt65FTqhwB6FyecVDqDJ11efjn++9kSvPHqOsT3UUGj7Nl+GL8GPOdZs++Y/IJrnP7VjeoMh5TdJu0WBi+Unqj1Cm631e5CbaMNuQOi8fgjF2P6tJGiHafbmkl36E1SOV3BWj8nHfraT57XMDwlTHqCniyqm1e2oNXpOTyap8XgSCn+NCZClPQPIAB/cFJJpTNatAb8OH8d3v5gJWpbrAiTBwk3EpcLOVEkc6qDJzlRoND2nK1BRChBmHNOf1x35SQMG9oXUt5l7DeKAKm0Jz3+O8+IH0otCGOzxwM0ZFFcS/0wM1PlM+CACerd3XosqbZ5zWhnt9XdgzWYnq7qNkkxgAA6cMqQSgfsdge27yjAt/O3YOX6YjIl7LDZ7HCQNsX5Lu2WgPvLvwNw5BsvujOTKJUhkEhCkJ4ai4vn5pJVMgLR0b+PDYsCpNKOFVVWfLDfBKvDe8g0l0q6JFOBM1OUIm+nM7nwOgvvcvlDsRE/lXsnFFZgOEDx9UlRiA9EYQXQA5xypNIZzS16bNt+ED8t24v9hXVwmM0w6kzQ6a2QSIlgaEJIOLfjN0QyHSTiIE1SLgtGZKQaKrUaEWFhOGdqNiZOHIKszOQjFlt/DwiQSjs4qu2jfCPW1/guE8+LFry18vjE9jBlXhIhQwe1Jhd+KjGj1Ojyuo7CsFB/X5jRXlWgt9ZTAvh94JQmlc5g99iBvDIimRJs310Ns80CbYsW9XUG6Aw2SGngS5lkJMHCmjkdIBbw6eBcAYe9VUTDxcVqEBUVDnVoKFITwzB+dBYGDc5EalqCX/kTv1V0RyrcNVf2U+P8LJX7nd8uVlRa8Fm+WbjDfA11jrTixXiubMwbW/Fe+FzGhiPffA0lNozZOnlgeGh7Nrv7/QAC8AenDal0htliQ319C0pKa3GgoAYl5TroDToiGQPq6ppRXWMQpTRCiGjYZcZ1rnhtRvzvJMwQtj6EBcLkQYfN2Ypgko0xUQqkpUQhgkgkVKNBQlw4+veLQ5/MeGSkxyMsLPR35erzBV+kwkIwkbTx6/urMapTqfjfKgykgPzvoAmLK23trlE/wNaLP2OJT8cEdE2OSuxgySHPAQTQE5yWpNIZ3HirzYHmJh2amvSoqmkhUtGjvpksGJ0eWq0eLfTv+gYdamrZqnGCg/KDyarhZDPOT+iI2OJJJ+qUueeRCANt/+ch8PWYIMS/+YWODtJopRnJk5KjhjlPwUXExi6s+BgVEuPDERGpQWxsJFShGsREhCM+VkmkEonYmHCyTsIQGqoiayvgv/YEb6TC/c2+/3NSFLicLJXOOyX+llFN4/gLIpZNdT3fD94bRF/S2D83TYEL+qjFrpcBBNBTnPak4g1Wqx1GkwUmOgwGC1kyFrTorPS3A1q9kT4zw0yfcRCAyWiBxWqDwWiFw+Gk3zpgsdhhp3+zddEZTDoymQRyuRQqhRyyEAkUihCo1XLI6e+wUDU0ahVUGiVUKpWotxURJkNEuErs8R8RoYaSvqfSBCJqegImletWNMNodaGDdjnrOkMjwcREOcYlKnxW9f0topKI5Ydik9jThJUbfywRb2BCYSWLy8zPzVIhRhlQbgI4NvxmScUbeB3DbncK8nDyniSuVvq3C06XS7y2kpnhpPf4/VYSZB1WSQfYemFiYUuHrQp2q3EorzjI7GHCkUql9CqFlA5/KwgH4Bss9A5oHWINqqM/uWdDyepkAaj6nS4ms+W2qc6Gj/NMIqPfn/L6XcF6E29idn6GApPcEWMBBHCs+N2RSgAB/NbAYcIttlasr7Li5zILqt377vNyCCdDEs8cAdaTeNLzzpi8iH9BuhKTU5Wi5lYgyTGAXwfg/wE/vy20WkvcYgAAAABJRU5ErkJggg==;" vertex="1" parent="1">
          <mxGeometry x="1558.2399999999998" y="500" width="198.53" height="50" as="geometry" />
        </mxCell>
        <mxCell id="ezgKTgP5tMkvbKeKi-sx-46" style="edgeStyle=orthogonalEdgeStyle;rounded=0;orthogonalLoop=1;jettySize=auto;html=1;entryX=1.001;entryY=0.855;entryDx=0;entryDy=0;entryPerimeter=0;strokeWidth=2;" edge="1" parent="1" source="ezgKTgP5tMkvbKeKi-sx-35" target="ezgKTgP5tMkvbKeKi-sx-1">
          <mxGeometry relative="1" as="geometry">
            <Array as="points">
              <mxPoint x="1300" y="549" />
              <mxPoint x="1300" y="549" />
            </Array>
          </mxGeometry>
        </mxCell>
        <mxCell id="ezgKTgP5tMkvbKeKi-sx-51" value="&lt;font style=&quot;font-size: 16px;&quot;&gt;Application Pod&lt;/font&gt;" style="text;html=1;align=center;verticalAlign=middle;whiteSpace=wrap;rounded=0;fontFamily=Open Sans;fontSource=https%3A%2F%2Ffonts.googleapis.com%2Fcss%3Ffamily%3DOpen%2BSans;fontStyle=0" vertex="1" parent="1">
          <mxGeometry x="825" y="920" width="150" height="30" as="geometry" />
        </mxCell>
        <mxCell id="ezgKTgP5tMkvbKeKi-sx-103" style="edgeStyle=orthogonalEdgeStyle;rounded=0;orthogonalLoop=1;jettySize=auto;html=1;entryX=0;entryY=0.5;entryDx=0;entryDy=0;strokeWidth=2;" edge="1" parent="1" source="ezgKTgP5tMkvbKeKi-sx-53" target="ezgKTgP5tMkvbKeKi-sx-71">
          <mxGeometry relative="1" as="geometry" />
        </mxCell>
        <mxCell id="ezgKTgP5tMkvbKeKi-sx-53" value="&lt;font data-font-src=&quot;https://fonts.googleapis.com/css?family=Open+Sans&quot; face=&quot;Open Sans&quot;&gt;User Interface&lt;/font&gt;" style="rounded=1;whiteSpace=wrap;html=1;arcSize=5;fillColor=#dae8fc;strokeWidth=1;strokeColor=#6c8ebf;" vertex="1" parent="1">
          <mxGeometry x="330" y="910" width="136.5" height="670" as="geometry" />
        </mxCell>
        <mxCell id="ezgKTgP5tMkvbKeKi-sx-54" value="" style="rounded=1;whiteSpace=wrap;html=1;arcSize=5;fillColor=#fff2cc;strokeWidth=1;strokeColor=#d6b656;" vertex="1" parent="1">
          <mxGeometry x="630" y="1130" width="440" height="380" as="geometry" />
        </mxCell>
        <mxCell id="ezgKTgP5tMkvbKeKi-sx-55" value="" style="rounded=1;whiteSpace=wrap;html=1;arcSize=5;fillColor=#e1d5e7;strokeWidth=1;strokeColor=#9673a6;" vertex="1" parent="1">
          <mxGeometry x="695" y="1150" width="320" height="50" as="geometry" />
        </mxCell>
        <mxCell id="ezgKTgP5tMkvbKeKi-sx-56" value="" style="rounded=1;whiteSpace=wrap;html=1;arcSize=5;fillColor=#e1d5e7;strokeWidth=1;strokeColor=#9673a6;" vertex="1" parent="1">
          <mxGeometry x="689" y="1156" width="320" height="50" as="geometry" />
        </mxCell>
        <mxCell id="ezgKTgP5tMkvbKeKi-sx-57" value="&lt;b&gt;Cliente&lt;/b&gt;" style="text;html=1;align=center;verticalAlign=middle;whiteSpace=wrap;rounded=0;fontFamily=Open Sans;fontSource=https%3A%2F%2Ffonts.googleapis.com%2Fcss%3Ffamily%3DOpen%2BSans;fontStyle=0" vertex="1" parent="1">
          <mxGeometry x="795" y="1166" width="110" height="30" as="geometry" />
        </mxCell>
        <mxCell id="ezgKTgP5tMkvbKeKi-sx-58" value="" style="rounded=1;whiteSpace=wrap;html=1;arcSize=5;fillColor=#e1d5e7;strokeWidth=1;strokeColor=#9673a6;" vertex="1" parent="1">
          <mxGeometry x="695" y="1220" width="320" height="50" as="geometry" />
        </mxCell>
        <mxCell id="ezgKTgP5tMkvbKeKi-sx-59" value="" style="rounded=1;whiteSpace=wrap;html=1;arcSize=5;fillColor=#e1d5e7;strokeWidth=1;strokeColor=#9673a6;" vertex="1" parent="1">
          <mxGeometry x="689" y="1226" width="320" height="50" as="geometry" />
        </mxCell>
        <mxCell id="ezgKTgP5tMkvbKeKi-sx-60" value="&lt;b&gt;Produto&lt;/b&gt;" style="text;html=1;align=center;verticalAlign=middle;whiteSpace=wrap;rounded=0;fontFamily=Open Sans;fontSource=https%3A%2F%2Ffonts.googleapis.com%2Fcss%3Ffamily%3DOpen%2BSans;fontStyle=0" vertex="1" parent="1">
          <mxGeometry x="795" y="1236" width="110" height="30" as="geometry" />
        </mxCell>
        <mxCell id="ezgKTgP5tMkvbKeKi-sx-61" value="" style="rounded=1;whiteSpace=wrap;html=1;arcSize=5;fillColor=#e1d5e7;strokeWidth=1;strokeColor=#9673a6;" vertex="1" parent="1">
          <mxGeometry x="695" y="1292" width="320" height="50" as="geometry" />
        </mxCell>
        <mxCell id="ezgKTgP5tMkvbKeKi-sx-62" value="" style="rounded=1;whiteSpace=wrap;html=1;arcSize=5;fillColor=#e1d5e7;strokeWidth=1;strokeColor=#9673a6;" vertex="1" parent="1">
          <mxGeometry x="689" y="1298" width="320" height="50" as="geometry" />
        </mxCell>
        <mxCell id="ezgKTgP5tMkvbKeKi-sx-63" value="&lt;b&gt;Pedido&lt;/b&gt;" style="text;html=1;align=center;verticalAlign=middle;whiteSpace=wrap;rounded=0;fontFamily=Open Sans;fontSource=https%3A%2F%2Ffonts.googleapis.com%2Fcss%3Ffamily%3DOpen%2BSans;fontStyle=0" vertex="1" parent="1">
          <mxGeometry x="795" y="1308" width="105" height="28.64" as="geometry" />
        </mxCell>
        <mxCell id="ezgKTgP5tMkvbKeKi-sx-64" value="" style="rounded=1;whiteSpace=wrap;html=1;arcSize=5;fillColor=#e1d5e7;strokeWidth=1;strokeColor=#9673a6;" vertex="1" parent="1">
          <mxGeometry x="695" y="1364" width="320" height="50" as="geometry" />
        </mxCell>
        <mxCell id="ezgKTgP5tMkvbKeKi-sx-65" value="" style="rounded=1;whiteSpace=wrap;html=1;arcSize=5;fillColor=#e1d5e7;strokeWidth=1;strokeColor=#9673a6;" vertex="1" parent="1">
          <mxGeometry x="689" y="1370" width="320" height="50" as="geometry" />
        </mxCell>
        <mxCell id="ezgKTgP5tMkvbKeKi-sx-66" value="&lt;b&gt;Pagamento&lt;/b&gt;" style="text;html=1;align=center;verticalAlign=middle;whiteSpace=wrap;rounded=0;fontFamily=Open Sans;fontSource=https%3A%2F%2Ffonts.googleapis.com%2Fcss%3Ffamily%3DOpen%2BSans;fontStyle=0" vertex="1" parent="1">
          <mxGeometry x="795" y="1380" width="110" height="30" as="geometry" />
        </mxCell>
        <mxCell id="ezgKTgP5tMkvbKeKi-sx-67" value="" style="rounded=1;whiteSpace=wrap;html=1;arcSize=5;fillColor=#e1d5e7;strokeWidth=1;strokeColor=#9673a6;" vertex="1" parent="1">
          <mxGeometry x="695" y="1437" width="320" height="50" as="geometry" />
        </mxCell>
        <mxCell id="ezgKTgP5tMkvbKeKi-sx-68" value="" style="rounded=1;whiteSpace=wrap;html=1;arcSize=5;fillColor=#e1d5e7;strokeWidth=1;strokeColor=#9673a6;" vertex="1" parent="1">
          <mxGeometry x="689" y="1443" width="320" height="50" as="geometry" />
        </mxCell>
        <mxCell id="ezgKTgP5tMkvbKeKi-sx-69" value="&lt;b&gt;Webhook&lt;/b&gt;" style="text;html=1;align=center;verticalAlign=middle;whiteSpace=wrap;rounded=0;fontFamily=Open Sans;fontSource=https%3A%2F%2Ffonts.googleapis.com%2Fcss%3Ffamily%3DOpen%2BSans;fontStyle=0" vertex="1" parent="1">
          <mxGeometry x="795" y="1453" width="110" height="30" as="geometry" />
        </mxCell>
        <mxCell id="ezgKTgP5tMkvbKeKi-sx-104" style="edgeStyle=orthogonalEdgeStyle;rounded=0;orthogonalLoop=1;jettySize=auto;html=1;entryX=0.5;entryY=0;entryDx=0;entryDy=0;strokeWidth=2;" edge="1" parent="1" source="ezgKTgP5tMkvbKeKi-sx-71" target="ezgKTgP5tMkvbKeKi-sx-100">
          <mxGeometry relative="1" as="geometry" />
        </mxCell>
        <mxCell id="ezgKTgP5tMkvbKeKi-sx-112" style="edgeStyle=orthogonalEdgeStyle;rounded=0;orthogonalLoop=1;jettySize=auto;html=1;entryX=-0.001;entryY=0.316;entryDx=0;entryDy=0;strokeWidth=2;entryPerimeter=0;curved=1;" edge="1" parent="1" source="ezgKTgP5tMkvbKeKi-sx-71" target="ezgKTgP5tMkvbKeKi-sx-76">
          <mxGeometry relative="1" as="geometry" />
        </mxCell>
        <mxCell id="ezgKTgP5tMkvbKeKi-sx-113" style="edgeStyle=orthogonalEdgeStyle;rounded=0;orthogonalLoop=1;jettySize=auto;html=1;entryX=0;entryY=0.647;entryDx=0;entryDy=0;strokeWidth=2;entryPerimeter=0;" edge="1" parent="1" source="ezgKTgP5tMkvbKeKi-sx-71" target="ezgKTgP5tMkvbKeKi-sx-77">
          <mxGeometry relative="1" as="geometry">
            <Array as="points">
              <mxPoint x="1780" y="1020" />
              <mxPoint x="1780" y="1510" />
            </Array>
          </mxGeometry>
        </mxCell>
        <mxCell id="ezgKTgP5tMkvbKeKi-sx-117" style="edgeStyle=orthogonalEdgeStyle;rounded=0;orthogonalLoop=1;jettySize=auto;html=1;entryX=1;entryY=0.5;entryDx=0;entryDy=0;strokeWidth=2;" edge="1" parent="1" source="ezgKTgP5tMkvbKeKi-sx-71" target="ezgKTgP5tMkvbKeKi-sx-53">
          <mxGeometry relative="1" as="geometry" />
        </mxCell>
        <mxCell id="ezgKTgP5tMkvbKeKi-sx-71" value="&lt;font data-font-src=&quot;https://fonts.googleapis.com/css?family=Open+Sans&quot; face=&quot;Open Sans&quot;&gt;API Service&lt;/font&gt;" style="rounded=1;whiteSpace=wrap;html=1;arcSize=5;fillColor=#f8cecc;strokeWidth=1;strokeColor=#b85450;" vertex="1" parent="1">
          <mxGeometry x="610" y="971" width="1090" height="60" as="geometry" />
        </mxCell>
        <mxCell id="ezgKTgP5tMkvbKeKi-sx-73" value="&lt;font style=&quot;font-size: 16px;&quot;&gt;Data Pod&lt;/font&gt;" style="text;html=1;align=center;verticalAlign=middle;whiteSpace=wrap;rounded=0;fontFamily=Open Sans;fontSource=https%3A%2F%2Ffonts.googleapis.com%2Fcss%3Ffamily%3DOpen%2BSans;fontStyle=0" vertex="1" parent="1">
          <mxGeometry x="2045" y="920" width="150" height="30" as="geometry" />
        </mxCell>
        <mxCell id="ezgKTgP5tMkvbKeKi-sx-74" value="&lt;b&gt;&lt;font face=&quot;Open Sans&quot;&gt;Data Base&lt;/font&gt;&lt;/b&gt;" style="shape=cylinder3;whiteSpace=wrap;html=1;boundedLbl=1;backgroundOutline=1;size=15;fillColor=#d5e8d4;strokeColor=#82b366;" vertex="1" parent="1">
          <mxGeometry x="2150" y="1105" width="175" height="95" as="geometry" />
        </mxCell>
        <mxCell id="ezgKTgP5tMkvbKeKi-sx-126" style="edgeStyle=orthogonalEdgeStyle;rounded=0;orthogonalLoop=1;jettySize=auto;html=1;entryX=0;entryY=0.5;entryDx=0;entryDy=0;strokeWidth=2;" edge="1" parent="1" source="ezgKTgP5tMkvbKeKi-sx-76" target="ezgKTgP5tMkvbKeKi-sx-114">
          <mxGeometry relative="1" as="geometry" />
        </mxCell>
        <mxCell id="ezgKTgP5tMkvbKeKi-sx-129" style="edgeStyle=orthogonalEdgeStyle;rounded=0;orthogonalLoop=1;jettySize=auto;html=1;strokeWidth=2;entryX=1;entryY=0.25;entryDx=0;entryDy=0;" edge="1" parent="1" source="ezgKTgP5tMkvbKeKi-sx-76" target="ezgKTgP5tMkvbKeKi-sx-71">
          <mxGeometry relative="1" as="geometry">
            <mxPoint x="1700" y="1010" as="targetPoint" />
            <Array as="points">
              <mxPoint x="1860" y="986" />
              <mxPoint x="1860" y="986" />
            </Array>
          </mxGeometry>
        </mxCell>
        <mxCell id="ezgKTgP5tMkvbKeKi-sx-76" value="&lt;font data-font-src=&quot;https://fonts.googleapis.com/css?family=Open+Sans&quot; face=&quot;Open Sans&quot;&gt;Data Base Service&lt;/font&gt;" style="rounded=1;whiteSpace=wrap;html=1;arcSize=5;fillColor=#f8cecc;strokeWidth=1;strokeColor=#b85450;" vertex="1" parent="1">
          <mxGeometry x="1930" y="960" width="130" height="130" as="geometry" />
        </mxCell>
        <mxCell id="ezgKTgP5tMkvbKeKi-sx-127" style="edgeStyle=orthogonalEdgeStyle;rounded=0;orthogonalLoop=1;jettySize=auto;html=1;entryX=1;entryY=0.66;entryDx=0;entryDy=0;entryPerimeter=0;strokeWidth=2;" edge="1" parent="1" source="ezgKTgP5tMkvbKeKi-sx-77" target="ezgKTgP5tMkvbKeKi-sx-71">
          <mxGeometry relative="1" as="geometry">
            <Array as="points">
              <mxPoint x="1800" y="1485" />
              <mxPoint x="1800" y="1010" />
              <mxPoint x="1700" y="1010" />
            </Array>
          </mxGeometry>
        </mxCell>
        <mxCell id="ezgKTgP5tMkvbKeKi-sx-77" value="" style="rounded=1;whiteSpace=wrap;html=1;arcSize=5;dashed=1;fillColor=none;" vertex="1" parent="1">
          <mxGeometry x="1910" y="1400" width="460" height="170" as="geometry" />
        </mxCell>
        <mxCell id="ezgKTgP5tMkvbKeKi-sx-78" value="&lt;font style=&quot;font-size: 16px;&quot;&gt;External Partners&lt;/font&gt;" style="text;html=1;align=center;verticalAlign=middle;whiteSpace=wrap;rounded=0;fontFamily=Open Sans;fontSource=https%3A%2F%2Ffonts.googleapis.com%2Fcss%3Ffamily%3DOpen%2BSans;fontStyle=0" vertex="1" parent="1">
          <mxGeometry x="1930" y="1470" width="150" height="30" as="geometry" />
        </mxCell>
        <mxCell id="ezgKTgP5tMkvbKeKi-sx-79" value="" style="shape=image;verticalLabelPosition=bottom;labelBackgroundColor=default;verticalAlign=top;aspect=fixed;imageAspect=0;image=data:image/png,iVBORw0KGgoAAAANSUhEUgAAAZUAAABmCAYAAAADKgw4AAAAAXNSR0IArs4c6QAAAARnQU1BAACxjwv8YQUAAAAJcEhZcwAADsMAAA7DAcdvqGQAAHwBSURBVHhe7V0FYFxV1v6Smclo3F2aNvXUqVGj0JbS4m4Li7v/y8LisMtiu8giywKLy2Jtgbq7e5M07p5xn+Q/52bSpunMZFJSg/l2H9OMvHffffee75xzzzk3yGKxtOE0R1tbGxwOF2w2O+x2B4xmB7RaE2rrmlFWXoODhVUoLa3Hjr01aGiwIVgeDHlIMKQSQCYJgjQ4CMEdR1AQJPTKCA6mc4t/HQm6nPiglf7R2koHvbpaAZerDXb6h9MF8eqytUKpkGBgv2gMHpCElJRYZGYkIiM9EdFR4dCoZJArZFDIQyCTScX1AwgggABOZ5y2pMLkodeb0aw1or5Bj6rqJpSUthPIhu0VqGswEmkQeciCoKCD/83kEcSHVEpsIkVbsIQIJFgcIDIJkhDLoItg5886g75HTOJmFkYb2lzEIoRWenW2Mbu0IsjpBOhoo+86iWz4sLkJx+IgspFJMG5EMgb0T0V2dgqSk2IRFxuGmCgNwkKVUKkUdKkAyQQQQACH0UryxGAwo6nZSK8WmEiBbiU5M3HiQPc3Tj5OK1LR6YxkfbSgrKIZldXNKCquxL59Zdh1oAYWtgpCgiCXMnkAEjZDFHIEK5XEH2QF0GsQkUgwWQXScA1kERGQqBV0qCFVqgWhBMtlkChVhwmDCCVIrmz/dye02W1EHEQaJPRdNitaLTZhLbksJjhNZvrbglaDEU6dAXYivjang8jFBYeNvsdEozeKgeAgK8fuaIOFCIf+iZzMKAwfkobMzGSkp8QhKyMaiYlRiIqmtgb4JYAAftfQkjzZurUEm7YWYF9eCYqK6lFRZYS2QQuz/gv3t04+TmlSYUGr1epRWFSNA/n1KCmrRXFJFXbuLkeD1gaVPBghwW3CCgkmzT4kIhxSlRoSjYbIQoWQyDDIokggE2nIIsIgCWGSIdIQfi06+SFr40iwdeEX2LrxZE3we3zQ+VuZdKxWQT4OrY6IxwJbTT0cehORj5lIiMhHb4CLSMjlbIWNbtpsbyMLKxgjBicjKzsZaanJGNg3Gv36JiM+LlK4ygIIIIDfD+qJOL763xp8/uUG1NRpoVRLSVkmuUdyprBED2Pdf9zfPPk4JUnFQpr/gbwybNpWirz8apSVV6OgsB5Wu1OQCMlbBIeEICQpDoroGEhCQyGLiYI8OgqyUA2kYWEIIgJhgc8WxCHy8EIixx1diCeISK3V4YDLaBCEYm9pgb2hmSwbHWzaFiKdOrQazWTJANZW+q0L6JsdJdZiMukYPTIduUOzxLpMYBkmgAB+22B5+N2CTfjbq/PgIrkRwq6YTigsNcBY+777r5OPU4pUKirrsWb9PixdW4jG2kZUVjRBZ7QiRAJI21rJ6giDIi0FyoQkhMRGk/URLg6JXIEguVyQxhEkcqqjg2z41ekUVo3DoIejRQd7fTOsDbWwVFTBXtOAViIiG5GLPESK5OQIxMXGYtSwNEybPAj9c1IREiJrP1cAAQTwm0J5eT2e/OuXWLvxINTyo70UAVLxgO07C/C/7zdi445KWE161DeZICM5K3G5IAtTQ90/G6o+faCIiSUrRA2pWgPISIiebAvkeIAJhg+7HS6bRazROBqbYa4oh6moBLaKGjiDguFsC0KYRgF1ZCiyUqNwxUVjMXnKCCi6aDEBBBDA6Y2tO4pw7S1vQhbcJtxdXREgFTd4kXrz5n14/d2lKCmth91qhc1OqnhrK0KCg6Dsl4GwQYOgSk+HNFSNYFkIsQxHZ7nxWyISX+BBRH3Ci/0uC/VRXT30B/bDuDsPTg4G4CAESbCIFkOQAvffPgnnnTsOYaEq9wkCCCCA0xnrNhTgoqteQWK85zn9uycVq9VOnbQXL7+5GIXFtZALrw0xsN2JIKkEkVMnIGLoEIRERkMsGHhg5t89iFBdNhuMBfloXrkW1qo6uMhy4zWkVnDejRwP3j0VF51/JsLIsgsggABOX6zdkI+LrngVSYkBUjkCTrJMdu8twdPPfY2NW0oQFSUnwyMIQUQy8sRoxM06B6EDBzO/iPDbALoHL/hzzo21uhL1S5ZBv3Uf2jQKSIlctFo7IpRqPPaX2Zg9cyxUakXXDJwAAgjgNECAVLqAIxdKy+rx5ns/4+vvtyM6MgQhMikJuCAo0hIRM3kCNP36i+92JBEG0DN0kIujqRENq1dDt3kPXMwgRM4tjTYM7p+E+x6ag7Gj+iE8VIlgDqn+jYMrHbS1tbZ7SakvJBLJMZMqB3+0n69NWINc+eBEJ6byffD9sOXuya9+MsD90dEnv6Y/+BG1h/HTebhvxbsnBh33wFUxuCHtVS3an/GJAF+b4av/uiWVYj2M9cceUiwqg7haRWLl4fYEiz6Qcr5fD3HcSMXpdKGktA4//rIZ732wDC5qtFopE5FaiqQERE0cC3V2thCIATLpHXBf0kiAva4WzZu2wLA3X7jJ7FYbWsxOnHfOEPzxmmkYMjAdGs3RSZ2nM3gQswKj1RrR1GJGS4sReqPZPUmCEBsXhXC1DNFRGkSEq7uNlnPRBNO2GNDUbEKz1gSt3gwHh3PKZFCHqhGmCkFUpEqc63j0pdFkgclohYEOvckGp90Fo9kCKV1fqZBDGRJM15UjNFSBUI3quEf/mcxWmM02mExWOuyw2Fx02OGw2pGaEo2M9Fi/8qc6npPRYIGeDoPRBqurDRajSawNKlVKyPlVKYWGrGuNWg61WnlMws0TWC4ZaFxwNrpOZxXP1Wan+7E66NM26tsQupYUEaEq0b9c3UJD1r+CE6l7gWiMRrouXVOns8BsccBCY4o7RaUMQUSYApERPKZCj7jW8SAVzsrndjTTXGnWW9DSpKW2mWCzcT9Qe1TU9zSukuKioQmlsU7zJjxMDXn7eoVPHBdSqa1txup1+fjPf3/GzvxGJITTg1IoIE9JRsToYWSZ5CCIJofQTtzMeErDHy3sVLoPd3tt1dXQbtsB08FiOPV66EgYxJAgvPqSSZg1cxhy+qWK753O4F7ncj15BdXYsbsEW7cewJpNJWhuNgNS6gfuC3o2wY42En6hOHN8DsaMGYDhQzJIEMaRsAhpP1EnlJbVYeeeCmzcvBfr1hcgr7Cp/Vw80cliAZ0rKiqELL9MDB/eFyNy+2Bg/2TERIe7z3BsYIHHSW4HCmuxf18p8gvKxH3tPNCIILomWK7yoyUdLCZagQH94pCTk0yvmejfLwHZfUhZi/p1begMXv+srm1CQXEDCgurUF5WjaLiWuQXNqKunvqX2uKytuLqK0fh0UcuIaEX7f7l0eB7q6vX0rnq6b4qkHegBHv3V2Dvvka6Hbo3vi9+VtS/IbJgZKSFIadvIrKyEmmcZiCnT5x4Xse6RshlnQ4W1WB/fhX27S/B/v3l9Ixr0ELEIp6r6Ft65XnspDa0BqH/4BhSwFLRr18atSUZ2VkJdI9Rx5R8zM9134EK7Npbhj17irBjRzkqyg2AnK9Jl6d7HjY4AaOGZ2HcGYMxalgG4uMjxW97k1Ta21GJ7buKsGtXITZuLUWL1i7qIXIdxA4r2EXPwUFk36Z3IisnAuPP6IvhI3IwlPqjT2YCKTOe28LoVVLhB7dl20H8sGATvvhmCw0AKWSkOasz0hA+qB/UuUMhUWlOfTJxdyy/tpEmwfkjbQ47Wh1Oajeb6W5w2RfSEDkyLVjBZWDI6up8Xyf7HsUkbYW5pAS6HbtgKiyBg7SR5gY7ppzVF5dcMAHTpgwRGsjpCAcJqgP5lZi3cAeWLN6KkrJm0rBozNEElXQ8w05gM99MGnYbfTZyUBouPP8MnHPWUJFEymAhunDJDvy8eAvmL9oHDZ1LIZd4PBc/Z67nprc4EUka7dw5ozBnxkiMGNbnmIXOqjUHsH7jfixYvhdWi729YoSMxhh93tU9wkPLSda/zdkKk8FBAi8CkyfnYtK4AZgwtj9p9wr3N3sOh9OJoqJqrFyTh83b8rBoTYHwNIST9SAjcmXB0yF8TFYnLpo7Eg/cdb6o9uAJLS16Otd+OvZi9Zp8NOlMotAqPycpW9ce4OL+pXuzOuiwuDAyNwljRw/C9Cn9MXrMwB6VLaohJXf+L9uwcPE2bNldASn9WBlC1yeLyMOjFeD+ZWvVQW2w0PWjSRk7Y0wWJowbiGmThghy8cflR0MEmzbtx3c/bcUvC7eh2eQQ/Sgny6vrz1mQm6k/+XXu7JG49rIJGD0yp1dIxUyW5vpNBVi6cid+XLBNPDeNkvvg6HZ0BY91M1nKVlJsBvaJwSwa5+dMy0W/7GSPFmSvkQo/uB9/2Eqdtx6llc2Qk/4hi41CeO4whA8dgJDYePoWXYqf1qkI6lkmBS6dYm9uhkOrha2+GU4Swq1mOshEbiXSbBVaFX2XBhzXC5PIQ8jqCoEkNEzk1Mg5KTMykv5NgorMaIGTec/u++LsfUNePnQ798BSUg6zwwUlmbJzpo/BlVeNxeBBme4fnB5gzXf12r14672l2EYWCk8QLtfjL3jyRkaocfH5o3H91WeRWS/B2+8tx5ffroTF5iShI+12snWABaDV3oq+pE1fc9U0XDhrJJRKufvT7rE/rxyff7MGC37eKdxMKhK4PV2jYMI0EMElxYbi/JljceWV48gyi3N/6j+4vt5PS3bh54VbsGVrCY2fVhon3knSF6kwER0kcvr0y9VYunw3GpuMgvR7uibE08dJ802vdyB3SAKmTB2NP149gZ5fmPsb3pFfUI5XX1uI5Rv2CDKRE0kfCzoEK4+LcSP64757zxXFYH3BRvLi2/lb8OlnS7D3YAMi6d79ea58v01GO0YMSsR9d8xBiFzxq0ilsUmHL79Yjy9/WIO6RgMpKz0fXx2wE8kKpSw3E9ddPRWTxw84yiXWK6Syl0z1Dz9fhSVL9tJktwkNJHTwAIQPz4W6Tx8h2E5lMmGesNXXwlRcAmtpZXtWu8kMl1ZHFopTRK7R/BATlzUP7tQgeo/zDMViFh18GolSAWlkOGRkjUnCwyBPiIMmMw3yuHjh7mP4XVest+F+BvaGeuh370Pzhs1wkgCz2oIwZmwWrrniTMyYPgo9kMsnFctW7MCzL81DZUUDNOpjW09w0EPloJFLLzgDOoMVP8zfRhPk2BbCeXjzdgdhkaG465aZuOKCsd1aLDSEsH1XMd56ewG27iwRC6WsPf8asPXicgRj1sxc3HnrOeiTmeT+pHvwVhGff74WX363ETqTEQoSwN11hTdSYSHMVuQTz3yD/QWlNE/aq4T/WvAzY4fBnGkj8cQTFyE8XOP+5Giw9Xfzze9h94EyhEWQ8vfrL99O3loHhg3OxEcf3E7X92zl89rEx1+uwvv/XQajwXxMz9VGil9WZjxmnzMcL762AJHhnhUVX6TS3KzDu6wsfbMeriA76bm/foLzWOe2JSXF4v/uPx9nTR50hMUiefzxx59y/7vHYPfDKjJpX3trATZuPkiy2UVaMRA2ZADiZ0wXiYuiBXycauARRoelqgpNy1dBt2kbjHkFsFXXwtioha7ZRBPLCZVGjkEDEjFoYDJyh2ZgxDA6cjMwdHAq+vVNQCxphq1trSitM8NI2oWdExLJynE2NNC5q2EuKYMp7yBcNhpYYaGQqDXCfXyy+oTrpClTk6BKTSErTA/otahp0GPXnjKxcDqgX6LHdYZTCZVVDbj1lv+goUULterYF6h53xx2cRSX1Apfe4dr51jAP2OhyYvZZeX1yEyLRXqab0th34Fy/PXlb7FzT6lw54gtGH4lWMkJkrThYGE9Wsgy4HHrzzpEEwmfjz5diY8/X0cathXykO4JhcHuoQE5SRg3pj+R++GABV4/ufWBD5FHVhhbOsfar13Bz4zlV0FhLSx2OyZN8F7y/dGnPsHqdXmIiOQ6gO43fyVYw5eTJVla3kiC1IXxYz1f/5dFW/HvD5eKwJFjVRQk9LsWnRlFpbVCGfXWh80tNvz54fPdfx0G7y/13/+uwcefre41QmFwM3isttC9FRRWIXdwOuLjI9yf0ufHaqmwj+67eZvxxjuL6N8mMotcwv3AD12mVIpqwZrhgxA2aABComPFb8R6w0knGHYHBcHe3IimtRthLCiCy2iCk0xVLZEId9hF5w7G0KF9kJmRjJhIDU1KBU0yGWQ00fj+eGC1MYWS2WKzOYXLQquzora2BUUlldiy9SA2bi8nK8CFCI1UFIALUqnooYZANSAL0WPHICQ+kf0DJ8Vy4S0AONHUVlONyi++hq2xRTyW4DYpzpmai3vvnYmU5PZndirismv+ju07y6HRHDuhdEbHkPQyZ3sEPpeVtLjzzxuNh+46D3Fe1hlqaprx11e/wdIV+3369tm1xq46XguyOdsE+XAFa41CKlw5Xn9HZpCTrNAbrpmKe+6e6VNR4LWkb/63AX8jyy8oxNkjN6I3S+Xmu97EyrX5UFM7fYFlgonmkMPRHtbLc0VB84zb4Ot5cL9EklX4t6cuJ8E+2P3uYWzeuh/X3/E+QoI45Nn9Zhewtt1icsBucdFYat8kT69zIJiUizAaW2ql1ON6GoPb3VzjwL69fz+KtDkQ4fmXv8e2HUXdEgrfM6/NsZXKciWky1oLD03+jrd2MLxZKouW7BBKS0OTQVQ09gb2xBjMDjHGXDTGWOtVhAQjlO5f4cMNTM0Scn/GtEH400OXIcEdWHBMpMJhcR99vAz/fH0pZBquRwOMHpmJg8WNOFjSiDCVVCyEtclCqFNJsyANPWzkUGj69oU8gYQpQYQRc6tONOiaxoICNCxZDjsJU9ZUG5ttyMmOwvVXT8bUScNFqKhcHoIQ6tCe5HSwn5/9qDaapFyeeteeQvw4fwtWby4TG4WFUr+0BUvFQFP0TUfk6FHQZPdllUTss3Jc+4NMSCZThqWsFM1btsK05yBag4jUXK1i4LIP3GEPwuSJ/WiQXIDsPsni+6cSlq3Yjutufx8x4d61T3YBGS1OaOng/BL+YphcgnASFD3VGsWEI8FjIOHpJMHH1gwv4POz9LXIHEzE/dwTV2HOrJHudw+DhfjX363DY89+i6gwroTg/qALWgw2+lyJqy8fi/456QiPUIsdTuvrm7Fy9V78sqoApDSLueYJvNCdmBBOz/IinDVlmPvdo7FrdwnuuP9d6PQWvwilfZi256cYqV8u7kIq3/6wCvc/9jUiQ0ParXIPYKFcr7Mhlp7j5ReNISUmhpQ2Gd1biyicuGFbmQgB71qRtwPcBibvcWOH4N9v3gSZe2x34LZ73sL6TYVCNnlCs86O0cPTcc2VEzF4YBaRLj0Hep8FfF1dEymG+fjs67XCLcqC3hPqGi34/D+3Yurk4e53+NkDf//nAnzw0RKy0LxbvjzftAYHJHR/owYnIi01ipRQJ9ZtLkFNoxnxZF35a915IpWy8jpqxw9YsnyfWEPxBG4D75KbkhyJqy8ZhwED0hEWqhYKMys96zfsxXsfbkRMLMlCL33Az4H78h9/uxpzziVlmUmop6TCJtU/3vwRr7y+jC4mJ21JirvuOJcG/hTqhDZs30EP40s2o3ciLEpKAyNEmEosvCUkdEMSYhE+ZjhCBw4iCya6vVV09HauisjZcD8U1soZrdT25jXrUPfTEgST5tZssiM6QoWH7pxJHXKGCJPrzcRA1j7YmuEHPP+n9Xjh5aXQhJNwoz5hYRfkcEIWHYHIM88gi24wZBGRYrL1Sn/QvXfkrTA4MVK3Zw+0azfDqTfCRYNZSkRjtpPwNZMZn5soSrzszauFnXhm4pgsPPf4FcjO8t8nfyIwbfYTaGjQC4vRE5qNdiTHa3DdFRMxYdwgREaEipyPvPwy4d7ZuqdGCDJ/YDI7iUCUuPv2qRh3xkCRD2Kgc+0mZeHVNxehqcUEjdKztaQlIrqOBNZ9t806KsyXdym95JoXRb6HN8FRVGnEc3+aidtvPV/Mn855CzxEeGwVFVfjroc/REVFo9DuPaHZ6MBlF43Fn+6Zg5iYo8ON9XoT/vX+z3jng5VkVft2e1porLSQADFaW6FWSxBKjKatt+Hyi0fi8ccuRXJSjPheVObtSI6T+9TyK5useOnJi3HFxWcKBa79q+1bVfDcWLdhH1545XuUVTR5JU1eX8nMiMcLT1yOoUP6uN/lPZgMmDL7b3A5TB7HSYvejlnnDMdfHrmASDf6iL5ldLRh6/YCPPb0p2IXWU/3wiH6jz0wCzfdcJ77HeAAjbMXyErZsq3Y6zPhxW4JKdx3/XEyLrt4EjQkyDvOztfdf6AUdz/0PqrqjKSgd2+NdyUVOgU+I8vzT49/ghixlnR025lQDLY2PHz7dNx04yy3Zcjf6/huu/XU2KTH1Te8jMoavbBaPIGDKOKiNfjivw+TYhHRM1KxklD+60tf4Y331yIhRoHo6FA8cvdszDlvnPsbh9FCD3bl6p34+NPV2LS9BmERHL5Gg4bvmMgliDR6GQ1yTe5ghGb3EesvvAeKmDEsCPm1J+AO4d/QwcUXbfUNsFRXwVJTA0dDE4IaG8nCsiGYOoDUTbER1rQpg/DY/ecjPY0j044/OMnr448W4K9vLkdwG0eSuB8i9UcwkYgiPRnqnD7QZGWLRf5g3nXSnUXtnnWH+6XjfjtI0H3vHZ+3Wi1077Uw5OXBuOcAnC369uKTRLDsQuEtjQ26NhK+w2hSzEDf7BQSvOV4+sXvsHFLEZ2mFWOGp+H5J68hiyXJPeBOLg4WVmLaxa8g2kOuId82r4FdesFoPEQC1FN4K0c2vf2fRXjr/RXtFoL7fU9ga2P8mL74+3N/8LoY+8if38e3P+1EqAdiYYE3sG8Cnv7LVRhIGmAH2Jr96rvVuPexr5Di6UYIDST0nnxwFm7542Fh5Q02GlOXX/UiCktqPS6Es/Bgy/vpx67E5DOHuN89DF5Mn3PZ34Sbytsz5nM0tLhw+x/GYO55Y9EnM9lrnsJ3P64mK+UrRHohKD5Xk9aBN1++DufNHOkzmGH5yh148R/ziISbPVqFfC5OGrzlhum48fpz3O8C23bk4ZZ7P4LdZgWJSve77WDlNisjFo/QvJ84/uj+6IwWrR5vvLsQH3222qNwN1ocuObS0Xjq8evF30xG//lkBV589TuyDjxboDyuZHIFnn/sIsyaMcb9rmc8+H/vYt7ivR7L3XdGV1LhLUT+9uq3WLJiP7XD829NNhfJ7nNw843djzHu57mXPEtjzLvyUkFW2wf/+APOI2vF74V6HWk0L77yDd78aD0RihLxiVH4073nYfa5Y93fOBKc9TuATPbLLp5I5u1opCWHo5HMOp2BtHMyx5w0SOw2B0zl1TBs2Ymm5WtgLiuG02gggWgV4bpBLFDphrhkgOcn5BIEwtv3OptbhABtXLMW9fMWonn1evq7EGbei8RoEguKbIW46IiJCcU9t5xNwueCX52w1hPwpB85Igd33DgdfdIi0NRoRFOTTSQ+cVkVCwk9S1EZdJu3ifYbC/Nhqa0RwQP2xgY4dDq4DAY4DCY4qY8cTc3CArFWV8NSWgrdvn1o2bYdDQsXo/7nZdBu2wVTZa1wmXA+DYe5tgWHoG9WHO6+5Sz84+80sen5RUe1h2ayJps7OAXVVS2ooqOMjoKDZRiem4XIqFCfQvhEYN6CdWQJF3l0abArZNY5uXjo7vPgLQmP1xWy0uOg02qxP7/Gq5+ZJ35mZhLeff1Wn4vcZ581AstXbEdj89EaMf9dVN6CyRMHkxCOOySweQ3uby9/C5PRLCyQruD1k5lT++PBey/2K0uex9T4sf3w74/XghXJrtOEr8tbzub0TcKQQalHCHE7WR4LftmIJavzvK59cOVwTXgofvzsHlx84SQkxEcfFULaAXafPvjox3CQ8umNoNhddusNU3DpheNEprwvZGYkYuf+auQXVAlLwdO9NettUIWGYeZZQw9ZHFu35mPt5kKRz8iL07zg3XFw5NioYf1w2SXjaDz4tljpimS5V2HNxgKPLiRet8rpG4+zpra7v5qb9Zi/aDt27quEyovwJS0QN11zJq6+cpr7b++YOH4wNm06gKpanU+3ZOeFeiY2jiR8/Z2FIvzZ02Mw0xicMr4fkeG17nd8g/t5zOh++JDHGCnCnp4tV3ioq2vGBaR0+EUqvDfyG28vwJv/WYPYKDmSkqPxlwfPp0l1tL+4K7gBrOnlknl6wdwzMOvswUQwEWT10EOhx64gE9pO2paN+MNK1o31YDH0O3ZDu3UHzJXlsJLF4dTqhCC1t2hFmC9vYmVtaoK5oADaPXvQvHYDGhavgH5fPkz1TbCTgFFqlAiL0oiB3t4FQSKXIJO07scemEttGU9CxduDP77gwd0/Jw3nnzcG55w1CLExapBSRUQqhVwlpX6hB0+WlFVvhrmqFhbqE+OBAuqXvdBt30Wksx3aDVug20qvW3fBQJaI4cBBGIsrYGpohpU0KHb5acJVCCfCCA8PR/9+Sbji4jPw4F2zcfMN52DIYPYjH61NMsEMHkTEUt2CGjpKKppRXFot4tIjIryHb54IfPTpcpSVNR41UZgEEuLCyOqahFEj+rnf9QzWsE0WF5at2UeCqn1doCuMZLy/8+r1ZMEmuN/xDs5Nef/jdQj1ENasMzlw5rh+ou+59hiD3QkPPvoVoiOPTk6k2xBte+axy5CVmeCxbZ7A88tq1mLT9jKPaxBBdGm+Hidmdt4SgSPVXn39B7LgzB6FllgbCgrBNx/fg759U9zvekdVVQNefXspWDn21HQWwrHRatx0/XT08+N8DLmkVbiSdAbLoUXrzoed5nR8bDiRd3+oefsHArvoUxJDaSxkYnSXY8zITEyi7+b07b6aRG29ViRMchUBT/3Ka3cDcxIPkUpxaS3mL9iElmaDR4WB+zNMHYaXXrhWuPy6A4fppqfF4ptvt3gV5ozOpMLPdOnK3Vi+1ouiQJ1YR0T88du3i0AHf8Hla0hKY+2mIo/WCt/vtl21ZDVO7d79xbV+3iYT8I33lkGpDkIiWSiPPTgX06eOcH/j2MGhoexyWbuhAPlFTTQYLNASYdQ3GEQkAvubJWiFlB5GEB/cp51ay/kiTiILB3+PDjbzY2MjaeKEYkDfWDidVixYuFu4HIx6B0aMzMafH5qNYbl9209wCoEX+DlP4MCBcmwjTaOwRAeL3Qqb2UwEbIODPrdY7PTqEqHcTJIsCCTSILHIKJPJEEIapEKhhEQuRwwJj8ED4+hIIwGVKNxBPcn0Li6pJjN+PlauzyPhaMOMM/vTZLgOcbGHQwdPNKbNfpas3aaj1iEs1CdnjOmH5/58KdL8cGXu3F2IF/7+LfblVx+1cM+Cqg0y7Nn0kvsd3+BnkTngbiLjo33XzQY7Hrl3Nm64euohrXzR0q34w53/QbwHUmFfe+6gZLz64k1ITIhyv+sfdtE9nXXhS0iJPdotxT7v5IRwvPzCjaRMZLjfBaprWjBi0qNI8OKGa9bZ8OT/zcX115wtBFx34HXDR5/5FlIO/vAAtlLOP3cEHrpnrljL8Ac8J97/aDVq6ptJcLnf7AQHKV/9+yTimqsnILoXvA7s4ue6ZKUV9fhp6V7M+2GtCHjo8mgFOEn24rnD8cLTN4q/lyzbhUce+5jIo112dQVHyj141zm47aY57ne6BycuPvbUx1i17qBX11Nn91ddfQuee/ELLFmZJ/KMuoLdstmZsfjx68fd7/gHtoC2bC/ERde8hpgwsvA89Ee91or//PMG36TC5vGnX6/Bqy8vgCvYQcymwrOPX36ImXsTRqOZBnkTCg5WY8+BatTU6mEwGWEgK8lgtNDnVuiNNuhJ++MhG6aUIjE+VGTVRtJgiokKx6CceBKiqcjKSsKBvHK89uYCeq1Cc4MV06cMwaOPzhVrBz0FE2tZeS3KK5tQXqWF2eCASi1FRloUCbEYZGenwYsn5ZhB45g0Hq2IhmkmzYdzSLgAnJEEPFsiDA5xVipl7UXv1Ap6Pmoi1jDERLN14r8W4g0FByvw/Gs/YvPmQui0Nlx14Vg88cQlIkLkRIOjasZOfhIWq+6otQM9TdbpZw3Dy09e4VdOhiDM176niZp/1MRjwT4yNw2f/OdB9zu+wQrLzPOfIKF3dD6C1mjHHTedhVtvmHFoXeaNt77Ha+8uFQUpu4IXwufOysWVl046IufDH5gtVpxz8StI8kAQJA9EBNt/37sLZ45vrwjO2LQlD+de/hpS444mIv4NR9At+Ob/yNJK8ShUu+Lvr36Nz77eSPLGs0hp1ttx7x3nUp+cLTTfkwV+ZiaTReRZ8KI+R701NRtRWU2yhtMDtHrkk7K760ANwlXec2w6kwp7RL78diMeeuwTxEd7LpFT22TDygV/El4Kf8GRgl98sxp/eeE7EfHoCZ1JheubXX/LP4W89NRuHpNPPHwebrx+lvsd/8HV5m+68w0ier1Hy5bdajdfN9E3qSxetgPPvfQ9aYc6UYPoBZq05870vbjUG+CoAyMJ8hauEktMrSXzXM+VNOkwmJ1Cm2RSSU6MIA08TPh52ZTr8PVu3pqHV95YIAqnaYlQ5pJ29Oc/X9jj3As2uVeu2o0V6wtQW9OAetKaquvIiiKrR6WWIDWVrk/XTklOxoWzB5G27D0R63TF/gNleOzpz5FfWAurwYW7SNN64O657k9PHHhBesJZT8Fq9kAqJPxmnDMCLz91Rbd+ekZpWS1e/Mf3WL5qv/A7dwbnLkyflIM3XrvT/Y5vsDC55KrnhKXd1UXCCtBN10/CnTefS6TS7jq8+4E3sXhFvsfSJ2xRJCVEkLUdISr29gS8hrNpa6GoKeUJNfUWfPjO7Zg5/fDaw3c/rsHdf/rCYzQcu3Yy06Px77fuofnln3V6w22vY9uOYq9CWEcC7bFHLsUfr53iF0n1JrguYUFhJfbsK8f+/Dq06ExELHQYzG6CMaGq1oQ2ahevtclDgkXdQl/t7Ewq7Hb68POV+Our80iTP5owWdMvb7ShZt8/PbqdvYGjwZav2YerbnoTiVFKj+3pIBUW5Dt3l+Pci15AfIzneVDZaMG8T+/ymNvTHRqIB54nK+inJfs8utZ4/I4dlSFq1XnEvv2l+OSLVaIYXAuZ8ffeORuzZox2f3p8wQvq7PvlqKwRw/th2pRhuGDuONxwzTTcc8s5uO/WGbjxurMw4+yRwpWVkBB1iFB27S7CW+8twr68SjTXWXHZxWfgsccu6jGhrF2/F7c//BFeeXM+5i3YhK3bi1FaSVYKacV2mrcmEj7F5S1kEhbhm+9W41ki32de/BZV1Y3uM/w2wJFLTzx6qQgdV0dI8eX/1uGXRVvcnwbgCywAeLG3M6rI0uU1NU/gCKeaWh227yrB1m1FPTq20OGNUASkQeAS76ywdYAtcG/cxW6S9LRoIVz9RWmFnhQ+9x9dwJZPVDhZ00RgJ5pQ2OV4+0Mf4s/PfI033/0FX3+7Br8s3o71Gwuw90AVyitbqC8ciCQyiAoNEUl/IdQxPWknb4tgNJhIg/f8I+6WfunhPSIUBisAUREqJMaypeulc91g4jKRxergBEYv4FJCcbE9c612gKtHR0WHCaLzBElQMEpKGz2Tio5Y/LPPNmDbtlKRGPjHayfjorljqZNP8GjoIVirfp0GzdadpWTO2nDhBSNw372zkZTYHj/vD/SkuTz9/Kd4+KmvsG3LAZETwREwXHzwkrkj8Oj95+HFJy/D4w+dj8suGCVCBy1EMIXFdTRY1+H+P32KVWt2u8/228Dw3Gw885fLUVNNWp3Fhjc+WI7ikhr3pwH0BI3NRq+Ch8EWB5MDZ8v35Og2qZMu2U4qhwUCh9d6A5MAB20EuwMM/IHFygnN7j+6gFeqVCoZVF7yeo4HeH3hj3e8iWf+/j3WrduLwsJqGAxWYSUycXD+C1uX3OddRRvfP7tCbWL9sns4XS5YaW54ewycr5aedGxrPlz4lXOvvD8tN6jRDnrGYpsGb6Db6Umx087ghN4wDSdHegb3oVZr8Uwqi5btwLI1O+BodeLMsZm44arJR0SNnIooISH3+r8XYtXGg2g22DB75mDcf895wkLxlws56WjWla/ihwXboSMLjclErlbhr09dhs8/ehCPPngJrr9qKq64aDyuvWIKHrn/Ynz7xf/h2UfPFy4ZFrj76ByPPfsl3v9oMawc4vYbwYyzR+CRB2aIEM6Sklq89PYSGh/ehlcA3sCh7ey+PRloJ5Qjr+1rbnA4rp9TR4wFX7fFH7HW3TXR8HiBw1svuvJ1bNxyEHqtSaydMYF4c80x2H3DnogmnQ31pJQOG5yCKRP7+0csdIP8XL2dnT871tpbwaSEcJANWyLdgr/ii33oc3/lYVfw9Zk8fYEj/I66y6LiKixevhMtBovohDtuOReZGf6HN54MNDRo8c6HS/HzL3tEdNSUsdl48M456JOV6Pcgnv/TBlx27VvQ1jUIf3JjnQ13/nEKls1/AldeMgl9M+MQGRkmdkTjcEAVsT1na2dlxOO6q87Cwh/+gnPPGoSGeguxtQkvvDQfTz73jWjbbwFczffWG2diUJ9otNEk27+7AAt/3uj+NAB/0Z2mzlnadS1W1DX37mFttsNhdvgnmI4BXCaFK3e3S7WjwbOQ159cHIFynMEpCjfe/W80tTQJC65rDlEHOMSX+7uk3ozCEr0gnDnnDMRLz16K5Qsexeuv3IKsPqkwWPyzVnyB5ZCerKRjAnUpPzd/ZHC3a3FkePJzOBZwG3htyheio1RHkgqXa/554R78smifiJe/+orJGD4044RpF8cCjt54692F+O8n66BQBGHEoGT86f65GNA/za+HwJEgr/zzWzz0xFdoC7KLhVrOKVix8P/w8H2XIjpc1W0+C2sRXLvopRduxAtPXwyrrZVMzGB8/MVa3PfIh6KcxnGayycUYWFktT1zPZoabKis0uLLb7cJF0MA/iMyQulN7kJPQv+um8/CZ+/ejC/ev6VXjx+/vQtTpgyExI/Q4GNFEK+/eJlzvLakN9hgICF+vPHZ54tQU9Ug3IKewFZDo9YuNqd78M5zsOr7h1BT+g52b/oHXvn77bjikqkYkJMq3EQsQ/yZurxOxsqmN48ik1th6bHNFQvXEqzVu//yDl6LjgjVIMjhnTQUsmBU1xzbui+Hzzc3ceSX52fM63CpKVGHSYWFXn5+JVas3g6lSoKRQxIxa/qQQ1ErpyKYBL/8eh3efms5omPk6N83AQ/dOwe5Q7Pd3/AOJpOiohrc89D7ePfDlQhua4XJGSzWTXZueAWDBvZ80yq2YrhcxHtv3kokE4WIKAXWbSnEXQ/+Gzt2FbnzS05f8ATr1zcJt90ykUYwWbWl5Vi4ZNsxaz6/R3BJfLaEPYE3gUpIisWE8UMwZdLwXj848EXagzWSnqJPaihp++4/uoC5plnvQLPO2iNriccWV0TnCC0OLDj6sJDQtR06p8nqwOff7IKVXj3xGxNKVKQaLzxxERZ+/zjuuu18EezjqdROO5t4d2l1Bu9rz/OfC5B6Q32tReTq9AR8Xzoi47Iao8jF84hOna5QcsIkb8fhuR1cfZhD6o8FZrMdeQePzu3qACedc/WIQ59aLFas25CPjRvLqfESTJs8nLT9wzWLTkXU1mnx7Ks/IjZViTQS4nffOgsTxnUfKmcwWrF89W7c/8jH+OnnXWRpBCNUpsHfHr0Az/7lOve3jg38fKedORgvPnMVRo7oI8rVFBY34pa7/oX5v2yF2XJ6r7NwHsj5509CqEaJ2gYzVqzNF7WGAvAPGRkJZA17JhUladbV1JecEX46YshArhHnWeAwgonPGpq0IhjGX1RVN+DDT5bgzXcX4O33fzrqeP3t+Zg3f5MgGEZ+XgkJdotYh+gKFrQKuQxXXTZJuKw1NIZ9weVywUmCsmsIuyewt0KlVsLhy0oIl+JgXrH7L//ASdGl5bWiHL83yOWH+5xz1oblpom1O09QyiVYunKv+y//weTGJfS37av1aqlwwvrgQZ1CiiurW/DTwi1QhkqROyQV0yYNEOsGpyqYiBsaORGRc+qDkJWViDNG57g/9QweJJwc9MGnK/CX577CjvxyYU0M7J+G19+8HpdcNLFHWee+wNoPZ3ifN3UYPUi5KD53+0Mf4cMPl4uExtMVPJz6pkfjiovHivDUvbtLsGFTgbD8AugeQwZnkmLhua94wq9dn3/svveTjEED0uAjmlXUzyojLbkn64x795fhv5+ux7/eX0HH8qOON95ZgRUrDx7K+K+oaBC1xzzxgMPVhhSy1qZN9i9Hg3NPmhpbSDP3LESZpHitkcEpDUkxkQgLkQnZ5Alc1Xn+zz0Lx+dtRlav2Svy8jyBF8YH9z8c3cpJ0AMHZHgdYxywMH/xgR67rdkrtH7DPhHs4G1ZwWAlUhmY1U4qDoeTHl45tm2vFAuJI3L7+FXr52SC7ys2JgL9SMAxQ+49UIn3PloqSmZzqXmuMMpFMHnNpba2WZSx+PjzVXju7//DP976CU31RiRGhmL2rOF4/umrcMaonEMDs7eQkZ6AR8n6uerKSQgnDYKTop574Qe89I/5ojzN6Qp2iU4YN1DU26pvMoscCU6QDaB79M1OJW1Z6tE9wW6FLbsqsGlL/mnpKh2Wm03Ch8vXu9/oAjkJpK07SrFnf4WQOd2Bv7N1WynsDhsiQuUIU4cccYSqQhAXp0JWv5hD+R+coOek33kSe+yaCg6RIzLSP5d+Tb2W2lou8jM8wU5WCZd670BqajgGDUkg8vL87HhztZ+X7kNNTZP7Hd9g199OUtq48kPXJN0OcITqtMkD3H+1hwtz1RA5fd/Tc2BCCFNL8fo7P4kqFf6ioqoRX3y7wWspfo6cG9g3Dikpse2kYjCaiUE3QhkuQ1p6DCaf2e+YY5lPJBISIvDQQ7OREB+OouJG/PujZXjh5W/x/Mvf4em//4CnX/oeT/79ezz/ynfivb//4wes2ZBPWoWETPUU3HXLDDxw11z0IyvHm7vy1yIqKgz33T4DD94zFylJEQiNDcE387bgxdd+FAmWpyv6ZyeSNUsaH42g9dsOIo8swAC6B+c7TZ/UF1YSBl3BYzCCFI833l2E7TsPut/tHux+/Otf5+HZV70cf/0Bi5fsPOQiOl7g8P3hAxNJWHl2vbBAM1ns+OaHTSirbOp2AXzv/lIioWLYmCQ8zE8HCbLomHBMHne4lh/79b2t2QjrpdUFm9V3BBODLYR1Gw7gYHGD1zUEdmN2LoyZnByDnL5psHixEji6jMstvfmfJaL8SneoJEH+j7d+EVG43uSTXs9bKh8u4c+Kcf9+iRg9Il0EHXkC7wH07byt+HGBf9GbBoMZr5EiXl3rfR+jFq0dN181UVReCeYHUFHRhBVr2IQMpo6Jx+BBPV+kPhngLX5nzxyNvzx8Ea64cAwi1Eqytqowb+EufPntenzxzTp8/d0G/PDTdmzcWgq9yYnM1Ej84erJeOKxS3H5ZRNOSOl7LrF92UUT8Pgjl2DYkFTYSJPhkhqvvD5frLP0RGM4VcBkOWxoBiJDFaIeGlcwsJzm60UnAuxevWDOOOh1noUKZ3JXVDaLWk8L/AjZ5j1mnnj2f3jvw0X4z0eLPR7/ePtnEo51XjP5exM33TAZjc3eBaaGrLSdu4rw0j9/EPX5vGVnFxZV4b+friANuQHedh1kIc0Lw52Datj9w7spegK7sYw6PQ4W+V6oZlfPkhU78OnX670WcWSY9E6MGHY4KIhTDHKHpCMmUuV1oVwS3IafftmGt99fJErle0N+QTkefuIrUbvQU2FIBru+stKjjpLXKUnRmDJpiGiDl2aAja/X35qPDz5eIrw53rBvfwnueexTLF2xGxFetu/mdqSnRGDSmVwCSALJnx599KmFizdjycoDiI/VYO6s4Rg35nDRuVMdPEkzM+IwPDcTZ4zuR0c2BvaPR5+USCTFa5BJr7mDkzFpfA4unDMW114xCedMyxWuqd52d3UHjr4ZOiiNtAsDtm+sgNVlxa69ZaRdOdG/b5Jf+2ecKuAw89ZWJ/ILq0SZ/OgIOUYOzz5uSbJMvB98vBJOh00Ik86wOVuR3ScR50wZ7FcfanVGrNuYh5Kyo7XQ9oka43eNO1bKvv52NZpaLEdpceweGZGbgdEj+x5yz3C/cZADF+ssr24Wdaa6gt0k9Q164ZJevDYfwa1WUrA5CsomvAq8JpFXUEZK01p88Mlq7NpTKgqccoY4C6DOB9/P6JFZuP6qSaQwHlkZeOfuIrGPvCfXCoeH8t46Y0f3F6Gy/oKrK69ZtwvNWt5jxoNwpy7i51de2YhVGwpRXFQOl8shCsrW1jUhL78C3/64Ee99tELU6eJ10K7Pm8Hb/iqUKjx096wjrAWuarx2YwEsZI10/V1HWLOONO+c7IRD+wh1RklpDd54Zz4+/mYjtCT0vYUl8/49k8f3wTVXTnW/0/5sNRo5DuTXoKi4nsbi0b/lNrWStbRnXyW27y6D2cjE0gYrEVldXYsQ4p98sRLv/HcV9u8v87ilQgcaGq24/66ZQl53VhhE0IAyBAVFtSgli5Ddjl3B7WCrcfeeMqzfUoKmhkZYzFYiOh3N5wbs2FkoPD+fkGK+c1cxVDRGPDwGgaY6bse5OHPCQLq2BEFarb7tj7f/A5u2l9PETMCLT12JoUOy3F8//cB+WI6w4g3AWFjzpOdwP/Zjs0uvJxPkeIGrMX9EAvL1txcjKkZOAyIEl180HrfffBYN9BO3adivBa9ZvfDKPHzxv7WIiVDi32/eTsRyeFvX3sTpWFDSYHbgpusm446bZx0Rms+/Wb12L+5++D9icnsSmgzWNO3ONkSEkfYdEgJnK+dMBEEaRAzb5oKdxrnV7hShpp5OwYTC4/6eO87F5RefeRThfvTpIjz5tx8RSYKwK7ji7LWXj8W9d1zgV+Xnztix8yDOmv4i0rJ9V8pm9xEHJyjIumhrc/ddWyvNXbuIemq/r6NvjLVvdrBdev5o/N+Dl4pF8g7weup1t75HxNt41PNgcJ8GBUmQkBBOpJAjLAsuIVNPRL1idT72lzSj1Wykfnd5dXsxyosMWL3ysaOsBA5Y+ea7taJclIETyD0RK4ETL/k+WPjzOg9v/c2KA0hRc9L9c7FKT+3vAJMab7b3+ks3iy2Vu4Ll4PfzNwi3la92cH/wZdVKGaQcZOCO3Wp1OWmu2cRaia9+4ErWk8fl4Ik/X4a0VN6MjgiLY+YXLS0UA1uu0KBvzqkdRtwdmKU5qYkrvfKe2eznTYiPRASZpqcCoTB4Z8I7b5uJF565VGizTocdH364Es89/7/TqiClKPpJliAv/FXXm1BdqxWaZQC+wVolRyrecctskYTHwsUTeE5yspqFJrdea4BJp4dZp4OBXo1E6LyjJxOsB7krlCme27Nnj8WF5084oVZw7tA+eOrpOWKLWV9gi4yJz8hbOhiM4uAdMdvDeL1HGfF9cYWLB+698AhCYaSmxGLY4ASvglAQOBFXTU0zvvh2Ix556ms88uQ3+MdbS4TFZzPohUvOlyDlSr+P/2W2x5QL9n7w9upjRg8QYb3eni0TJj87m9UOk94Ao1YHs8EAi8kilA5fhMKERNIfD97DW6F7LpTLcnD2rDNw9vSRdD4mMM8N4f5gtyDvSGokC048AzrYauGu8tUPXBstOUGDG66bQv0ec2gcBh8kMzxIHgSVQoK+GeHChA7g+IP317j+mrPw1j9uQShpiiGkDH7x8zb86alPUVHZ4P7WqQ2e9IMHJAl3kVQahLKyar8WIAPgRFk5rrviTDx89yzoTXahEXoD93OHEOKD/83CgP7vEax9sqUxfdowOv950NC1TiQ4s/umG2fiijlDUKf1HRzAt8D3wvfU3X0x2JKUymR4/+07Pe45w9fmrRlcJqkQpp7A52+/JglNsvpCgnmHSz7a+9fX9SubLLji/KG4+YYZXteoNKoQUXC2b1IqjEYujeP+wAM6nm3n+/cFHie8L82fH7kE488YIO7XG9RkBT1812yMPGOgsOZ9t+Pwc+DX7trB7lFe63rongtFbmDndgSzb5ezLPmC3/+0DcMm/R9e+PsXotJuVXWzSFRiQRHQQHsf7IOfMXUoXn7hOtI4YhChkmHdhkLcfu+/UHCwSuSBnGpgLYrHA28YVkXaXl09WSfsZqExxP5o3jkvAP/AyXf33DkHr/3tOmjIkjaT1cqEcKzgn/Iuhbx/8OUXjsXfnroKarXnDaOONzjH7bknriViGYEWnVOMkWO9Nf4dE4SZtwNPj8aqhU+Kzei8gdcu//7yxfR9soSElu7+4BghXER06JqcuOf6yXie7ou3pfYFTnf48KNbMPqMvnDwc6F5481a8AfcBrYMFPIQvPzMFbjionFkfXoOM+4MbufbL16HC2eNaN8p91f2h1BY6DlERofi+aeuwJzZY44iYcmwEWc9tWtvpQgF4zUpl92BzTvK8dk3m/DJlyuxa9dBVNc2oUnLZikXhOP4cmJ11ph8mEYB+A+eBKzxF5Y0gkvtNzQZ8fPCraIkSnJiFPXzybMemUS42kJzixFlFY0isICLb771zk945sUfsHDpXuEDF/Xh2loxg8xtrhHW22Cl84MPl8Fis7LlLyZ5x8Gx+n2zk3DOVP8X6tesO4CDRQ0kf4OOOBfved4nIwazZ/m3UN9K9/zl16tR22AiFa1Lu6wujByWgTGjDi/UdwV3G++sOHlcP7H7YGOzCQ67UwgQBs9Xb24gugT1Rfu1OJNbSZpphDICTzw2F7fddG63QofDlpetyIeMFILO7e5oe+6QVLEIfKxuY17DnDh+IBISNMgrrBM7yXLILwum9lvybW3xM3c628Tir7RVgdv+OAmvvngzEVb3RMm5GsMGx2PxT3kIktH9iLDkjot5vy5d9lCf8npWED2gkBAFjYl4PP3ERbjqyilkIfk3vnnP/EvOH4vo8BBs31QLiZIX5J1kbbSXfmnvAmoLv3YB3z+PAP5uK31HIZFj+MBM/PXZK8gCHd4jmcAuwhlnD0d8rAo7NlWjTeqCiXePpQu390P3z4ETR7n/FHIFRgzJwgtPXEbP1nMSadAfb3upbdnqAsGAIVGRcDkccFotaON6OqQpc8dydI3RSoNWFoQp4/sInykLwsx0Xq+IELsuiuJr7pMGcGw4WFSJ1179Bas2HCCtwgnee/25x6/AeTOHn9AabFwmhLdaravTig2MysprsGtPMZauzofJ7KJJJSXTlyYbCWQeaHzwBOCp8v0X/4fsrIT2E/UiuLT6LTe9gSoiNyGJO6GVxug5U4bg7ttmCMHaHWpISXr//WVYuf4gTfQjFSO7xYVpEzPxxJ+vdr/jG0y6dz3wDvJKWkj4HXkup9GFqy8fg8sunditZtuB3XuL8NlXa7H9QC0cZhPMRgua9Vbw2ryYYDz72yWfWFxVaUKgUqshl6lw5cW5mHPuOOFa9QfffLsK//rXasgijiYfp8GFSy8ehmuvOcujm6mn4D7/ft5GLF9TQJaLEQ5SDqxmO7QGljN0M+5HyrenVEhFFJVSpYQ8RIVJ47Jw+cUTkJYW59Pd4wl83Y8+oWe9phh2lwVmEx0kUFm4dy0Rr1RK6NoyKGgMyeRyBBOZ9O8Th4vOHY6Rw/v6/Qw9gT0+y5Zvw7cLdqKWlIdWvn9S1swmh4hUa2VHED9aOsLpmcqpHSoOj5YrkZoSjesuHoNRI/qJ+mK/Bhw5uHDJFnz9wx6YbWZ6DhZYjDYY2QVL88i9Ti/Gl0IhIQLnMaZEELWjX3oMrrr4DIwemSPkvTcEzb7gsba8wgYoIyORdNXFcJktsNbVwVbXCBc/fKsZLoOe/m0Qg5lJxkz2HJuz6clhGDU8C1kZqeiTGY8+WbwwHiPMem/aVQC+wZnpr725ED8v2kJ97UBLsx333nYOrrt2EhITjgwJ7S3Q+GmvhFrdiKKSBhQU14pyGjt2FyP/YJOoo8T1hZRcf4jGQJBMBklEOGQqFaQaDex19bC3tKCi1oI1i5/EwJyk9hP3Mmpqm0mL95y4pqYxFxEZJvzk3YEjY7REmt7yalizi4/3f3c8jubjLG5PCA1TkuWm8Rxe6wMcXlpQWCHCanfkNZCi5yKN0UVCp43ukTT3oGCkp4Qhp2+csHRyBmR6DB31BR3Nb96QzxvkZF1xHldveiQ4ka68sh5FhdUoLmtAXlEzWjlYhZ4bPzpWVGJJo87pEyusz5x+aSLw5teA3U6NTTqRF1NUXCN2bG1osojrdkZ8nJLmWCjSUmORRnIsNbV9u4veBCshtUR0xaU1KC2tR0lFM+pqSM6yj4y7mRSTzBRqQ3IkKe1xyMhIEoE9vQ12rXNVj+KSWuqTOpSWaWEwOtFK+oVYUyH5Hh2toDZEYWD/ZHpNRLKfu+cGjZl0X5u2xYyQiEik3/oHBGtCBSGw9tBqMQlhYW9sgq2mAQ76t8Ogg71ZC5feQIM8SIR62i2tiI9RI2dgEtJTk0SeCCfGZWUk+mS0ADyDhd1HX6zGJ58ubXc7moNw4SWjcMPVkzBoQIb7W78eHHpdVlYr9vLfm1+Pyooq7NlfKfbh521kSVGhcc6UE0QkEgZFTAxptRHiUKQmIIQUEVlUNOoWLIR28xZU1lqxkkhlyIDk9gsE0CvgJ8BlWxw2JlQiFSJ1rjnVxWA7rcGWKDuCesiLAfQi2GBkt1/7Yr37zWNA0OCRd7RxaKIsnEjl7psRLO3kk3ZbGxxDza4wEb+t1QtysdcR0WibYK+ugaOeNDX2l9KgsNnbEBejEgUe42KiMXZ0qgif7JMVEDQ9Afsxf/5lM15/ewEKy5qFf3zC6GzccsNZGDvmcK2fnoJd9cVFlaK+1KatFURaLSgrrUV1rVFYIzypJfSsg5UKyJPiIScikUfHQhYXiZCoKKF8UGOEVskaYJBEgroff0ILk0qdBct+fhK5g5LF5wEEEMDvD0E5ubeJcABZeATS77gJwXIflkUHybAl43TCRZaMk0mGLBlzbS0slVWwllWhlT6zkY7rcrYhIV6DGCKXvkQy588eKorOhWp6fyH3t4qNmw/g1TfmY83mUpG13j87Abf8cSbOmprrl6unA+yi2bI1H4sW5aG6oRF1dNTXk4VKRMLKocTlgjRcA2VWOhTJqZDHRhOBhEEaGkoEo2pXLGicCHS8EgSpzPs5QCoBBBCAwBGkknbrHyBR9cB/6SYZsBVjt6HVaoW9xQBrVSX0e/fCUlgOkJnuCAoW0QoREWpkpMXhojnDSSgOQ0S474zbANqtgQP5FXjn34vxzddbEJ2oRGxsOO64eQbOP3e0z2gnk9mK3bsL8b8F27F1dzkcZjN0zWa0BfMjp2dO5B+sUSM0dwDUqWmQx8dDGqYhxUIh1k0OoROJdAWTTe0PC6Ddug2V9dYAqQQQwO8ckpiEUU+JfyjkCB0yEBI1kYoPIeIRRC5BUilptErISLtVJichbOhghI0YDolSitaWZrQaTLA4XGIPlGVrD+KXpTsRIm1DZnq8R8HIeyFziWguW8/+5BC57HcZwsxWYUx0GIYOTgeHr67bWETPx4nlawtEqOWAfkfWDOMnp9Vb8NU3vGfMN/jkm00oKa6GifqfC+UFOx2QhUgRMWIQYqZNQvyMsxHavx8USUlEKGGHSkb4DRorhn15sFXXQG924fqrp4iS+AFSCSCA3ycOkUpwSAg0JFxkJFh6TCpdQUKJSUZKWrA6uw+ixp4BZUYynI2NcNY3EzmQFm2y4rvFe7Fk6TYM7JcoIhxYgHI9qX+++T1uu/9D/POd5fj4f+vxL3qdt2ADiPeQnZUkShCczmjUmfHs858gMSEScbGH92PwBu4Xzv0YOSILKk6Q3HQQcuqCxb/sI+HtwpAh6SIknGta/fPN7/CHmz/A5h2FsJotCCIiauM6SkQ3oQP7IW7mNCReOBdhAwdBHhcvnnuQhE7WYXX2BPSbNoedSOUA7A2NRCrOAKkEEMDvHEETz3qwraHBSJaKAnEXzCJhM1gsyvcqSPiw752pylJejoZFy2ApLqX3guEkAisvN+HuW8fjgrkTcMd9/0ZtoxlhGhl71UTyjcS9eFDbbMOkUSn44J17RLz2tu0F+N93a7B0VQGKy/QIVUkxakQyZp41FOfNHif2N5Cd4ErE/oB3nxwz4UkkRofib3+7GOfOOsPvislsbXz+9Sq89e5CWIks6ppsuOqi4aiva8H8JYVIjFdATYwj1AJnK0LiohE5YTTCBg0iK7Td3djWW9UR6Lk6mhpRO38hzMUlYk1lzaKnMLD/8QkpDiCAAE59SIaNnP5UfaMJbdJgyGNjoEpP//WWiicIhmgVllD48FyoMtPaQ5OtVkSGSrBrfzU++nK9KDLH+6QkkDC88pJRmDNzGOJiQlFDRCMNakVNnR5r1u7Cho378een5qGspkloxTHRCqiUUhKyJqxaX4j3P1mJNqcd2ZkJ3e5FfaIRTlbHoP7xmPfTLqzdWkD324acvik+10c6wOQzPDeLLByN2O2Ss6YKCuvQ0GxCbKQCUiUdMrI6hw5A0sXnI3b6WVCmprVbI/wMevPZEqnYGxqgy8uH02iCxegUxeVi6XkFEEAAv09Ipkw7/yne3Uza1kqCRybWQk4EZJGRRC7DIA1VwlFTD4nTBpVCCqVchj9cNRl/f/5aTD5zKAYPysLUybmYPT1X1CIrr2hCi9aC0vImaEJDREZ/dGw00lNjEB0TCYlSKba8DEYrli7PQw2de9zYHGHZ8OJ0x17qoqzISQJnBWdwYlN6JFatyMfmHQfJOnSiT1YilCo5yeru29Y/J1XsJJlfVAednktb829akXDeDCTMmYXwYcPbgy7ouQoyOQ7gtRdTUREMe/ejzeFERIQCV152JqL83K41gAAC+O1BMvu8y5/atqtclD+WEKmo+2ZCojhxIb+sRbfBBcP+QvDO0ueeMwyP/d9lR2ntbG2MHZMtCi42NuugIPIZOSIHD989E/ffeS6uuvRMXHbhWFxy3kgM6JeA2kYjmrUG7NpdDaWiXUhv2lSCbXtKsT+/CnUNWqHlKxUhJ2WNhi0O3lwsLjYUWzaWYP2WAmj1JmFZcQaxP8SSlZmIflkx2LG7FHq9mTdZQOy5M0RSIod8E6O0f/F4weWEYfd+WApLxLPLzozG3NlnHLeNugIIIIBTH5Lrrr/lqcUrDpCQlqCNiEWREAtFfPzxcYF5AGu7zRs3wtbQBIMFeOe1G72WZVByhJpGgm/n7cRtf5yOJ/90MbL7JB9BQPxv3tVxxNA07Murgslkwt595Vi/cT8++XQ9Fq/ei8XLd9PfeWJto65Bh5ioULEQfqKtFyYzJpaoKBV2767EBiKWukYDsrPihbbvT3uSkmIQ1ObAqo2FvDc0gogfNTk5x806OQReT9Fpod29F/bGZpERPSI3HWdNyf3V9YkCCCCA0xeS++574Kn/fr0RYWoZ2ngXOY2GrBXed/nEkEqwVIrGZSvgMplhMLfhmccucX/iGRzlZCT2eexPl0HuowprRLgG0ZFKzFuyR1gkFXVkBWSFi5pCvEVnPQnvguIG7NlbioIDtchIi0ZcXLhwTZ1ICBLMjKX2KnFgXzU2by9CaXEjsrKikRAf5ZfFwvvF//vTtZwSBNhtiBo/rvcW472B+slaUQnttp1oczhgtbfi7KlDcMaoHFE761QCEx6XoOCDK/adRM/nCQXfL5dRMtm5Xl8r9UN7X8ioA/wYVr0GrrRroDYYbK302gojHVZne/VbUZTU/b0AfhsIKi2raes7/GFkpWqEIFJmZiDxwvMgi4w6IdYKh7SWvPEWLDX1aNC2oib/dfcnnsEVdNnVwzs7dgez2YqhYx5GYqIal1w0CYP6J4utWY1mG4pKGoX1smVbEfQ6G3JzM/Cvf9wkSs2fDBiNFvz0yza8+tovqKlrRv++KXjiibmYOH6I+xvewYUBh01+EpoQFxSxkejzwH1otR/nfU2cTjSt20AKwUoR2VfXYsWrz1+Ni+ee4VfAwfFCi4UUCKMT5QYnqkytMJFAY6HWARamXNsoTBqETLJ6+0WGIJFe29ekfj1YWFbQtSsNDjRaW9HCAp2kZ4fdKKfLRIUEI1oRjAS1BMlqKSKUkh5VR/AGvs2DLXZx/TKjC9oOIiH9ggU4l+DhyyhI+YiXByMrTIascCkSNL3v/q2lZ7C/2YFSaksTkwi1gcundzwK3kuIizor6dIJcgn6R0qpLTJEUl8EcHojqLlF13bOnCfRojO3FxIjSyB2+lREjj3j+Gu7BBZI1T98j+Ytu2GyAr9884DHbTqPFa+/+QPGjx+EQQPSjihuyXs7cOmST79cgR8XbBNRY08/egGuvnwaCcXen2T+gElw4aIdeObZ76E3mxCTGIm/PDQbc2aPc3/DM7ZsO4Brb3sfEjgRmTsAyZdddnyfHY0Te30dan5cAEtFtbDuWgx2/PfdOzB5wkC/rKveBAuqUr0DS8otKNS7oCchZiPhbqGD/u8R7QKNyIUEWr8wCaanKZEdITsm4c6X0BKBrKq0YFuTAy30b4ujDXZqmJ0EKQv0jmbw+dlS4GKdUvojlAgmURWMkTEhGB4nRzgJ+56Cr7G6woIVdXbo6Np87wY3oXiDnNoQHhIEFV2/X7gE56arkBr268d9XrMd3xdb0EDtMJJlou+mHQw59YNaFoRoIpQRUVJMTVEilgg3gNMTkscee+ypmtoGbN9VITbqauOsa5kMqvQUUa7jeIMFUDBptrr1WyFTylBU2oDZs8cIgusK1uYlUokozewvBhKZZGYkHLUYz9n5EREaDBiYjnWbilFL1kFhUTUuu2iC1w2VegK9wYSS0lpqb7BYC/IHYo0lMx4ZmdFY9Ms+2FwWrNp4EGp5G4YNZZfk0dDrTXj4ya/Q0tyCYIsdMdMnQxGfcHytTCIsY0EhtBu3IZiUAt7VbnBOAi6YcwZiY8LdXzoxaDS78EmeEd8UWXBQ50KThQR6JzJhA8TTwR/biXeZgKpMLmyqt8NG/x4YHSKsGX/B51lHZPLKLiO2NzrQQO1hVw+7mZhMGHy+jusymATpUmILCS0J3hq6/h7S6jfW2iCh55ZMloO/lhNbJi/vNGJltQ31dB4TndNGF+BLd1zT08Fy3kIN5OuXklWzi9rO21mkhUoF6fUUejrPxwcM+IYIpVTnFH/70w4+uD/4mTEZs1Kwm4hZQR+kUD/w5wGcXpA8/vjjT1ltLnz2/RaEq2RiBrhIS5YnxEMRF3d8hRODzh8SEwNzWTHsOgPq67XYvacIo0b0OaLw5IG8MvzhD//AkMHpSEiIFGTkD7rz76vJetG2NKGgoAp5B1vIUhmPqMhfn2excs0ePPzw51i/8QCGDcsQG5n5A44Ky8pMwNChSfj0o03QhAdj/eYSGA06DB2SKXJ4OrBj10Hccv9HKDxYKdwa8tgIJF144XG3UlwmIxpWrYVdq6VJHyQ2E5s6aSCmTh4idrs7EeBRWaZ34s+b9DjQ4hDaOgsnHhZ+Do1D3+Vz8e93tzixi8iFrRZ/8fk+Az46aBbWQcdU6en1GVw9msloGwl3Pc3HwURu3RHLxmor3t5nFKTE1+58Pn/R8X0mo91EbA1mJ7JCZVCTBeMvqgxOvLbLgK1MzNSPx9oOPvgZ6ohxtzQQydFN9Q2X9ZprMoATg2B2XQzsnw6Ve9c6Fta8OZdxfx6cel3PR8cxoM3pQuqNN4qNjFytrVixJg9jpz+FG299FU888xHOv+xZTL/oRazfVQN1qH/htj1Bv+wkqDQKSOXBojZZb2DiuIHIHdcXi9fn47Z7/4XSsjr3J92DiWXa1GGYN/8eFJcZud4z3v5gFQaMegRX3/Ai7rz3DQw782HMuOQVVJRVg74u+i7j7ruPv8uSJrq5pBymvfmHNp4yGhzI7pMmgiNOFAq1Dty5qhkmEsC9sR7BkNF5ComoHlnTLIimO3yXb8SnpJn33GHlGTys+Vzzy634Ms/Q/qYXFDTb8VmhGY1kmfUa6KZXVNnwzl4DKqkf/EE1Ecpbe43IJ2LvTXBO2RcFJvxUSoTdYfIFcFpAzIfwUDkuP384zLzFJkMmg37PfpiKSkh16MVB6wPs1sp+9EFoUuKhJusiTC3B+i0l+OLbLWIv8Rhqo0Imoeb0/gATSZGuVjGpTUar2PrTbLaJXdqOFWq1Es/+6QLMmT4CeQXNuPrGV7Env4ra7/85x44ZhL8+fi50JofYYjQ6XIoduyvFlqwuqx3xUUqEUL9p0lOQ/ch9RIrHf4HcZTSQlbIKULW79NhlMmxIPAbmxJ+wfB92WT26XgsVsUlv6zysFOeRQH1rp+6IBf6u4LWDz4hQQnk3zF6Gmu7rm1IrynWeBXsLEcnXdO1qo6vX3UMhdMJtjXYsKrdAZ/M9Vnkd6fNCE/KIUHqL2DuDXWBfFpixrd4mLJgATg8I9xevL1hI4/v+l53QKKTtE5UEKpdQUaYkt1cuPt4gwc7hxRG5QxEcphLhzVJqCO9TLVGEkAbO++Q7cO7Zg8V2n71prezaXYT1mwqIQF0oK63B9p0F2J9fDovVRYJSItZY/K3N1Rm8ljJmVAYO7K5GQXEd5v20AUMHpyE5Mdrv0OW0tHi89M9FiAwPEWtdirAwyOi8MqUSSiKT2GlnIu7s6e374BxvBYCeUeOatTDuOgCJm0DMViemTcnFuTNGnBDXF/ven9qghc7e7mbxBRZEHLKqkgYjiLqbF6fZzUS34fO3PO5qSGCmcXRW6NFEya6yN3YbxBqAN7AMVNC1lbJgqMgEYneSmv7Nrhz+jNvmqx3cBg4DHpt4ZJ+ynrOswoJ1NaT08Im6Ad9/CBGfgvqACYivydfu7v73ElH0ISWG13f4d13Ba0bLqR3LKmzdWnX8ew3dPwdGiFfuB2oXzyhexPfaFnrfQQ2uIJIfECVDhEISCD8+DXCIVDjRbtOm/dCTps7hfpyUaK9vRDAJClVaKv19gqIx6Dqq1DSEjxiG8FHDETEyF4rkeFiqatBmMUOjlmLC2IHHJOQ9weVy4cuv12PX3jKyVmgA1+ixt6AOm7aW4Ieft+HAvhKRGxMfH3ZMWyPzutDgwQnYvbcKFbUt+OmXrejTJ0HsP+1PKX+2zF57YyEiIkKg6NsHaX+4GmG5gxA9cRz10XDIeVH+BIDHAxcDrf7hp0OEwhaeJFiKC+aMI6uqX7dCvjewgjTonyusPheTWWiqSIBlhMswNlaGcQkhGBMXgj5hUhJq9DtqKJMTC2hvbebPqskiGBsvF9FJncGut/llVvEdb4hRSjA5MQRzM5SYlabEuelKTE9RYFRsCDI0EjHHmskS4HBfb23gsOBLstnd636DwKG6iyqtKDP4tlLCSHgPiZZhSqJcXHdSkgK59HcEvd9KP/RFiAwmCv7OSOq3Dtd4ZxSTFTWvxII66iNv7eBzRMmDxTnmcB+4+2IqtWUEPZd4RTCs9KVG+o+3W+GAHQ5JDqM29IsIrK+cDhCkwv/gMFqjyY7V6/Oh5LrqDIkEtpo6yBPixGL6CQOrU3RwuDHv7yFVqWAuLgUMOhwsrCNtPwXppMH3BgxGCz77fAPsTgcGDEpHdnYK0tJjkRithsNmQ1FpE5FtochUz8qIh1rdc208JiYC/XNisZ2Iq7HRgFVr9yM+LhzZWQndkuOq1buwYOkuaMIUCO/fF5qc/pBwVB6TPFsm3FfHGzSxXSYDqr/5Dk6ThYRI+8TmhMdRwzJx5SVjT0jUFy+Gv7nHKHJBvAliJpRIElZnkyC9YaAGZ5Cm34eEUToRTL8oIpd4BQZGymAlRmCB6Euoc/RSJJEQ/74zVpKGztFansCPI1oZjCv6qkmIqoSlE0aCVSGshSBqmwRZdL6h0SEib2O/1ulRKHObOMfm/EzlIVLjc29rsGEFkSp1gVckEKFd2lclCGlQTAiSyNqIU0mQQm0ZFifH8BgZWojQivTe16NYmFeZXRhOJJigcnsv3OCoteWVFhFx5o3c2YpKIkvvSuqHi6gd6WT1sKXBBMVWG5NuDj2P0UQ4Rvpyic77WiBbTiXU1pHxIaL/vDQ5gFMEh0lF+OODsXlLAcwWm7BceCBxtrStth6a7MwT4wbrCppJ7NoJpsFoLi6DlYTavrwKhGkUSEuLhUx62D3hcDixlywLo8kqSr34U+aklYSLUi3DWZMH4upLJuDC80bjnKmDMHxohiiVojWYUVLZhINFtQhVy5HT9/CmWCUlNcgvKEdKSpz42xcS4qPRJy0Km7YchN5gwdbtxZArQkRCpjdi4XP/+fmv4SJyCyFijZ40EbLw8N7fmsAXaBDwnim1ZKGYD5Yg2N1WFnAyIv1Z54zA2WcN6zXL0RfK9U78WGr1KVQ43+ECEsSzMlUiB6QreExzLkgmCVjO7q42tXp1I3HIsYt+MCpWLmrjdeDbYtLQSeB6Ap9qTIIcs0krZ5eTN7Bbilc0dzc6vJIkNQ8zUxUIpfYyTI5WrCFBziG3nkLuGazJX9lPhbPIIvCm1bNgHxwlI0HtFPfvjVjYfpAHtWEEWWudr8cJjd8VWmCkdnu8BHUCG+F3DgnFWLJKfE1DJswRRFxNZBUVEMF6a4uFujuUzjmYnoUf0zqAk4hDpMLPSa2Sob5ejy3b2eXTLiTY7eHSG0VtrlDSlIPIcjgh2nEXiCKJrS7Yy6vQ0GTA3v2l2LOvBg67mUjQQhZMFb6btxnvvrcc0UQGAwekkKHVvaDjxeWcfsmiQnBoqEpYbLwWEh8XidwhGUiMj0AFkUpxaQMaGrQYkJOM1JRY8dt5C9bh1TeWQKs1iJ0Zu1uoTiXyySQi3LDpABGLldpfAV7o7pcdD0WnXBYLkfripdvw0r8WYX9eldgfJXRwf0SOHtUuFU8ogtCwdBm0m3eIfKIO2EjFz+6ThD9eNwXJSSfGil1TaRVhr97A2vukJBLomWphHfgCC9Y40pYPkmDlCCpP3cqjnAVYNmnZsaTpM3hN5udyC5pJCHb9CVM9E9kUasMA0sK7Ay+E72u0e10fEqSSphAaPqPS6MTKSpsQwN4Ea1aYFNf113TrJmJSS9ZIsLSKFEj3e13BAr6W+mY2WVwdFgkHL+yhNi+hdlAXeoSVvnMxkfoM+p0/4HtPD5XgQHN7X3gCt6WaiPw8Uhi8EWoApwYOkQpDLg+hwdqGvIKK9gx790DizbTsTU2w1jYgbOiQ9kXmE00sRBCKhDhIQ9WwFZfCqDUhv7iWyKUMqzcUCJfSZrIC8osbMGpkFkbkZv7qaCTWvpOTowXB7tlTjNJqLdJSYzB0UJo4N0d4ffPdOqzfehBl5U2YOLZftyVKMjPikZ4ai9Vr9sJstWHPgUrs2FOGupp6VFXVY8WqXXj7Pyvwy+JtKCyugyaoFepB/RA3YzqClTRJT2S/0+RtWrsOzes3CwHaMZe5CVzd+dyZw3HujFEnxEphfFVkQb0XC4ERSUQykyyEvpGyowS+JzAB1JucpHm7vForbBRyxju7ajqQRMJ4DGnvE4g8uh4T6RhI3+VFaV8QeTEknFfX2AV5eQKTyux05SFS4eTOJRVWsc7m6QYd9PbV2Spk0/37Aw4caCYT4KCuPSjGE/TE1BcQQbDrjsG5NKuJ3PP5N16Iiy2c/xsZDnk3fdAZHTXANtbbvbaFS97wGhdn3gdw6uIIUuGIqri4CFTX6bF9VzFkncx3tlisTc0IaqqHcsBAvyZtb4O3KFYkJoiCl0GyINiqa2EmctE2GWGgV87flRABREcpMGJoFsK8VDvuCVhghmoUKKtowP78GsRE0rlzs9oLVkaFYcyYHHz7/XrkF9Zg195qTBib3e26S2pyDORKGX5auo8mK1BV3UTkWIH1m4uwbWcJEVQ9TGSthNjtiJw0FvEzzyEy7YVtnnsAXs/Sbt6MhjUb0Ebk11l+2G0upMUn4OEH5iA6mtp1gvA/IhWj42gLgcFWSk6EVCxIR3RjpXSAZRcHG+xpdorkv66yjP/m6CQuGTIqrt2S5PfiSahxtjdHRnU++L0Esmh8EQo/wTqjC4vKzPih1CrKuXS9bge6kkqh3oHVZFl4i++gr+Pe3LAjXHW+wGtj3NZlRBLe1kaYqCYmHhbkHEb8C7Vb76XdPETHx4dgag8SSBkd63RsiXnrD34WKcpgDIj+9RUvAjh+OGp4qpRyzJmRi/4D0mDsyFtxg5PdmvYdRM0PP7jfOQlgiyU1GfGzZqLfg3ch7frLkXL5HKRedSHChw6Cgiyteb/sxfyF28Q++J5gNFl6lOQYGxuOpOQEsd9VZUU9dERgHRgyMBUfv3c3LFYHNm7Yj3vu/ljUFPMFdrGNH9MfYTRR2ZTnDdIsdE5Dow6WFiOkTgfC+/dB+u03In7G2ZCoNSecUPR796B59XpQJx5BKLy9c1iEEldcOQqpqd2vJfUWWLPnrae9yBvRPXEk/HmRvCfIjgwRaxbeepftIqOzVSxO9wRMUiU6B3bU2rCw2IR/79bhqY1a/GFZEx7a0CLKmfCajjcB2hW8qM+lT1q9tJSNlzSyqJScwekn+LnGKoIRR4ev4cUZ/h3g4phlZN154SBYqCG5Mf5ZSp3BpwslyykjVOK1LRyizetJAZza8DgDhwzOxAUzhiImXCGESAd4AgTR3y0796P6hx9peLeHHp8MBEllYvfIsCFDEDl6DMJHjETUmeOgSktBGCmVTz//A55/8SsYDGb3L9pRQwL/gQffw0MPfYjGJp37Xd8Q+7iolIJU9Hqr2Bu+AzwZeHvfj96+DY16G7bsLsB9935C1obvDHruN4PFiVanC6qsTKTdfA0y77gR2Q/dif7PPY7Uq68S7/N9nmhCMRzYj4ZflsKh09MzP1J6cFMy0uJx1RVT/QqE6C1wD3TXDRxGLPcjTLsz+Dc+1tMFWKZ2l9XNn++st+FfO3W4YWkjrlzciHvWtuCJrTq8ud+ERZV27Gt2wEJEYueFeffv/AVbYt0RWxpZSj0Fu53Y8vIFJqwOuOhJmLgxXsDfTQ3rOakw2CBLJEuPo+48gfvsgMF3HwRw8uFxOrEgufzSyRiQkw0rmbudJzPLGCkNLMPOfWj8/ju4uMS6v+rWcQBHQonD5YIiOQXR086EPCYK8bFyfPH9ZiQPvBf3PPAm3nr3RzzxzH8xfe4z+HlVHuwkELVao/ssvmG12mG0WHkrDoSFKaHosm7Ca0xnjh+ID/55I2ymVmzeUYDH//INiktq2v3fXcAL+x99vBCh7PuSSCFLTISmX3+oMrMgT0wCZCfJvKd+1G7fjtrvF8ChJULpojBwUAHa5Hjhqcvb19VOMbALpzuC8AQNaci+kmk57NjOK/RdwDzD2f3vkRVy5cJG/HmTDgsrbTDa20DKP5TUHiUJbc78Z/79NdOEF8itHtrQAbYgWMvvKbjP4snC8SbIO4PlAEeqdQfOkTkW8BoNbwngDdyHui7ekwBOPXh9gpwd/fB9M5DRN1Fkz3ZGx+Ro3LUfNf/7Do6mxvY3TjKYWEL7D0DCJedDkUoWS4QamUlqLF6eh7//cyE+/99mYWlFhIagqUmLopI6L86EI1HfoEVlZY3IAk5Pj0Okhz3YeeH+7Om5ePIvF0Aul2Pl2n145vnvsHN3kbCItFwsk86Tf7AGz7zwBf7z1WYoafKp01MRPWb4IWIUtbu6U8mPA1oddjRv2YranxbBQQTKwRmdwU1iF8yjD56NPlnJ7nd/GwiTtkES1LM+5+TJ1ZUWYZHML7cJMtOQ1cMuGn/Joyccw1PwZNfAYkrrqRswgN8ffKoUAwdk4M7rJyMyQnWEG4zBE4f0Oxj25aF23kJYKiqEpnuywUKZ971Pu/YKJMyeDlV6OsKTExGfmYyo5ASoEhMgVSlRWNqEn5fvQ1Oz78J9bKVs3JKPLVsPQkICIyUlAeHhngMAeIH+kkvG4vo/TIA6IgQrNh3A3Y/8B089/yle+ef3+PMTH2HKnGcxf/FuJEcqoEhJRsxZZyIkJvakEIkAPUinToumFWtQ/8sStNk950AYLA7MOmswrrpiuvud3w5cZIL66n7WkDtvt8CL64tKzSIRk+t0sTXiC0wIzAd8sDbOWebpYVKRnxFJioW/j57bcTzAp/Xn3PyVHnoXA/gdotshcv6c8bjiwnHCr9x18AtikUphLixC3fyfodu9G602W/sHJxPU0CC5AuHDRiLtj9ch9aZrkXLNpUj5w5VIu5HLnAwmQQBs3rgXX3y5Eg1kSXia11abHSvW7MHHX66BzmCDSi7B/rxK/LR4u8iT4R0XO/cJl3wxmx3QqOQIU4cgTCWFttGIJUv346v/bcK69QcRp5EgNDEGoUOHIGHuTOHyEtbJiYb7GXHplToik6aVa0hosJvm6Gdn0DsweGAmnn3iGvc7vy1oiSR8qUMyGitcP6sDa6utYqHdF5cwkXCcGoc5ZxCBcO2qMxJDMCtVjuty1HgoNxQX9lEh1M+Fdb6Wr2RK/txXAUxv4PHLc1vmx5zlr3gq2dIVFh9uOl/wxxo7HgU8A+hdHBFS7A1DB2egqk6PrRuLoVIfvRjIrhKn0QRzeQUcVisUURGQcva9vyrYcQNdnwkmRC5yPIIVSgRJQyClfzuqa6Cvb0ZBcY2o98XxP5xuwcRgNFpRUFiBH+ZtxmffrCUiqRGlJThvp6SsAWs25KGwsBr7DtZhb14VSoqrsWtPKZasPoD5C7dg2YpdMOgskEdFQpPTF+rkeKgTYqFOSSISyUDk2BGInjihPUz4JFh3vBjfZrfBtH07GpavJKWgVOz46Umu6I0ODMxOwZuvXY84P7ZwPl5gWbOw3CrcTp7AAqlvpFRkinsiRm/g83LuB2/u5eln/HQyiRTGJciFlcF5HR/mmbzWzuIhzyG9XNplVFyICHGemkJHskLs05IbKxc7LHJhRU5i3FbvO/mxI6SY748z4Hc1OTzmcbB1mawOxqiEnpUR4jWhhaUWryHC7O3iZE4uN8Mf814nyyuODDHvDG7zaLLAuCRMT8Hh4hwyzQmXngib+6BPqATTqU8COHURZLFY6FF1D15cfvqZ/+Gb7zYhJsHzQ+1wkakzMhAxZhhCBw5qV29OOrl0ARGHqagIjctWw1hVLfzE2RkxSE2NFVWRXU4XmhtbsO9AlSAZVZiGLIv2e7EWFsJa3yQWLIWAo/e4LD/nO3D0FyuTaiInRUwUoiZPQNgQ+h2hzeVEsIwEN1ckEG+chD6htop8o6pKtGzYCvO+fXDYHYJkPEFLVteA7EQ8/eeLMXpkDv3ciyQ5AWAN9t41LUKoewLnMExJDiErQNOjfc75fC9s14vdCj0JSn7E01LkuGNImPj8lxIzviw0eyU3LjtyRrwMM9NVYhdFUY7FC7h8/ju7jaLGlqeu5TIo/5oUKQpjMvktrbDgX3sMotpyV7DAzQyT4aWJPSN+ztJ/aG2L+L0nmOjCT44Mwxh3tWTe//6vW3Ro9FIWn0nlonSyxgb3PH+pnM795CatCMf2BA4mmEXP4rbcE7u7aAA9g98e0oiIUPz5zxfi4gtGoaHG4n73SLCGyIeZBHbNwmWo+X6e8Ndz0uIpBRKi6j59EDfnXESNHYmIMCWqy+qxdtVe/LxwGxYt3Ym9u0ohaWtFeN8sxM+egdhpk8WRcMFcxM86B9HDByE2KRIR0jbYDWZRaJELGcakxyN68njEXzAH4blDhHXEh0QderjEzUkgFGGd8GL8hg2onfczdDt2wuEk7dwLoRitTvTrE4dH7puD4bnZJ5VQ/AHL7gpDqyjl0RNwaRADCUhvmjevl3AuR8fnB3QOn9YSr5Vc1Ect9rv3RSgMJkKO2vIHfKpwsm40Xlxg3D7OH+kaVOML/FXetdFXiHBXcH+kaCSi7Z5ATcSyGrv7L//BbeF6ao1eLEAGe9Vy/KwWEMDJg1/urw5wRNiQIWkwGUzYuLEU6lDPD5i1YV5bcdQ3wHSwmP5tFSVWuOLwKWO1UBtlYaFQpSRD0zcbyqR4KOMioY6PQnhmKiKGDETkGaMQdcZoKFNTESSTCXKURkRAkZRI1lgaQgf0R9jgIQgdPhThI4cjctQIhI/IRWhOP8hjY70K7BMKJgM62DKr/3kJ9Lv2wKHViWfkjSeYUPoSoTx891xMHD+w29IzJwIse325v/he2DWTqpGK+lcdJYZ8gYXUgjIL8ls8h6myoOPik5NJS2eXFVu0y6psolSMp77jRezhMSGYnKz02redwYUZl1VYvRIaa/2XEEGxq4zB1nGh1ikEr6ffWIlPszTBfueJWKlTv8w3+yxf39n9xWClkft5e4NduAM9gcupDI+WicrI/sJM9/ZDoQlVJh9tof64Y2hYtyVwAji58NtS6UByUjTuv38ubrz+TNRXe7ZYGB1+bVtjI+qXr0X5R5/BWFBwSMidKpCo1FCkpSJyzGjEn3M2ks6bjcQZZyN6wjhBGkwiR7SXSZHIQhIahpD4BCizMhDatw802VlQZqYjJJbIk0vTn2xQm5k4HC3NqP1xPqq++h7GomK0Edn7sjp0Zgf69InH/917PiZNGHTEnvinOvjRLCUhzVsC+4MN1Vbsa/SdoR1BVkpmeLtA5QVoX5YAa/G8R4g/w5vJkTef4k2ovILO07nScqxSgowwideseq5Ow6Vf/EVekx1bGu0e1y+8get5pRBpyX0EDWjohG/s9S8HjMF3U0wW4No6723hbhpKVkoo74cTwCmNHpMKC6SkxCg8cP8c3HHH2ahvsPo0Pvj7wa1O2KprUPXfL1H56RewN9S3a/H+zL4TBWqPWNDnxXwmBXbZkVD2eXPis06f89++vn+C0O7qcqBxxUqUvvlv6Lfv4tjodg3QR5/zonz/Pkl49tFLcOaEwaeEhdIT8K2VG5349IARNfTqC/tJoPImU/U+3C3cU/HKYCS4g1O6e7xsWei8+YW6oM7kElZKiI/nwcK5c9kVrrycShaDt0gtfrfK6MJX3exvz2gka+u57foeEQqDv56plmBigozu13NncPN4reqlbf5VrOBaaH/bxsEy3sHlX+ZmBSoUnw7okfurA0wUvAviiOGZUJGJu2FroRhIPqNu2r8gdpNs2rAF9pYmqJISEKwMRHL0GriPnS7otm5G3SefQ5dXKKSAsEx8PBoOMjAanBjSNx3/fPVaDBmUdUJLsPiD7txfHWChw+sqm2ttSCBCiKHxyaHS/Cs++Pcba6z48IBJ7KzoTeFm8mC30wWZ7PpqJ1duw0bSphtIYHoa6swnGrJUxsS1R4p5Arehidr3xi4DiqjPvRVyZHl9Xqocw+LdgR0E/iYnWNZYWgV5ePop70bJG3/pqY0Z1G6ORONrdhwuurGNVVY8sF4rCM3TfXRGV/cXg8OKOQx5e73vtZMaIk7eIXIAWRidy+ccbguwqdqCBzdoBaF4aws/iySy0q7op+lRbbMATg78jv7yBh4Y389bj7fe/QV19QYxiLsbqIw2hxO873z4mFxEjBsPRUy0WLdo//BXNen3A+5okYnvgMtohnb3bjQvX4NWu5OsLt6tr/sHwbkNwUHBmDhhAJ59/DJER52akTXdRX91BQ8h1m5VMgmGhAeLfBFec+C913kbXwVL5G66h3dNfHL0kf3xt+06bK21exToDDUJfQ4DPpsOLhfP3+O2sNuMBTEHBny034g6spA4+94beE+SNydGIc3teuuMH4vN+Oqg2WdeChMclxVKIVLN1EhIqAMGYojtTQ6xfsHt9Addo786wJbO5wVGrKr27T7jdSvmk4ERUgyKlCKKyIGbzZbaijoH6s1OUcbGF9j2uz83FGe4w7oDOLXxq0mlA5u3HsDL/1yEffnlpHW0+rVQymByabU5oB4+EFHDhkGeGA+JWoXgEBrELBQDBHMkOojC6YTLYha7cuoK8mHYvJPIxOE3mXC3Wi1ORCVE4OoLx+DWW8/zqjWfCugpqXTA0/Dxo3uEq+lPw8OO2pvk63wj5pVZRdVkb+BrcsLj2PgQsdDPC+wVBgd2NzlRScKYCc1XG9gYGxEjw+NjPIcH8+ZeH1M7eBdIofL7QNf79+feO8MbqTB2Ndjw8QGzcDl2d14mua7rRxwa3Q2fCKV1eoocV+VoRF8GcOqj10iFUVnVgNffX4b16/agtsEAjXv3SH/AxQqDbHaEJMVC0z+nvbhibBSkGg1ZMO4Ci54kxO8BHTOWrBKXyQh7Uwus1dUwHCyEpagMLrL4JKSR+ysvuDhiiDQY6fHJeOT/zsGE8UPdn5y68IdUuHQ6+/m7y8ruDtzdF2UqcTkJsq6o1Dvx0k49qo2eXWAdYA29qxDtjkwYrMUnqCV4bGQ4EsnC8IaDZHH9N8+EfC0pEu73jgUs1LnftLwg5AG+SIW7eUm5BV8XmkVYdnf31lNw9w2MkuGPAzVII5IO4PTAMa2peANvijV10mDERCrRrLehpLxBDDR/rBZejwmSSUn7tsJaXAZjXgGs9fVwtmjRauUoszZIQuSHc156ewSfauD+cIcku4wGWKtqYDiQB92OXWjesAnG3fvhaGkPDZZIuApb9xBrJ3oH0jNiMPfcUXjmyUuRk5Pu/vTUBgswn2sq1F9nuC2DWrIGjhUs1GelK3BlTqhHFxdbMBZSu/O1ZGF7aQqDf8uWX+ejuyHL98jb6v6hvxpZEVwZwP2BB/CmWVHyIDRYWkWIsT/P3xPGJ4Qgmu6Jd7/0dD1Payod4O9zCDevS/HvbfRsemNaMpnwebi0zRX9qC/CZb1y3gBODHqVVBg80PrnpGL0sAwiAQUMWh3KK/WQ08D1xy3D3xHRSzRjHc3NMJeUwlRWAWtNLQnWWjgNOhp1pJkr5AgOYQuGzsnnPd0HnbgH6iMiCC6h4tTrRJFO3dad0O/dB+3uPTDs2gNbbR1aHU4Ec7SaH4KKwZPUZHeKmmRTJw7BTTdMw1WXT4JGffoESXRLKoSxCXJMSJSjxtQqhK0/fdMBds/wOgPvgX41EYqPiFmxAM5rJEwsorjxrxx7fG9cUmt4bAguy1aJtRx/1g44Ko0TEe1kqbJQ503M/IqOouvZ6bsz05WYk6ES1k4RWWCerumLVBj8Gy5jw0UytWStNLgJrid93xlM1LwWNT4xBJf0VaNvN+QawKmHXnV/dYWDBvumTfvxy+I9WLR8Oxq1FoQre651cPkXLlnPoS1BGhXkERGibpY0OgLKlETIY2LEIUKBGfxdfjkFqiZ7A1sYAvTaZrcLEuGcHieRp7maLDSzGXaDHo66xnaioe/5jK7zAn4GTmcrcnMzccHskZg+OVfsZOkPwZ9K8Mf9dVlfFS7JViOvxYElZWasqbGLBW+5+1673jIPE+YoFlpcp2scae0TkhTCqugORnsrVtfY8HOxGeVkGfHTDPFT+vF1eYSyYOcM+YGRUuQSoYyKlSNeLemxEG2g62+qt2N9tVUEInBbPIUdM0Fwjksfsi6mpSkwJVkBJ/XrW7sNYgHf09q9L/dXVxTQtbc32LCt1o58Ayk+9B63w9dQc09V2OgfvGA/ivqB+2IYEWtsD5InAzh1cFxJhcEul5YWAzZvL8KChVuwfNV+2B0uqOWkafsabV7A52uflXRIpQhWqyDj/BKlErKocMiTEiCPixUkIw0l4cm5Fp2qAIubPVFkIyZUp3t0u7OcLc2wt2hhb26CpaoGtrpmwGKGgyyUNpP5cKVn8Vv/rJGu4DUqrcmOzPRYXHfZBJHIyHvBnE7JjJ3RE1JhcNhumcmF/Y027CGBWWLkWm2HfysjkuYclIGREgwlYZ4TLhPbEfdEoLOFcZC1fJ0DO0mos+XS4mVtogN8/mSlBNnhUlHSJYNeE+hvFqDdlXXxBW4Ll1yppHsubLGjRMclT1zQudN1YkPIooiQYEBUiHBZccFLvhxHYT23WSuKOHoaZ0wqfz0jXPSRP+CqAzVmaofRhYJmO722opja5W3NhpNF+1Lfp4by3vNyJFE/8JbQgSiv0xfHnVQ64OQijUQuu/eW4ZMvV2LV+oMIIZtfyQvMv2L8MMlwJD5zDIJJaJPQlJDwDpZwFFQwZAlkxSSSMI2JgiwiElKVChK1WmTSd6zP9MrGWHQTHWsgYsMtqwUOgwEusjgcOh3sTc3CnWctqxGJiW2tLrjolQtWBnVc/1eQSAc4D0FntCM8QoN7bzkLkybmIiUxAipV95rmqYyekkoHTI5WGGxtQjiyls7uFRbAbFXISZXmRWrOWu+URtFjcCQY7x/PBSB5P3uTvU24x3hTsw4o6TpqEuwcRswL9uxq4/fY1dOb4pOHEd8zhw237+vf/j4n5qvJKuJq251de1zE8T7qV09WCoP77YOp0cKC6gm4n9ma48g3rm/GQQscvNC5PcwbbEVyXyhk9Mo+wABOe5wwUukARyoZjRbs2luMD/67FAtXH0Q4aSfKkN6J7uCbEa4yN9po0LYGScSrTLxPI5lHPJGZNDIU0jA6wjWQhYYR0SjaS6zQV6Tq0PYTeIHLahZk1Gq3i+ACQR7NWrgMRrJEDGi1cGIYXYfOxcTnohnE5fWDulpJv4ZBOsFJ523W2RERJsdDd8/EeeeOQ3ioCnL56WmZdMWxkoonuEfBcQGfm4dZ+yv/tx1ssbIQPV7XPRZwnsviMjPe3mfyutEYk8rXM2JJ4PdOyzt65FTqhwB6FyecVDqDJ11efjn++9kSvPHqOsT3UUGj7Nl+GL8GPOdZs++Y/IJrnP7VjeoMh5TdJu0WBi+Unqj1Cm631e5CbaMNuQOi8fgjF2P6tJGiHafbmkl36E1SOV3BWj8nHfraT57XMDwlTHqCniyqm1e2oNXpOTyap8XgSCn+NCZClPQPIAB/cFJJpTNatAb8OH8d3v5gJWpbrAiTBwk3EpcLOVEkc6qDJzlRoND2nK1BRChBmHNOf1x35SQMG9oXUt5l7DeKAKm0Jz3+O8+IH0otCGOzxwM0ZFFcS/0wM1PlM+CACerd3XosqbZ5zWhnt9XdgzWYnq7qNkkxgAA6cMqQSgfsdge27yjAt/O3YOX6YjIl7LDZ7HCQNsX5Lu2WgPvLvwNw5BsvujOTKJUhkEhCkJ4ai4vn5pJVMgLR0b+PDYsCpNKOFVVWfLDfBKvDe8g0l0q6JFOBM1OUIm+nM7nwOgvvcvlDsRE/lXsnFFZgOEDx9UlRiA9EYQXQA5xypNIZzS16bNt+ED8t24v9hXVwmM0w6kzQ6a2QSIlgaEJIOLfjN0QyHSTiIE1SLgtGZKQaKrUaEWFhOGdqNiZOHIKszOQjFlt/DwiQSjs4qu2jfCPW1/guE8+LFry18vjE9jBlXhIhQwe1Jhd+KjGj1Ojyuo7CsFB/X5jRXlWgt9ZTAvh94JQmlc5g99iBvDIimRJs310Ns80CbYsW9XUG6Aw2SGngS5lkJMHCmjkdIBbw6eBcAYe9VUTDxcVqEBUVDnVoKFITwzB+dBYGDc5EalqCX/kTv1V0RyrcNVf2U+P8LJX7nd8uVlRa8Fm+WbjDfA11jrTixXiubMwbW/Fe+FzGhiPffA0lNozZOnlgeGh7Nrv7/QAC8AenDal0htliQ319C0pKa3GgoAYl5TroDToiGQPq6ppRXWMQpTRCiGjYZcZ1rnhtRvzvJMwQtj6EBcLkQYfN2Ypgko0xUQqkpUQhgkgkVKNBQlw4+veLQ5/MeGSkxyMsLPR35erzBV+kwkIwkbTx6/urMapTqfjfKgykgPzvoAmLK23trlE/wNaLP2OJT8cEdE2OSuxgySHPAQTQE5yWpNIZ3HirzYHmJh2amvSoqmkhUtGjvpksGJ0eWq0eLfTv+gYdamrZqnGCg/KDyarhZDPOT+iI2OJJJ+qUueeRCANt/+ch8PWYIMS/+YWODtJopRnJk5KjhjlPwUXExi6s+BgVEuPDERGpQWxsJFShGsREhCM+VkmkEonYmHCyTsIQGqoiayvgv/YEb6TC/c2+/3NSFLicLJXOOyX+llFN4/gLIpZNdT3fD94bRF/S2D83TYEL+qjFrpcBBNBTnPak4g1Wqx1GkwUmOgwGC1kyFrTorPS3A1q9kT4zw0yfcRCAyWiBxWqDwWiFw+Gk3zpgsdhhp3+zddEZTDoymQRyuRQqhRyyEAkUihCo1XLI6e+wUDU0ahVUGiVUKpWotxURJkNEuErs8R8RoYaSvqfSBCJqegImletWNMNodaGDdjnrOkMjwcREOcYlKnxW9f0topKI5Ydik9jThJUbfywRb2BCYSWLy8zPzVIhRhlQbgI4NvxmScUbeB3DbncK8nDyniSuVvq3C06XS7y2kpnhpPf4/VYSZB1WSQfYemFiYUuHrQp2q3EorzjI7GHCkUql9CqFlA5/KwgH4Bss9A5oHWINqqM/uWdDyepkAaj6nS4ms+W2qc6Gj/NMIqPfn/L6XcF6E29idn6GApPcEWMBBHCs+N2RSgAB/NbAYcIttlasr7Li5zILqt377vNyCCdDEs8cAdaTeNLzzpi8iH9BuhKTU5Wi5lYgyTGAXwfg/wE/vy20WkvcYgAAAABJRU5ErkJggg==;" vertex="1" parent="1">
          <mxGeometry x="2130" y="1460" width="198.53" height="50" as="geometry" />
        </mxCell>
        <mxCell id="ezgKTgP5tMkvbKeKi-sx-83" value="" style="rounded=1;whiteSpace=wrap;html=1;arcSize=5;fillColor=#fff2cc;strokeWidth=1;strokeColor=#d6b656;" vertex="1" parent="1">
          <mxGeometry x="1100" y="1130" width="440" height="380" as="geometry" />
        </mxCell>
        <mxCell id="ezgKTgP5tMkvbKeKi-sx-84" value="" style="rounded=1;whiteSpace=wrap;html=1;arcSize=5;fillColor=#e1d5e7;strokeWidth=1;strokeColor=#9673a6;" vertex="1" parent="1">
          <mxGeometry x="1165" y="1150" width="320" height="50" as="geometry" />
        </mxCell>
        <mxCell id="ezgKTgP5tMkvbKeKi-sx-85" value="" style="rounded=1;whiteSpace=wrap;html=1;arcSize=5;fillColor=#e1d5e7;strokeWidth=1;strokeColor=#9673a6;" vertex="1" parent="1">
          <mxGeometry x="1159" y="1156" width="320" height="50" as="geometry" />
        </mxCell>
        <mxCell id="ezgKTgP5tMkvbKeKi-sx-86" value="&lt;b&gt;Cliente&lt;/b&gt;" style="text;html=1;align=center;verticalAlign=middle;whiteSpace=wrap;rounded=0;fontFamily=Open Sans;fontSource=https%3A%2F%2Ffonts.googleapis.com%2Fcss%3Ffamily%3DOpen%2BSans;fontStyle=0" vertex="1" parent="1">
          <mxGeometry x="1265" y="1166" width="110" height="30" as="geometry" />
        </mxCell>
        <mxCell id="ezgKTgP5tMkvbKeKi-sx-87" value="" style="rounded=1;whiteSpace=wrap;html=1;arcSize=5;fillColor=#e1d5e7;strokeWidth=1;strokeColor=#9673a6;" vertex="1" parent="1">
          <mxGeometry x="1165" y="1220" width="320" height="50" as="geometry" />
        </mxCell>
        <mxCell id="ezgKTgP5tMkvbKeKi-sx-88" value="" style="rounded=1;whiteSpace=wrap;html=1;arcSize=5;fillColor=#e1d5e7;strokeWidth=1;strokeColor=#9673a6;" vertex="1" parent="1">
          <mxGeometry x="1159" y="1226" width="320" height="50" as="geometry" />
        </mxCell>
        <mxCell id="ezgKTgP5tMkvbKeKi-sx-89" value="&lt;b&gt;Produto&lt;/b&gt;" style="text;html=1;align=center;verticalAlign=middle;whiteSpace=wrap;rounded=0;fontFamily=Open Sans;fontSource=https%3A%2F%2Ffonts.googleapis.com%2Fcss%3Ffamily%3DOpen%2BSans;fontStyle=0" vertex="1" parent="1">
          <mxGeometry x="1265" y="1236" width="110" height="30" as="geometry" />
        </mxCell>
        <mxCell id="ezgKTgP5tMkvbKeKi-sx-90" value="" style="rounded=1;whiteSpace=wrap;html=1;arcSize=5;fillColor=#e1d5e7;strokeWidth=1;strokeColor=#9673a6;" vertex="1" parent="1">
          <mxGeometry x="1165" y="1292" width="320" height="50" as="geometry" />
        </mxCell>
        <mxCell id="ezgKTgP5tMkvbKeKi-sx-91" value="" style="rounded=1;whiteSpace=wrap;html=1;arcSize=5;fillColor=#e1d5e7;strokeWidth=1;strokeColor=#9673a6;" vertex="1" parent="1">
          <mxGeometry x="1159" y="1298" width="320" height="50" as="geometry" />
        </mxCell>
        <mxCell id="ezgKTgP5tMkvbKeKi-sx-92" value="&lt;b&gt;Pedido&lt;/b&gt;" style="text;html=1;align=center;verticalAlign=middle;whiteSpace=wrap;rounded=0;fontFamily=Open Sans;fontSource=https%3A%2F%2Ffonts.googleapis.com%2Fcss%3Ffamily%3DOpen%2BSans;fontStyle=0" vertex="1" parent="1">
          <mxGeometry x="1265" y="1308" width="105" height="28.64" as="geometry" />
        </mxCell>
        <mxCell id="ezgKTgP5tMkvbKeKi-sx-93" value="" style="rounded=1;whiteSpace=wrap;html=1;arcSize=5;fillColor=#e1d5e7;strokeWidth=1;strokeColor=#9673a6;" vertex="1" parent="1">
          <mxGeometry x="1165" y="1364" width="320" height="50" as="geometry" />
        </mxCell>
        <mxCell id="ezgKTgP5tMkvbKeKi-sx-94" value="" style="rounded=1;whiteSpace=wrap;html=1;arcSize=5;fillColor=#e1d5e7;strokeWidth=1;strokeColor=#9673a6;" vertex="1" parent="1">
          <mxGeometry x="1159" y="1370" width="320" height="50" as="geometry" />
        </mxCell>
        <mxCell id="ezgKTgP5tMkvbKeKi-sx-95" value="&lt;b&gt;Pagamento&lt;/b&gt;" style="text;html=1;align=center;verticalAlign=middle;whiteSpace=wrap;rounded=0;fontFamily=Open Sans;fontSource=https%3A%2F%2Ffonts.googleapis.com%2Fcss%3Ffamily%3DOpen%2BSans;fontStyle=0" vertex="1" parent="1">
          <mxGeometry x="1265" y="1380" width="110" height="30" as="geometry" />
        </mxCell>
        <mxCell id="ezgKTgP5tMkvbKeKi-sx-96" value="" style="rounded=1;whiteSpace=wrap;html=1;arcSize=5;fillColor=#e1d5e7;strokeWidth=1;strokeColor=#9673a6;" vertex="1" parent="1">
          <mxGeometry x="1165" y="1437" width="320" height="50" as="geometry" />
        </mxCell>
        <mxCell id="ezgKTgP5tMkvbKeKi-sx-97" value="" style="rounded=1;whiteSpace=wrap;html=1;arcSize=5;fillColor=#e1d5e7;strokeWidth=1;strokeColor=#9673a6;" vertex="1" parent="1">
          <mxGeometry x="1159" y="1443" width="320" height="50" as="geometry" />
        </mxCell>
        <mxCell id="ezgKTgP5tMkvbKeKi-sx-98" value="&lt;b&gt;Webhook&lt;/b&gt;" style="text;html=1;align=center;verticalAlign=middle;whiteSpace=wrap;rounded=0;fontFamily=Open Sans;fontSource=https%3A%2F%2Ffonts.googleapis.com%2Fcss%3Ffamily%3DOpen%2BSans;fontStyle=0" vertex="1" parent="1">
          <mxGeometry x="1265" y="1453" width="110" height="30" as="geometry" />
        </mxCell>
        <mxCell id="ezgKTgP5tMkvbKeKi-sx-99" value="" style="rounded=1;whiteSpace=wrap;html=1;arcSize=5;fillColor=#fff2cc;strokeWidth=1;strokeColor=#d6b656;" vertex="1" parent="1">
          <mxGeometry x="1570" y="1130" width="101" height="380" as="geometry" />
        </mxCell>
        <mxCell id="ezgKTgP5tMkvbKeKi-sx-101" value="&lt;span style=&quot;font-size: 16px;&quot;&gt;&lt;b&gt;&lt;font color=&quot;#999900&quot;&gt;HPA-Backend - min 1 / max 10 pods&lt;/font&gt;&lt;/b&gt;&lt;/span&gt;" style="text;html=1;align=center;verticalAlign=middle;whiteSpace=wrap;rounded=0;fontFamily=Open Sans;fontSource=https%3A%2F%2Ffonts.googleapis.com%2Fcss%3Ffamily%3DOpen%2BSans;fontStyle=0" vertex="1" parent="1">
          <mxGeometry x="865" y="1090" width="465" height="30" as="geometry" />
        </mxCell>
        <mxCell id="ezgKTgP5tMkvbKeKi-sx-108" value="" style="ellipse;whiteSpace=wrap;html=1;aspect=fixed;fillColor=#e1d5e7;strokeColor=#9673a6;" vertex="1" parent="1">
          <mxGeometry x="1595.5" y="1312" width="10" height="10" as="geometry" />
        </mxCell>
        <mxCell id="ezgKTgP5tMkvbKeKi-sx-109" value="" style="ellipse;whiteSpace=wrap;html=1;aspect=fixed;fillColor=#e1d5e7;strokeColor=#9673a6;" vertex="1" parent="1">
          <mxGeometry x="1615.5" y="1312" width="10" height="10" as="geometry" />
        </mxCell>
        <mxCell id="ezgKTgP5tMkvbKeKi-sx-110" value="" style="ellipse;whiteSpace=wrap;html=1;aspect=fixed;fillColor=#e1d5e7;strokeColor=#9673a6;" vertex="1" parent="1">
          <mxGeometry x="1635.5" y="1312" width="10" height="10" as="geometry" />
        </mxCell>
        <mxCell id="ezgKTgP5tMkvbKeKi-sx-115" value="&lt;b&gt;&lt;font face=&quot;Open Sans&quot;&gt;Data Base&lt;/font&gt;&lt;/b&gt;" style="shape=cylinder3;whiteSpace=wrap;html=1;boundedLbl=1;backgroundOutline=1;size=15;fillColor=#d5e8d4;strokeColor=#82b366;" vertex="1" parent="1">
          <mxGeometry x="2360" y="1105" width="175" height="95" as="geometry" />
        </mxCell>
        <mxCell id="ezgKTgP5tMkvbKeKi-sx-116" value="&lt;span style=&quot;font-size: 16px;&quot;&gt;&lt;b&gt;&lt;font color=&quot;#009900&quot;&gt;HPA - Data Base - min 1 / max 10 pods&lt;/font&gt;&lt;/b&gt;&lt;/span&gt;" style="text;html=1;align=center;verticalAlign=middle;whiteSpace=wrap;rounded=0;fontFamily=Open Sans;fontSource=https%3A%2F%2Ffonts.googleapis.com%2Fcss%3Ffamily%3DOpen%2BSans;fontStyle=0" vertex="1" parent="1">
          <mxGeometry x="2130" y="1000" width="465" height="30" as="geometry" />
        </mxCell>
        <mxCell id="ezgKTgP5tMkvbKeKi-sx-119" value="" style="shape=cylinder3;whiteSpace=wrap;html=1;boundedLbl=1;backgroundOutline=1;size=15;fillColor=#d5e8d4;strokeColor=#82b366;" vertex="1" parent="1">
          <mxGeometry x="2560" y="1105" width="90" height="95" as="geometry" />
        </mxCell>
        <mxCell id="ezgKTgP5tMkvbKeKi-sx-123" value="" style="group" vertex="1" connectable="0" parent="1">
          <mxGeometry x="2580" y="1153" width="50" height="10" as="geometry" />
        </mxCell>
        <mxCell id="ezgKTgP5tMkvbKeKi-sx-120" value="" style="ellipse;whiteSpace=wrap;html=1;aspect=fixed;fillColor=#d5e8d4;strokeColor=#82b366;" vertex="1" parent="ezgKTgP5tMkvbKeKi-sx-123">
          <mxGeometry width="10" height="10" as="geometry" />
        </mxCell>
        <mxCell id="ezgKTgP5tMkvbKeKi-sx-121" value="" style="ellipse;whiteSpace=wrap;html=1;aspect=fixed;fillColor=#d5e8d4;strokeColor=#82b366;" vertex="1" parent="ezgKTgP5tMkvbKeKi-sx-123">
          <mxGeometry x="20" width="10" height="10" as="geometry" />
        </mxCell>
        <mxCell id="ezgKTgP5tMkvbKeKi-sx-122" value="" style="ellipse;whiteSpace=wrap;html=1;aspect=fixed;fillColor=#d5e8d4;strokeColor=#82b366;" vertex="1" parent="ezgKTgP5tMkvbKeKi-sx-123">
          <mxGeometry x="40" width="10" height="10" as="geometry" />
        </mxCell>
      </root>
    </mxGraphModel>
  </diagram>
  <diagram id="ism-Y7p8SVwuj_bM5WDX" name="PÃ¡gina-2">
    <mxGraphModel dx="5185" dy="1930" grid="1" gridSize="10" guides="1" tooltips="1" connect="1" arrows="1" fold="1" page="1" pageScale="1" pageWidth="827" pageHeight="1169" math="0" shadow="0">
      <root>
        <mxCell id="0" />
        <mxCell id="1" parent="0" />
        <mxCell id="wPpARk4BYiCBTALR3I8P-1" value="" style="rounded=0;whiteSpace=wrap;html=1;fillColor=#f5f5f5;fontColor=#333333;strokeColor=none;movable=1;resizable=1;rotatable=1;deletable=1;editable=1;locked=0;connectable=1;" vertex="1" parent="1">
          <mxGeometry width="2510" height="808" as="geometry" />
        </mxCell>
        <mxCell id="wPpARk4BYiCBTALR3I8P-2" value="" style="rounded=1;whiteSpace=wrap;html=1;arcSize=5;dashed=1;fillColor=none;" vertex="1" parent="1">
          <mxGeometry x="1650" y="58" width="790" height="410" as="geometry" />
        </mxCell>
        <mxCell id="wPpARk4BYiCBTALR3I8P-3" value="" style="rounded=1;whiteSpace=wrap;html=1;arcSize=5;fillColor=none;strokeWidth=2;strokeColor=#82b366;" vertex="1" parent="1">
          <mxGeometry x="1850" y="138" width="560" height="250" as="geometry" />
        </mxCell>
        <mxCell id="wPpARk4BYiCBTALR3I8P-4" value="" style="rounded=1;whiteSpace=wrap;html=1;arcSize=5;dashed=1;fillColor=none;" vertex="1" parent="1">
          <mxGeometry x="320" y="58" width="1160" height="670" as="geometry" />
        </mxCell>
        <mxCell id="wPpARk4BYiCBTALR3I8P-5" style="edgeStyle=orthogonalEdgeStyle;rounded=0;orthogonalLoop=1;jettySize=auto;html=1;entryX=0.5;entryY=1;entryDx=0;entryDy=0;strokeWidth=2;" edge="1" parent="1" source="wPpARk4BYiCBTALR3I8P-6" target="wPpARk4BYiCBTALR3I8P-30">
          <mxGeometry relative="1" as="geometry" />
        </mxCell>
        <mxCell id="wPpARk4BYiCBTALR3I8P-6" value="" style="rounded=1;whiteSpace=wrap;html=1;arcSize=5;fillColor=none;strokeWidth=2;strokeColor=#d6b656;glass=0;shadow=0;" vertex="1" parent="1">
          <mxGeometry x="350" y="228" width="1090" height="460" as="geometry" />
        </mxCell>
        <mxCell id="wPpARk4BYiCBTALR3I8P-7" value="&lt;font style=&quot;font-size: 16px;&quot;&gt;Application Pod&lt;/font&gt;" style="text;html=1;align=center;verticalAlign=middle;whiteSpace=wrap;rounded=0;fontFamily=Open Sans;fontSource=https%3A%2F%2Ffonts.googleapis.com%2Fcss%3Ffamily%3DOpen%2BSans;fontStyle=0" vertex="1" parent="1">
          <mxGeometry x="565" y="68" width="150" height="30" as="geometry" />
        </mxCell>
        <mxCell id="wPpARk4BYiCBTALR3I8P-8" style="edgeStyle=orthogonalEdgeStyle;rounded=0;orthogonalLoop=1;jettySize=auto;html=1;entryX=0;entryY=0.5;entryDx=0;entryDy=0;strokeWidth=2;" edge="1" parent="1" source="wPpARk4BYiCBTALR3I8P-9" target="wPpARk4BYiCBTALR3I8P-30">
          <mxGeometry relative="1" as="geometry" />
        </mxCell>
        <mxCell id="wPpARk4BYiCBTALR3I8P-9" value="&lt;font data-font-src=&quot;https://fonts.googleapis.com/css?family=Open+Sans&quot; face=&quot;Open Sans&quot;&gt;User Interface&lt;/font&gt;" style="rounded=1;whiteSpace=wrap;html=1;arcSize=5;fillColor=#dae8fc;strokeWidth=1;strokeColor=#6c8ebf;" vertex="1" parent="1">
          <mxGeometry x="70" y="58" width="136.5" height="670" as="geometry" />
        </mxCell>
        <mxCell id="wPpARk4BYiCBTALR3I8P-10" value="" style="rounded=1;whiteSpace=wrap;html=1;arcSize=5;fillColor=#fff2cc;strokeWidth=1;strokeColor=#d6b656;" vertex="1" parent="1">
          <mxGeometry x="370" y="278" width="440" height="380" as="geometry" />
        </mxCell>
        <mxCell id="wPpARk4BYiCBTALR3I8P-11" value="" style="rounded=1;whiteSpace=wrap;html=1;arcSize=5;fillColor=#e1d5e7;strokeWidth=1;strokeColor=#9673a6;" vertex="1" parent="1">
          <mxGeometry x="435" y="298" width="320" height="50" as="geometry" />
        </mxCell>
        <mxCell id="wPpARk4BYiCBTALR3I8P-12" value="" style="rounded=1;whiteSpace=wrap;html=1;arcSize=5;fillColor=#e1d5e7;strokeWidth=1;strokeColor=#9673a6;" vertex="1" parent="1">
          <mxGeometry x="429" y="304" width="320" height="50" as="geometry" />
        </mxCell>
        <mxCell id="wPpARk4BYiCBTALR3I8P-13" value="&lt;b&gt;Cliente&lt;/b&gt;" style="text;html=1;align=center;verticalAlign=middle;whiteSpace=wrap;rounded=0;fontFamily=Open Sans;fontSource=https%3A%2F%2Ffonts.googleapis.com%2Fcss%3Ffamily%3DOpen%2BSans;fontStyle=0" vertex="1" parent="1">
          <mxGeometry x="535" y="314" width="110" height="30" as="geometry" />
        </mxCell>
        <mxCell id="wPpARk4BYiCBTALR3I8P-14" value="" style="rounded=1;whiteSpace=wrap;html=1;arcSize=5;fillColor=#e1d5e7;strokeWidth=1;strokeColor=#9673a6;" vertex="1" parent="1">
          <mxGeometry x="435" y="368" width="320" height="50" as="geometry" />
        </mxCell>
        <mxCell id="wPpARk4BYiCBTALR3I8P-15" value="" style="rounded=1;whiteSpace=wrap;html=1;arcSize=5;fillColor=#e1d5e7;strokeWidth=1;strokeColor=#9673a6;" vertex="1" parent="1">
          <mxGeometry x="429" y="374" width="320" height="50" as="geometry" />
        </mxCell>
        <mxCell id="wPpARk4BYiCBTALR3I8P-16" value="&lt;b&gt;Produto&lt;/b&gt;" style="text;html=1;align=center;verticalAlign=middle;whiteSpace=wrap;rounded=0;fontFamily=Open Sans;fontSource=https%3A%2F%2Ffonts.googleapis.com%2Fcss%3Ffamily%3DOpen%2BSans;fontStyle=0" vertex="1" parent="1">
          <mxGeometry x="535" y="384" width="110" height="30" as="geometry" />
        </mxCell>
        <mxCell id="wPpARk4BYiCBTALR3I8P-17" value="" style="rounded=1;whiteSpace=wrap;html=1;arcSize=5;fillColor=#e1d5e7;strokeWidth=1;strokeColor=#9673a6;" vertex="1" parent="1">
          <mxGeometry x="435" y="440" width="320" height="50" as="geometry" />
        </mxCell>
        <mxCell id="wPpARk4BYiCBTALR3I8P-18" value="" style="rounded=1;whiteSpace=wrap;html=1;arcSize=5;fillColor=#e1d5e7;strokeWidth=1;strokeColor=#9673a6;" vertex="1" parent="1">
          <mxGeometry x="429" y="446" width="320" height="50" as="geometry" />
        </mxCell>
        <mxCell id="wPpARk4BYiCBTALR3I8P-19" value="&lt;b&gt;Pedido&lt;/b&gt;" style="text;html=1;align=center;verticalAlign=middle;whiteSpace=wrap;rounded=0;fontFamily=Open Sans;fontSource=https%3A%2F%2Ffonts.googleapis.com%2Fcss%3Ffamily%3DOpen%2BSans;fontStyle=0" vertex="1" parent="1">
          <mxGeometry x="535" y="456" width="105" height="28.64" as="geometry" />
        </mxCell>
        <mxCell id="wPpARk4BYiCBTALR3I8P-20" value="" style="rounded=1;whiteSpace=wrap;html=1;arcSize=5;fillColor=#e1d5e7;strokeWidth=1;strokeColor=#9673a6;" vertex="1" parent="1">
          <mxGeometry x="435" y="512" width="320" height="50" as="geometry" />
        </mxCell>
        <mxCell id="wPpARk4BYiCBTALR3I8P-21" value="" style="rounded=1;whiteSpace=wrap;html=1;arcSize=5;fillColor=#e1d5e7;strokeWidth=1;strokeColor=#9673a6;" vertex="1" parent="1">
          <mxGeometry x="429" y="518" width="320" height="50" as="geometry" />
        </mxCell>
        <mxCell id="wPpARk4BYiCBTALR3I8P-22" value="&lt;b&gt;Pagamento&lt;/b&gt;" style="text;html=1;align=center;verticalAlign=middle;whiteSpace=wrap;rounded=0;fontFamily=Open Sans;fontSource=https%3A%2F%2Ffonts.googleapis.com%2Fcss%3Ffamily%3DOpen%2BSans;fontStyle=0" vertex="1" parent="1">
          <mxGeometry x="535" y="528" width="110" height="30" as="geometry" />
        </mxCell>
        <mxCell id="wPpARk4BYiCBTALR3I8P-23" value="" style="rounded=1;whiteSpace=wrap;html=1;arcSize=5;fillColor=#e1d5e7;strokeWidth=1;strokeColor=#9673a6;" vertex="1" parent="1">
          <mxGeometry x="435" y="585" width="320" height="50" as="geometry" />
        </mxCell>
        <mxCell id="wPpARk4BYiCBTALR3I8P-24" value="" style="rounded=1;whiteSpace=wrap;html=1;arcSize=5;fillColor=#e1d5e7;strokeWidth=1;strokeColor=#9673a6;" vertex="1" parent="1">
          <mxGeometry x="429" y="591" width="320" height="50" as="geometry" />
        </mxCell>
        <mxCell id="wPpARk4BYiCBTALR3I8P-25" value="&lt;b&gt;Webhook&lt;/b&gt;" style="text;html=1;align=center;verticalAlign=middle;whiteSpace=wrap;rounded=0;fontFamily=Open Sans;fontSource=https%3A%2F%2Ffonts.googleapis.com%2Fcss%3Ffamily%3DOpen%2BSans;fontStyle=0" vertex="1" parent="1">
          <mxGeometry x="535" y="601" width="110" height="30" as="geometry" />
        </mxCell>
        <mxCell id="wPpARk4BYiCBTALR3I8P-26" style="edgeStyle=orthogonalEdgeStyle;rounded=0;orthogonalLoop=1;jettySize=auto;html=1;entryX=0.5;entryY=0;entryDx=0;entryDy=0;strokeWidth=2;" edge="1" parent="1" source="wPpARk4BYiCBTALR3I8P-30" target="wPpARk4BYiCBTALR3I8P-6">
          <mxGeometry relative="1" as="geometry" />
        </mxCell>
        <mxCell id="wPpARk4BYiCBTALR3I8P-27" style="edgeStyle=orthogonalEdgeStyle;rounded=0;orthogonalLoop=1;jettySize=auto;html=1;entryX=-0.001;entryY=0.316;entryDx=0;entryDy=0;strokeWidth=2;entryPerimeter=0;curved=1;" edge="1" parent="1" source="wPpARk4BYiCBTALR3I8P-30" target="wPpARk4BYiCBTALR3I8P-35">
          <mxGeometry relative="1" as="geometry" />
        </mxCell>
        <mxCell id="wPpARk4BYiCBTALR3I8P-28" style="edgeStyle=orthogonalEdgeStyle;rounded=0;orthogonalLoop=1;jettySize=auto;html=1;entryX=0;entryY=0.647;entryDx=0;entryDy=0;strokeWidth=2;entryPerimeter=0;" edge="1" parent="1" source="wPpARk4BYiCBTALR3I8P-30" target="wPpARk4BYiCBTALR3I8P-37">
          <mxGeometry relative="1" as="geometry">
            <Array as="points">
              <mxPoint x="1520" y="168" />
              <mxPoint x="1520" y="658" />
            </Array>
          </mxGeometry>
        </mxCell>
        <mxCell id="wPpARk4BYiCBTALR3I8P-29" style="edgeStyle=orthogonalEdgeStyle;rounded=0;orthogonalLoop=1;jettySize=auto;html=1;entryX=1;entryY=0.5;entryDx=0;entryDy=0;strokeWidth=2;" edge="1" parent="1" source="wPpARk4BYiCBTALR3I8P-30" target="wPpARk4BYiCBTALR3I8P-9">
          <mxGeometry relative="1" as="geometry" />
        </mxCell>
        <mxCell id="wPpARk4BYiCBTALR3I8P-30" value="&lt;font data-font-src=&quot;https://fonts.googleapis.com/css?family=Open+Sans&quot; face=&quot;Open Sans&quot;&gt;API Service&lt;/font&gt;" style="rounded=1;whiteSpace=wrap;html=1;arcSize=5;fillColor=#f8cecc;strokeWidth=1;strokeColor=#b85450;" vertex="1" parent="1">
          <mxGeometry x="350" y="119" width="1090" height="60" as="geometry" />
        </mxCell>
        <mxCell id="wPpARk4BYiCBTALR3I8P-31" value="&lt;font style=&quot;font-size: 16px;&quot;&gt;Data Pod&lt;/font&gt;" style="text;html=1;align=center;verticalAlign=middle;whiteSpace=wrap;rounded=0;fontFamily=Open Sans;fontSource=https%3A%2F%2Ffonts.googleapis.com%2Fcss%3Ffamily%3DOpen%2BSans;fontStyle=0" vertex="1" parent="1">
          <mxGeometry x="1785" y="68" width="150" height="30" as="geometry" />
        </mxCell>
        <mxCell id="wPpARk4BYiCBTALR3I8P-32" value="&lt;b&gt;&lt;font face=&quot;Open Sans&quot;&gt;Data Base&lt;/font&gt;&lt;/b&gt;" style="shape=cylinder3;whiteSpace=wrap;html=1;boundedLbl=1;backgroundOutline=1;size=15;fillColor=#d5e8d4;strokeColor=#82b366;" vertex="1" parent="1">
          <mxGeometry x="1890" y="253" width="175" height="95" as="geometry" />
        </mxCell>
        <mxCell id="wPpARk4BYiCBTALR3I8P-33" style="edgeStyle=orthogonalEdgeStyle;rounded=0;orthogonalLoop=1;jettySize=auto;html=1;entryX=0;entryY=0.5;entryDx=0;entryDy=0;strokeWidth=2;" edge="1" parent="1" source="wPpARk4BYiCBTALR3I8P-35" target="wPpARk4BYiCBTALR3I8P-3">
          <mxGeometry relative="1" as="geometry" />
        </mxCell>
        <mxCell id="wPpARk4BYiCBTALR3I8P-34" style="edgeStyle=orthogonalEdgeStyle;rounded=0;orthogonalLoop=1;jettySize=auto;html=1;strokeWidth=2;entryX=1;entryY=0.25;entryDx=0;entryDy=0;" edge="1" parent="1" source="wPpARk4BYiCBTALR3I8P-35" target="wPpARk4BYiCBTALR3I8P-30">
          <mxGeometry relative="1" as="geometry">
            <mxPoint x="1440" y="158" as="targetPoint" />
            <Array as="points">
              <mxPoint x="1600" y="134" />
              <mxPoint x="1600" y="134" />
            </Array>
          </mxGeometry>
        </mxCell>
        <mxCell id="wPpARk4BYiCBTALR3I8P-35" value="&lt;font data-font-src=&quot;https://fonts.googleapis.com/css?family=Open+Sans&quot; face=&quot;Open Sans&quot;&gt;Data Base Service&lt;/font&gt;" style="rounded=1;whiteSpace=wrap;html=1;arcSize=5;fillColor=#f8cecc;strokeWidth=1;strokeColor=#b85450;" vertex="1" parent="1">
          <mxGeometry x="1670" y="108" width="130" height="130" as="geometry" />
        </mxCell>
        <mxCell id="wPpARk4BYiCBTALR3I8P-36" style="edgeStyle=orthogonalEdgeStyle;rounded=0;orthogonalLoop=1;jettySize=auto;html=1;entryX=1;entryY=0.66;entryDx=0;entryDy=0;entryPerimeter=0;strokeWidth=2;" edge="1" parent="1" source="wPpARk4BYiCBTALR3I8P-37" target="wPpARk4BYiCBTALR3I8P-30">
          <mxGeometry relative="1" as="geometry">
            <Array as="points">
              <mxPoint x="1540" y="633" />
              <mxPoint x="1540" y="158" />
              <mxPoint x="1440" y="158" />
            </Array>
          </mxGeometry>
        </mxCell>
        <mxCell id="wPpARk4BYiCBTALR3I8P-37" value="" style="rounded=1;whiteSpace=wrap;html=1;arcSize=5;dashed=1;fillColor=none;" vertex="1" parent="1">
          <mxGeometry x="1650" y="548" width="460" height="170" as="geometry" />
        </mxCell>
        <mxCell id="wPpARk4BYiCBTALR3I8P-38" value="&lt;font style=&quot;font-size: 16px;&quot;&gt;External Partners&lt;/font&gt;" style="text;html=1;align=center;verticalAlign=middle;whiteSpace=wrap;rounded=0;fontFamily=Open Sans;fontSource=https%3A%2F%2Ffonts.googleapis.com%2Fcss%3Ffamily%3DOpen%2BSans;fontStyle=0" vertex="1" parent="1">
          <mxGeometry x="1670" y="618" width="150" height="30" as="geometry" />
        </mxCell>
        <mxCell id="wPpARk4BYiCBTALR3I8P-39" value="" style="shape=image;verticalLabelPosition=bottom;labelBackgroundColor=default;verticalAlign=top;aspect=fixed;imageAspect=0;image=data:image/png,iVBORw0KGgoAAAANSUhEUgAAAZUAAABmCAYAAAADKgw4AAAAAXNSR0IArs4c6QAAAARnQU1BAACxjwv8YQUAAAAJcEhZcwAADsMAAA7DAcdvqGQAAHwBSURBVHhe7V0FYFxV1v6Smclo3F2aNvXUqVGj0JbS4m4Li7v/y8LisMtiu8giywKLy2Jtgbq7e5M07p5xn+Q/52bSpunMZFJSg/l2H9OMvHffffee75xzzzk3yGKxtOE0R1tbGxwOF2w2O+x2B4xmB7RaE2rrmlFWXoODhVUoLa3Hjr01aGiwIVgeDHlIMKQSQCYJgjQ4CMEdR1AQJPTKCA6mc4t/HQm6nPiglf7R2koHvbpaAZerDXb6h9MF8eqytUKpkGBgv2gMHpCElJRYZGYkIiM9EdFR4dCoZJArZFDIQyCTScX1AwgggABOZ5y2pMLkodeb0aw1or5Bj6rqJpSUthPIhu0VqGswEmkQeciCoKCD/83kEcSHVEpsIkVbsIQIJFgcIDIJkhDLoItg5886g75HTOJmFkYb2lzEIoRWenW2Mbu0IsjpBOhoo+86iWz4sLkJx+IgspFJMG5EMgb0T0V2dgqSk2IRFxuGmCgNwkKVUKkUdKkAyQQQQACH0UryxGAwo6nZSK8WmEiBbiU5M3HiQPc3Tj5OK1LR6YxkfbSgrKIZldXNKCquxL59Zdh1oAYWtgpCgiCXMnkAEjZDFHIEK5XEH2QF0GsQkUgwWQXScA1kERGQqBV0qCFVqgWhBMtlkChVhwmDCCVIrmz/dye02W1EHEQaJPRdNitaLTZhLbksJjhNZvrbglaDEU6dAXYivjang8jFBYeNvsdEozeKgeAgK8fuaIOFCIf+iZzMKAwfkobMzGSkp8QhKyMaiYlRiIqmtgb4JYAAftfQkjzZurUEm7YWYF9eCYqK6lFRZYS2QQuz/gv3t04+TmlSYUGr1epRWFSNA/n1KCmrRXFJFXbuLkeD1gaVPBghwW3CCgkmzT4kIhxSlRoSjYbIQoWQyDDIokggE2nIIsIgCWGSIdIQfi06+SFr40iwdeEX2LrxZE3we3zQ+VuZdKxWQT4OrY6IxwJbTT0cehORj5lIiMhHb4CLSMjlbIWNbtpsbyMLKxgjBicjKzsZaanJGNg3Gv36JiM+LlK4ygIIIIDfD+qJOL763xp8/uUG1NRpoVRLSVkmuUdyprBED2Pdf9zfPPk4JUnFQpr/gbwybNpWirz8apSVV6OgsB5Wu1OQCMlbBIeEICQpDoroGEhCQyGLiYI8OgqyUA2kYWEIIgJhgc8WxCHy8EIixx1diCeISK3V4YDLaBCEYm9pgb2hmSwbHWzaFiKdOrQazWTJANZW+q0L6JsdJdZiMukYPTIduUOzxLpMYBkmgAB+22B5+N2CTfjbq/PgIrkRwq6YTigsNcBY+777r5OPU4pUKirrsWb9PixdW4jG2kZUVjRBZ7QiRAJI21rJ6giDIi0FyoQkhMRGk/URLg6JXIEguVyQxhEkcqqjg2z41ekUVo3DoIejRQd7fTOsDbWwVFTBXtOAViIiG5GLPESK5OQIxMXGYtSwNEybPAj9c1IREiJrP1cAAQTwm0J5eT2e/OuXWLvxINTyo70UAVLxgO07C/C/7zdi445KWE161DeZICM5K3G5IAtTQ90/G6o+faCIiSUrRA2pWgPISIiebAvkeIAJhg+7HS6bRazROBqbYa4oh6moBLaKGjiDguFsC0KYRgF1ZCiyUqNwxUVjMXnKCCi6aDEBBBDA6Y2tO4pw7S1vQhbcJtxdXREgFTd4kXrz5n14/d2lKCmth91qhc1OqnhrK0KCg6Dsl4GwQYOgSk+HNFSNYFkIsQxHZ7nxWyISX+BBRH3Ci/0uC/VRXT30B/bDuDsPTg4G4CAESbCIFkOQAvffPgnnnTsOYaEq9wkCCCCA0xnrNhTgoqteQWK85zn9uycVq9VOnbQXL7+5GIXFtZALrw0xsN2JIKkEkVMnIGLoEIRERkMsGHhg5t89iFBdNhuMBfloXrkW1qo6uMhy4zWkVnDejRwP3j0VF51/JsLIsgsggABOX6zdkI+LrngVSYkBUjkCTrJMdu8twdPPfY2NW0oQFSUnwyMIQUQy8sRoxM06B6EDBzO/iPDbALoHL/hzzo21uhL1S5ZBv3Uf2jQKSIlctFo7IpRqPPaX2Zg9cyxUakXXDJwAAgjgNECAVLqAIxdKy+rx5ns/4+vvtyM6MgQhMikJuCAo0hIRM3kCNP36i+92JBEG0DN0kIujqRENq1dDt3kPXMwgRM4tjTYM7p+E+x6ag7Gj+iE8VIlgDqn+jYMrHbS1tbZ7SakvJBLJMZMqB3+0n69NWINc+eBEJ6byffD9sOXuya9+MsD90dEnv6Y/+BG1h/HTebhvxbsnBh33wFUxuCHtVS3an/GJAF+b4av/uiWVYj2M9cceUiwqg7haRWLl4fYEiz6Qcr5fD3HcSMXpdKGktA4//rIZ732wDC5qtFopE5FaiqQERE0cC3V2thCIATLpHXBf0kiAva4WzZu2wLA3X7jJ7FYbWsxOnHfOEPzxmmkYMjAdGs3RSZ2nM3gQswKj1RrR1GJGS4sReqPZPUmCEBsXhXC1DNFRGkSEq7uNlnPRBNO2GNDUbEKz1gSt3gwHh3PKZFCHqhGmCkFUpEqc63j0pdFkgclohYEOvckGp90Fo9kCKV1fqZBDGRJM15UjNFSBUI3quEf/mcxWmM02mExWOuyw2Fx02OGw2pGaEo2M9Fi/8qc6npPRYIGeDoPRBqurDRajSawNKlVKyPlVKYWGrGuNWg61WnlMws0TWC4ZaFxwNrpOZxXP1Wan+7E66NM26tsQupYUEaEq0b9c3UJD1r+CE6l7gWiMRrouXVOns8BsccBCY4o7RaUMQUSYApERPKZCj7jW8SAVzsrndjTTXGnWW9DSpKW2mWCzcT9Qe1TU9zSukuKioQmlsU7zJjxMDXn7eoVPHBdSqa1txup1+fjPf3/GzvxGJITTg1IoIE9JRsToYWSZ5CCIJofQTtzMeErDHy3sVLoPd3tt1dXQbtsB08FiOPV66EgYxJAgvPqSSZg1cxhy+qWK753O4F7ncj15BdXYsbsEW7cewJpNJWhuNgNS6gfuC3o2wY42En6hOHN8DsaMGYDhQzJIEMaRsAhpP1EnlJbVYeeeCmzcvBfr1hcgr7Cp/Vw80cliAZ0rKiqELL9MDB/eFyNy+2Bg/2TERIe7z3BsYIHHSW4HCmuxf18p8gvKxH3tPNCIILomWK7yoyUdLCZagQH94pCTk0yvmejfLwHZfUhZi/p1begMXv+srm1CQXEDCgurUF5WjaLiWuQXNqKunvqX2uKytuLqK0fh0UcuIaEX7f7l0eB7q6vX0rnq6b4qkHegBHv3V2Dvvka6Hbo3vi9+VtS/IbJgZKSFIadvIrKyEmmcZiCnT5x4Xse6RshlnQ4W1WB/fhX27S/B/v3l9Ixr0ELEIp6r6Ft65XnspDa0BqH/4BhSwFLRr18atSUZ2VkJdI9Rx5R8zM9134EK7Npbhj17irBjRzkqyg2AnK9Jl6d7HjY4AaOGZ2HcGYMxalgG4uMjxW97k1Ta21GJ7buKsGtXITZuLUWL1i7qIXIdxA4r2EXPwUFk36Z3IisnAuPP6IvhI3IwlPqjT2YCKTOe28LoVVLhB7dl20H8sGATvvhmCw0AKWSkOasz0hA+qB/UuUMhUWlOfTJxdyy/tpEmwfkjbQ47Wh1Oajeb6W5w2RfSEDkyLVjBZWDI6up8Xyf7HsUkbYW5pAS6HbtgKiyBg7SR5gY7ppzVF5dcMAHTpgwRGsjpCAcJqgP5lZi3cAeWLN6KkrJm0rBozNEElXQ8w05gM99MGnYbfTZyUBouPP8MnHPWUJFEymAhunDJDvy8eAvmL9oHDZ1LIZd4PBc/Z67nprc4EUka7dw5ozBnxkiMGNbnmIXOqjUHsH7jfixYvhdWi729YoSMxhh93tU9wkPLSda/zdkKk8FBAi8CkyfnYtK4AZgwtj9p9wr3N3sOh9OJoqJqrFyTh83b8rBoTYHwNIST9SAjcmXB0yF8TFYnLpo7Eg/cdb6o9uAJLS16Otd+OvZi9Zp8NOlMotAqPycpW9ce4OL+pXuzOuiwuDAyNwljRw/C9Cn9MXrMwB6VLaohJXf+L9uwcPE2bNldASn9WBlC1yeLyMOjFeD+ZWvVQW2w0PWjSRk7Y0wWJowbiGmThghy8cflR0MEmzbtx3c/bcUvC7eh2eQQ/Sgny6vrz1mQm6k/+XXu7JG49rIJGD0yp1dIxUyW5vpNBVi6cid+XLBNPDeNkvvg6HZ0BY91M1nKVlJsBvaJwSwa5+dMy0W/7GSPFmSvkQo/uB9/2Eqdtx6llc2Qk/4hi41CeO4whA8dgJDYePoWXYqf1qkI6lkmBS6dYm9uhkOrha2+GU4Swq1mOshEbiXSbBVaFX2XBhzXC5PIQ8jqCoEkNEzk1Mg5KTMykv5NgorMaIGTec/u++LsfUNePnQ798BSUg6zwwUlmbJzpo/BlVeNxeBBme4fnB5gzXf12r14672l2EYWCk8QLtfjL3jyRkaocfH5o3H91WeRWS/B2+8tx5ffroTF5iShI+12snWABaDV3oq+pE1fc9U0XDhrJJRKufvT7rE/rxyff7MGC37eKdxMKhK4PV2jYMI0EMElxYbi/JljceWV48gyi3N/6j+4vt5PS3bh54VbsGVrCY2fVhon3knSF6kwER0kcvr0y9VYunw3GpuMgvR7uibE08dJ802vdyB3SAKmTB2NP149gZ5fmPsb3pFfUI5XX1uI5Rv2CDKRE0kfCzoEK4+LcSP64757zxXFYH3BRvLi2/lb8OlnS7D3YAMi6d79ea58v01GO0YMSsR9d8xBiFzxq0ilsUmHL79Yjy9/WIO6RgMpKz0fXx2wE8kKpSw3E9ddPRWTxw84yiXWK6Syl0z1Dz9fhSVL9tJktwkNJHTwAIQPz4W6Tx8h2E5lMmGesNXXwlRcAmtpZXtWu8kMl1ZHFopTRK7R/BATlzUP7tQgeo/zDMViFh18GolSAWlkOGRkjUnCwyBPiIMmMw3yuHjh7mP4XVest+F+BvaGeuh370Pzhs1wkgCz2oIwZmwWrrniTMyYPgo9kMsnFctW7MCzL81DZUUDNOpjW09w0EPloJFLLzgDOoMVP8zfRhPk2BbCeXjzdgdhkaG465aZuOKCsd1aLDSEsH1XMd56ewG27iwRC6WsPf8asPXicgRj1sxc3HnrOeiTmeT+pHvwVhGff74WX363ETqTEQoSwN11hTdSYSHMVuQTz3yD/QWlNE/aq4T/WvAzY4fBnGkj8cQTFyE8XOP+5Giw9Xfzze9h94EyhEWQ8vfrL99O3loHhg3OxEcf3E7X92zl89rEx1+uwvv/XQajwXxMz9VGil9WZjxmnzMcL762AJHhnhUVX6TS3KzDu6wsfbMeriA76bm/foLzWOe2JSXF4v/uPx9nTR50hMUiefzxx59y/7vHYPfDKjJpX3trATZuPkiy2UVaMRA2ZADiZ0wXiYuiBXycauARRoelqgpNy1dBt2kbjHkFsFXXwtioha7ZRBPLCZVGjkEDEjFoYDJyh2ZgxDA6cjMwdHAq+vVNQCxphq1trSitM8NI2oWdExLJynE2NNC5q2EuKYMp7yBcNhpYYaGQqDXCfXyy+oTrpClTk6BKTSErTA/otahp0GPXnjKxcDqgX6LHdYZTCZVVDbj1lv+goUULterYF6h53xx2cRSX1Apfe4dr51jAP2OhyYvZZeX1yEyLRXqab0th34Fy/PXlb7FzT6lw54gtGH4lWMkJkrThYGE9Wsgy4HHrzzpEEwmfjz5diY8/X0cathXykO4JhcHuoQE5SRg3pj+R++GABV4/ufWBD5FHVhhbOsfar13Bz4zlV0FhLSx2OyZN8F7y/dGnPsHqdXmIiOQ6gO43fyVYw5eTJVla3kiC1IXxYz1f/5dFW/HvD5eKwJFjVRQk9LsWnRlFpbVCGfXWh80tNvz54fPdfx0G7y/13/+uwcefre41QmFwM3isttC9FRRWIXdwOuLjI9yf0ufHaqmwj+67eZvxxjuL6N8mMotcwv3AD12mVIpqwZrhgxA2aABComPFb8R6w0knGHYHBcHe3IimtRthLCiCy2iCk0xVLZEId9hF5w7G0KF9kJmRjJhIDU1KBU0yGWQ00fj+eGC1MYWS2WKzOYXLQquzora2BUUlldiy9SA2bi8nK8CFCI1UFIALUqnooYZANSAL0WPHICQ+kf0DJ8Vy4S0AONHUVlONyi++hq2xRTyW4DYpzpmai3vvnYmU5PZndirismv+ju07y6HRHDuhdEbHkPQyZ3sEPpeVtLjzzxuNh+46D3Fe1hlqaprx11e/wdIV+3369tm1xq46XguyOdsE+XAFa41CKlw5Xn9HZpCTrNAbrpmKe+6e6VNR4LWkb/63AX8jyy8oxNkjN6I3S+Xmu97EyrX5UFM7fYFlgonmkMPRHtbLc0VB84zb4Ot5cL9EklX4t6cuJ8E+2P3uYWzeuh/X3/E+QoI45Nn9Zhewtt1icsBucdFYat8kT69zIJiUizAaW2ql1ON6GoPb3VzjwL69fz+KtDkQ4fmXv8e2HUXdEgrfM6/NsZXKciWky1oLD03+jrd2MLxZKouW7BBKS0OTQVQ09gb2xBjMDjHGXDTGWOtVhAQjlO5f4cMNTM0Scn/GtEH400OXIcEdWHBMpMJhcR99vAz/fH0pZBquRwOMHpmJg8WNOFjSiDCVVCyEtclCqFNJsyANPWzkUGj69oU8gYQpQYQRc6tONOiaxoICNCxZDjsJU9ZUG5ttyMmOwvVXT8bUScNFqKhcHoIQ6tCe5HSwn5/9qDaapFyeeteeQvw4fwtWby4TG4WFUr+0BUvFQFP0TUfk6FHQZPdllUTss3Jc+4NMSCZThqWsFM1btsK05yBag4jUXK1i4LIP3GEPwuSJ/WiQXIDsPsni+6cSlq3Yjutufx8x4d61T3YBGS1OaOng/BL+YphcgnASFD3VGsWEI8FjIOHpJMHH1gwv4POz9LXIHEzE/dwTV2HOrJHudw+DhfjX363DY89+i6gwroTg/qALWgw2+lyJqy8fi/456QiPUIsdTuvrm7Fy9V78sqoApDSLueYJvNCdmBBOz/IinDVlmPvdo7FrdwnuuP9d6PQWvwilfZi256cYqV8u7kIq3/6wCvc/9jUiQ0ParXIPYKFcr7Mhlp7j5ReNISUmhpQ2Gd1biyicuGFbmQgB71qRtwPcBibvcWOH4N9v3gSZe2x34LZ73sL6TYVCNnlCs86O0cPTcc2VEzF4YBaRLj0Hep8FfF1dEymG+fjs67XCLcqC3hPqGi34/D+3Yurk4e53+NkDf//nAnzw0RKy0LxbvjzftAYHJHR/owYnIi01ipRQJ9ZtLkFNoxnxZF35a915IpWy8jpqxw9YsnyfWEPxBG4D75KbkhyJqy8ZhwED0hEWqhYKMys96zfsxXsfbkRMLMlCL33Az4H78h9/uxpzziVlmUmop6TCJtU/3vwRr7y+jC4mJ21JirvuOJcG/hTqhDZs30EP40s2o3ciLEpKAyNEmEosvCUkdEMSYhE+ZjhCBw4iCya6vVV09HauisjZcD8U1soZrdT25jXrUPfTEgST5tZssiM6QoWH7pxJHXKGCJPrzcRA1j7YmuEHPP+n9Xjh5aXQhJNwoz5hYRfkcEIWHYHIM88gi24wZBGRYrL1Sn/QvXfkrTA4MVK3Zw+0azfDqTfCRYNZSkRjtpPwNZMZn5soSrzszauFnXhm4pgsPPf4FcjO8t8nfyIwbfYTaGjQC4vRE5qNdiTHa3DdFRMxYdwgREaEipyPvPwy4d7ZuqdGCDJ/YDI7iUCUuPv2qRh3xkCRD2Kgc+0mZeHVNxehqcUEjdKztaQlIrqOBNZ9t806KsyXdym95JoXRb6HN8FRVGnEc3+aidtvPV/Mn855CzxEeGwVFVfjroc/REVFo9DuPaHZ6MBlF43Fn+6Zg5iYo8ON9XoT/vX+z3jng5VkVft2e1porLSQADFaW6FWSxBKjKatt+Hyi0fi8ccuRXJSjPheVObtSI6T+9TyK5useOnJi3HFxWcKBa79q+1bVfDcWLdhH1545XuUVTR5JU1eX8nMiMcLT1yOoUP6uN/lPZgMmDL7b3A5TB7HSYvejlnnDMdfHrmASDf6iL5ldLRh6/YCPPb0p2IXWU/3wiH6jz0wCzfdcJ77HeAAjbMXyErZsq3Y6zPhxW4JKdx3/XEyLrt4EjQkyDvOztfdf6AUdz/0PqrqjKSgd2+NdyUVOgU+I8vzT49/ghixlnR025lQDLY2PHz7dNx04yy3Zcjf6/huu/XU2KTH1Te8jMoavbBaPIGDKOKiNfjivw+TYhHRM1KxklD+60tf4Y331yIhRoHo6FA8cvdszDlvnPsbh9FCD3bl6p34+NPV2LS9BmERHL5Gg4bvmMgliDR6GQ1yTe5ghGb3EesvvAeKmDEsCPm1J+AO4d/QwcUXbfUNsFRXwVJTA0dDE4IaG8nCsiGYOoDUTbER1rQpg/DY/ecjPY0j044/OMnr448W4K9vLkdwG0eSuB8i9UcwkYgiPRnqnD7QZGWLRf5g3nXSnUXtnnWH+6XjfjtI0H3vHZ+3Wi1077Uw5OXBuOcAnC369uKTRLDsQuEtjQ26NhK+w2hSzEDf7BQSvOV4+sXvsHFLEZ2mFWOGp+H5J68hiyXJPeBOLg4WVmLaxa8g2kOuId82r4FdesFoPEQC1FN4K0c2vf2fRXjr/RXtFoL7fU9ga2P8mL74+3N/8LoY+8if38e3P+1EqAdiYYE3sG8Cnv7LVRhIGmAH2Jr96rvVuPexr5Di6UYIDST0nnxwFm7542Fh5Q02GlOXX/UiCktqPS6Es/Bgy/vpx67E5DOHuN89DF5Mn3PZ34Sbytsz5nM0tLhw+x/GYO55Y9EnM9lrnsJ3P64mK+UrRHohKD5Xk9aBN1++DufNHOkzmGH5yh148R/ziISbPVqFfC5OGrzlhum48fpz3O8C23bk4ZZ7P4LdZgWJSve77WDlNisjFo/QvJ84/uj+6IwWrR5vvLsQH3222qNwN1ocuObS0Xjq8evF30xG//lkBV589TuyDjxboDyuZHIFnn/sIsyaMcb9rmc8+H/vYt7ivR7L3XdGV1LhLUT+9uq3WLJiP7XD829NNhfJ7nNw843djzHu57mXPEtjzLvyUkFW2wf/+APOI2vF74V6HWk0L77yDd78aD0RihLxiVH4073nYfa5Y93fOBKc9TuATPbLLp5I5u1opCWHo5HMOp2BtHMyx5w0SOw2B0zl1TBs2Ymm5WtgLiuG02gggWgV4bpBLFDphrhkgOcn5BIEwtv3OptbhABtXLMW9fMWonn1evq7EGbei8RoEguKbIW46IiJCcU9t5xNwueCX52w1hPwpB85Igd33DgdfdIi0NRoRFOTTSQ+cVkVCwk9S1EZdJu3ifYbC/Nhqa0RwQP2xgY4dDq4DAY4DCY4qY8cTc3CArFWV8NSWgrdvn1o2bYdDQsXo/7nZdBu2wVTZa1wmXA+DYe5tgWHoG9WHO6+5Sz84+80sen5RUe1h2ayJps7OAXVVS2ooqOMjoKDZRiem4XIqFCfQvhEYN6CdWQJF3l0abArZNY5uXjo7vPgLQmP1xWy0uOg02qxP7/Gq5+ZJ35mZhLeff1Wn4vcZ581AstXbEdj89EaMf9dVN6CyRMHkxCOOySweQ3uby9/C5PRLCyQruD1k5lT++PBey/2K0uex9T4sf3w74/XghXJrtOEr8tbzub0TcKQQalHCHE7WR4LftmIJavzvK59cOVwTXgofvzsHlx84SQkxEcfFULaAXafPvjox3CQ8umNoNhddusNU3DpheNEprwvZGYkYuf+auQXVAlLwdO9NettUIWGYeZZQw9ZHFu35mPt5kKRz8iL07zg3XFw5NioYf1w2SXjaDz4tljpimS5V2HNxgKPLiRet8rpG4+zpra7v5qb9Zi/aDt27quEyovwJS0QN11zJq6+cpr7b++YOH4wNm06gKpanU+3ZOeFeiY2jiR8/Z2FIvzZ02Mw0xicMr4fkeG17nd8g/t5zOh++JDHGCnCnp4tV3ioq2vGBaR0+EUqvDfyG28vwJv/WYPYKDmSkqPxlwfPp0l1tL+4K7gBrOnlknl6wdwzMOvswUQwEWT10EOhx64gE9pO2paN+MNK1o31YDH0O3ZDu3UHzJXlsJLF4dTqhCC1t2hFmC9vYmVtaoK5oADaPXvQvHYDGhavgH5fPkz1TbCTgFFqlAiL0oiB3t4FQSKXIJO07scemEttGU9CxduDP77gwd0/Jw3nnzcG55w1CLExapBSRUQqhVwlpX6hB0+WlFVvhrmqFhbqE+OBAuqXvdBt30Wksx3aDVug20qvW3fBQJaI4cBBGIsrYGpohpU0KHb5acJVCCfCCA8PR/9+Sbji4jPw4F2zcfMN52DIYPYjH61NMsEMHkTEUt2CGjpKKppRXFot4tIjIryHb54IfPTpcpSVNR41UZgEEuLCyOqahFEj+rnf9QzWsE0WF5at2UeCqn1doCuMZLy/8+r1ZMEmuN/xDs5Nef/jdQj1ENasMzlw5rh+ou+59hiD3QkPPvoVoiOPTk6k2xBte+axy5CVmeCxbZ7A88tq1mLT9jKPaxBBdGm+Hidmdt4SgSPVXn39B7LgzB6FllgbCgrBNx/fg759U9zvekdVVQNefXspWDn21HQWwrHRatx0/XT08+N8DLmkVbiSdAbLoUXrzoed5nR8bDiRd3+oefsHArvoUxJDaSxkYnSXY8zITEyi7+b07b6aRG29ViRMchUBT/3Ka3cDcxIPkUpxaS3mL9iElmaDR4WB+zNMHYaXXrhWuPy6A4fppqfF4ptvt3gV5ozOpMLPdOnK3Vi+1ouiQJ1YR0T88du3i0AHf8Hla0hKY+2mIo/WCt/vtl21ZDVO7d79xbV+3iYT8I33lkGpDkIiWSiPPTgX06eOcH/j2MGhoexyWbuhAPlFTTQYLNASYdQ3GEQkAvubJWiFlB5GEB/cp51ay/kiTiILB3+PDjbzY2MjaeKEYkDfWDidVixYuFu4HIx6B0aMzMafH5qNYbl9209wCoEX+DlP4MCBcmwjTaOwRAeL3Qqb2UwEbIODPrdY7PTqEqHcTJIsCCTSILHIKJPJEEIapEKhhEQuRwwJj8ED4+hIIwGVKNxBPcn0Li6pJjN+PlauzyPhaMOMM/vTZLgOcbGHQwdPNKbNfpas3aaj1iEs1CdnjOmH5/58KdL8cGXu3F2IF/7+LfblVx+1cM+Cqg0y7Nn0kvsd3+BnkTngbiLjo33XzQY7Hrl3Nm64euohrXzR0q34w53/QbwHUmFfe+6gZLz64k1ITIhyv+sfdtE9nXXhS0iJPdotxT7v5IRwvPzCjaRMZLjfBaprWjBi0qNI8OKGa9bZ8OT/zcX115wtBFx34HXDR5/5FlIO/vAAtlLOP3cEHrpnrljL8Ac8J97/aDVq6ptJcLnf7AQHKV/9+yTimqsnILoXvA7s4ue6ZKUV9fhp6V7M+2GtCHjo8mgFOEn24rnD8cLTN4q/lyzbhUce+5jIo112dQVHyj141zm47aY57ne6BycuPvbUx1i17qBX11Nn91ddfQuee/ELLFmZJ/KMuoLdstmZsfjx68fd7/gHtoC2bC/ERde8hpgwsvA89Ee91or//PMG36TC5vGnX6/Bqy8vgCvYQcymwrOPX36ImXsTRqOZBnkTCg5WY8+BatTU6mEwGWEgK8lgtNDnVuiNNuhJ++MhG6aUIjE+VGTVRtJgiokKx6CceBKiqcjKSsKBvHK89uYCeq1Cc4MV06cMwaOPzhVrBz0FE2tZeS3KK5tQXqWF2eCASi1FRloUCbEYZGenwYsn5ZhB45g0Hq2IhmkmzYdzSLgAnJEEPFsiDA5xVipl7UXv1Ap6Pmoi1jDERLN14r8W4g0FByvw/Gs/YvPmQui0Nlx14Vg88cQlIkLkRIOjasZOfhIWq+6otQM9TdbpZw3Dy09e4VdOhiDM176niZp/1MRjwT4yNw2f/OdB9zu+wQrLzPOfIKF3dD6C1mjHHTedhVtvmHFoXeaNt77Ha+8uFQUpu4IXwufOysWVl046IufDH5gtVpxz8StI8kAQJA9EBNt/37sLZ45vrwjO2LQlD+de/hpS444mIv4NR9At+Ob/yNJK8ShUu+Lvr36Nz77eSPLGs0hp1ttx7x3nUp+cLTTfkwV+ZiaTReRZ8KI+R701NRtRWU2yhtMDtHrkk7K760ANwlXec2w6kwp7RL78diMeeuwTxEd7LpFT22TDygV/El4Kf8GRgl98sxp/eeE7EfHoCZ1JheubXX/LP4W89NRuHpNPPHwebrx+lvsd/8HV5m+68w0ier1Hy5bdajdfN9E3qSxetgPPvfQ9aYc6UYPoBZq05870vbjUG+CoAyMJ8hauEktMrSXzXM+VNOkwmJ1Cm2RSSU6MIA08TPh52ZTr8PVu3pqHV95YIAqnaYlQ5pJ29Oc/X9jj3As2uVeu2o0V6wtQW9OAetKaquvIiiKrR6WWIDWVrk/XTklOxoWzB5G27D0R63TF/gNleOzpz5FfWAurwYW7SNN64O657k9PHHhBesJZT8Fq9kAqJPxmnDMCLz91Rbd+ekZpWS1e/Mf3WL5qv/A7dwbnLkyflIM3XrvT/Y5vsDC55KrnhKXd1UXCCtBN10/CnTefS6TS7jq8+4E3sXhFvsfSJ2xRJCVEkLUdISr29gS8hrNpa6GoKeUJNfUWfPjO7Zg5/fDaw3c/rsHdf/rCYzQcu3Yy06Px77fuofnln3V6w22vY9uOYq9CWEcC7bFHLsUfr53iF0n1JrguYUFhJfbsK8f+/Dq06ExELHQYzG6CMaGq1oQ2ahevtclDgkXdQl/t7Ewq7Hb68POV+Our80iTP5owWdMvb7ShZt8/PbqdvYGjwZav2YerbnoTiVFKj+3pIBUW5Dt3l+Pci15AfIzneVDZaMG8T+/ymNvTHRqIB54nK+inJfs8utZ4/I4dlSFq1XnEvv2l+OSLVaIYXAuZ8ffeORuzZox2f3p8wQvq7PvlqKwRw/th2pRhuGDuONxwzTTcc8s5uO/WGbjxurMw4+yRwpWVkBB1iFB27S7CW+8twr68SjTXWXHZxWfgsccu6jGhrF2/F7c//BFeeXM+5i3YhK3bi1FaSVYKacV2mrcmEj7F5S1kEhbhm+9W41ki32de/BZV1Y3uM/w2wJFLTzx6qQgdV0dI8eX/1uGXRVvcnwbgCywAeLG3M6rI0uU1NU/gCKeaWh227yrB1m1FPTq20OGNUASkQeAS76ywdYAtcG/cxW6S9LRoIVz9RWmFnhQ+9x9dwJZPVDhZ00RgJ5pQ2OV4+0Mf4s/PfI033/0FX3+7Br8s3o71Gwuw90AVyitbqC8ciCQyiAoNEUl/IdQxPWknb4tgNJhIg/f8I+6WfunhPSIUBisAUREqJMaypeulc91g4jKRxergBEYv4FJCcbE9c612gKtHR0WHCaLzBElQMEpKGz2Tio5Y/LPPNmDbtlKRGPjHayfjorljqZNP8GjoIVirfp0GzdadpWTO2nDhBSNw372zkZTYHj/vD/SkuTz9/Kd4+KmvsG3LAZETwREwXHzwkrkj8Oj95+HFJy/D4w+dj8suGCVCBy1EMIXFdTRY1+H+P32KVWt2u8/228Dw3Gw885fLUVNNWp3Fhjc+WI7ikhr3pwH0BI3NRq+Ch8EWB5MDZ8v35Og2qZMu2U4qhwUCh9d6A5MAB20EuwMM/IHFygnN7j+6gFeqVCoZVF7yeo4HeH3hj3e8iWf+/j3WrduLwsJqGAxWYSUycXD+C1uX3OddRRvfP7tCbWL9sns4XS5YaW54ewycr5aedGxrPlz4lXOvvD8tN6jRDnrGYpsGb6Db6Umx087ghN4wDSdHegb3oVZr8Uwqi5btwLI1O+BodeLMsZm44arJR0SNnIooISH3+r8XYtXGg2g22DB75mDcf895wkLxlws56WjWla/ihwXboSMLjclErlbhr09dhs8/ehCPPngJrr9qKq64aDyuvWIKHrn/Ynz7xf/h2UfPFy4ZFrj76ByPPfsl3v9oMawc4vYbwYyzR+CRB2aIEM6Sklq89PYSGh/ehlcA3sCh7ey+PRloJ5Qjr+1rbnA4rp9TR4wFX7fFH7HW3TXR8HiBw1svuvJ1bNxyEHqtSaydMYF4c80x2H3DnogmnQ31pJQOG5yCKRP7+0csdIP8XL2dnT871tpbwaSEcJANWyLdgr/ii33oc3/lYVfw9Zk8fYEj/I66y6LiKixevhMtBovohDtuOReZGf6HN54MNDRo8c6HS/HzL3tEdNSUsdl48M456JOV6Pcgnv/TBlx27VvQ1jUIf3JjnQ13/nEKls1/AldeMgl9M+MQGRkmdkTjcEAVsT1na2dlxOO6q87Cwh/+gnPPGoSGeguxtQkvvDQfTz73jWjbbwFczffWG2diUJ9otNEk27+7AAt/3uj+NAB/0Z2mzlnadS1W1DX37mFttsNhdvgnmI4BXCaFK3e3S7WjwbOQ159cHIFynMEpCjfe/W80tTQJC65rDlEHOMSX+7uk3ozCEr0gnDnnDMRLz16K5Qsexeuv3IKsPqkwWPyzVnyB5ZCerKRjAnUpPzd/ZHC3a3FkePJzOBZwG3htyheio1RHkgqXa/554R78smifiJe/+orJGD4044RpF8cCjt54692F+O8n66BQBGHEoGT86f65GNA/za+HwJEgr/zzWzz0xFdoC7KLhVrOKVix8P/w8H2XIjpc1W0+C2sRXLvopRduxAtPXwyrrZVMzGB8/MVa3PfIh6KcxnGayycUYWFktT1zPZoabKis0uLLb7cJF0MA/iMyQulN7kJPQv+um8/CZ+/ejC/ev6VXjx+/vQtTpgyExI/Q4GNFEK+/eJlzvLakN9hgICF+vPHZ54tQU9Ug3IKewFZDo9YuNqd78M5zsOr7h1BT+g52b/oHXvn77bjikqkYkJMq3EQsQ/yZurxOxsqmN48ik1th6bHNFQvXEqzVu//yDl6LjgjVIMjhnTQUsmBU1xzbui+Hzzc3ceSX52fM63CpKVGHSYWFXn5+JVas3g6lSoKRQxIxa/qQQ1ErpyKYBL/8eh3efms5omPk6N83AQ/dOwe5Q7Pd3/AOJpOiohrc89D7ePfDlQhua4XJGSzWTXZueAWDBvZ80yq2YrhcxHtv3kokE4WIKAXWbSnEXQ/+Gzt2FbnzS05f8ATr1zcJt90ykUYwWbWl5Vi4ZNsxaz6/R3BJfLaEPYE3gUpIisWE8UMwZdLwXj848EXagzWSnqJPaihp++4/uoC5plnvQLPO2iNriccWV0TnCC0OLDj6sJDQtR06p8nqwOff7IKVXj3xGxNKVKQaLzxxERZ+/zjuuu18EezjqdROO5t4d2l1Bu9rz/OfC5B6Q32tReTq9AR8Xzoi47Iao8jF84hOna5QcsIkb8fhuR1cfZhD6o8FZrMdeQePzu3qACedc/WIQ59aLFas25CPjRvLqfESTJs8nLT9wzWLTkXU1mnx7Ks/IjZViTQS4nffOgsTxnUfKmcwWrF89W7c/8jH+OnnXWRpBCNUpsHfHr0Az/7lOve3jg38fKedORgvPnMVRo7oI8rVFBY34pa7/oX5v2yF2XJ6r7NwHsj5509CqEaJ2gYzVqzNF7WGAvAPGRkJZA17JhUladbV1JecEX46YshArhHnWeAwgonPGpq0IhjGX1RVN+DDT5bgzXcX4O33fzrqeP3t+Zg3f5MgGEZ+XgkJdotYh+gKFrQKuQxXXTZJuKw1NIZ9weVywUmCsmsIuyewt0KlVsLhy0oIl+JgXrH7L//ASdGl5bWiHL83yOWH+5xz1oblpom1O09QyiVYunKv+y//weTGJfS37av1aqlwwvrgQZ1CiiurW/DTwi1QhkqROyQV0yYNEOsGpyqYiBsaORGRc+qDkJWViDNG57g/9QweJJwc9MGnK/CX577CjvxyYU0M7J+G19+8HpdcNLFHWee+wNoPZ3ifN3UYPUi5KD53+0Mf4cMPl4uExtMVPJz6pkfjiovHivDUvbtLsGFTgbD8AugeQwZnkmLhua94wq9dn3/svveTjEED0uAjmlXUzyojLbkn64x795fhv5+ux7/eX0HH8qOON95ZgRUrDx7K+K+oaBC1xzzxgMPVhhSy1qZN9i9Hg3NPmhpbSDP3LESZpHitkcEpDUkxkQgLkQnZ5Alc1Xn+zz0Lx+dtRlav2Svy8jyBF8YH9z8c3cpJ0AMHZHgdYxywMH/xgR67rdkrtH7DPhHs4G1ZwWAlUhmY1U4qDoeTHl45tm2vFAuJI3L7+FXr52SC7ys2JgL9SMAxQ+49UIn3PloqSmZzqXmuMMpFMHnNpba2WZSx+PjzVXju7//DP976CU31RiRGhmL2rOF4/umrcMaonEMDs7eQkZ6AR8n6uerKSQgnDYKTop574Qe89I/5ojzN6Qp2iU4YN1DU26pvMoscCU6QDaB79M1OJW1Z6tE9wW6FLbsqsGlL/mnpKh2Wm03Ch8vXu9/oAjkJpK07SrFnf4WQOd2Bv7N1WynsDhsiQuUIU4cccYSqQhAXp0JWv5hD+R+coOek33kSe+yaCg6RIzLSP5d+Tb2W2lou8jM8wU5WCZd670BqajgGDUkg8vL87HhztZ+X7kNNTZP7Hd9g199OUtq48kPXJN0OcITqtMkD3H+1hwtz1RA5fd/Tc2BCCFNL8fo7P4kqFf6ioqoRX3y7wWspfo6cG9g3Dikpse2kYjCaiUE3QhkuQ1p6DCaf2e+YY5lPJBISIvDQQ7OREB+OouJG/PujZXjh5W/x/Mvf4em//4CnX/oeT/79ezz/ynfivb//4wes2ZBPWoWETPUU3HXLDDxw11z0IyvHm7vy1yIqKgz33T4DD94zFylJEQiNDcE387bgxdd+FAmWpyv6ZyeSNUsaH42g9dsOIo8swAC6B+c7TZ/UF1YSBl3BYzCCFI833l2E7TsPut/tHux+/Otf5+HZV70cf/0Bi5fsPOQiOl7g8P3hAxNJWHl2vbBAM1ns+OaHTSirbOp2AXzv/lIioWLYmCQ8zE8HCbLomHBMHne4lh/79b2t2QjrpdUFm9V3BBODLYR1Gw7gYHGD1zUEdmN2LoyZnByDnL5psHixEji6jMstvfmfJaL8SneoJEH+j7d+EVG43uSTXs9bKh8u4c+Kcf9+iRg9Il0EHXkC7wH07byt+HGBf9GbBoMZr5EiXl3rfR+jFq0dN181UVReCeYHUFHRhBVr2IQMpo6Jx+BBPV+kPhngLX5nzxyNvzx8Ea64cAwi1Eqytqowb+EufPntenzxzTp8/d0G/PDTdmzcWgq9yYnM1Ej84erJeOKxS3H5ZRNOSOl7LrF92UUT8Pgjl2DYkFTYSJPhkhqvvD5frLP0RGM4VcBkOWxoBiJDFaIeGlcwsJzm60UnAuxevWDOOOh1noUKZ3JXVDaLWk8L/AjZ5j1mnnj2f3jvw0X4z0eLPR7/ePtnEo51XjP5exM33TAZjc3eBaaGrLSdu4rw0j9/EPX5vGVnFxZV4b+friANuQHedh1kIc0Lw52Datj9w7spegK7sYw6PQ4W+V6oZlfPkhU78OnX670WcWSY9E6MGHY4KIhTDHKHpCMmUuV1oVwS3IafftmGt99fJErle0N+QTkefuIrUbvQU2FIBru+stKjjpLXKUnRmDJpiGiDl2aAja/X35qPDz5eIrw53rBvfwnueexTLF2xGxFetu/mdqSnRGDSmVwCSALJnx599KmFizdjycoDiI/VYO6s4Rg35nDRuVMdPEkzM+IwPDcTZ4zuR0c2BvaPR5+USCTFa5BJr7mDkzFpfA4unDMW114xCedMyxWuqd52d3UHjr4ZOiiNtAsDtm+sgNVlxa69ZaRdOdG/b5Jf+2ecKuAw89ZWJ/ILq0SZ/OgIOUYOzz5uSbJMvB98vBJOh00Ik86wOVuR3ScR50wZ7FcfanVGrNuYh5Kyo7XQ9oka43eNO1bKvv52NZpaLEdpceweGZGbgdEj+x5yz3C/cZADF+ssr24Wdaa6gt0k9Q164ZJevDYfwa1WUrA5CsomvAq8JpFXUEZK01p88Mlq7NpTKgqccoY4C6DOB9/P6JFZuP6qSaQwHlkZeOfuIrGPvCfXCoeH8t46Y0f3F6Gy/oKrK69ZtwvNWt5jxoNwpy7i51de2YhVGwpRXFQOl8shCsrW1jUhL78C3/64Ee99tELU6eJ10K7Pm8Hb/iqUKjx096wjrAWuarx2YwEsZI10/V1HWLOONO+c7IRD+wh1RklpDd54Zz4+/mYjtCT0vYUl8/49k8f3wTVXTnW/0/5sNRo5DuTXoKi4nsbi0b/lNrWStbRnXyW27y6D2cjE0gYrEVldXYsQ4p98sRLv/HcV9u8v87ilQgcaGq24/66ZQl53VhhE0IAyBAVFtSgli5Ddjl3B7WCrcfeeMqzfUoKmhkZYzFYiOh3N5wbs2FkoPD+fkGK+c1cxVDRGPDwGgaY6bse5OHPCQLq2BEFarb7tj7f/A5u2l9PETMCLT12JoUOy3F8//cB+WI6w4g3AWFjzpOdwP/Zjs0uvJxPkeIGrMX9EAvL1txcjKkZOAyIEl180HrfffBYN9BO3adivBa9ZvfDKPHzxv7WIiVDi32/eTsRyeFvX3sTpWFDSYHbgpusm446bZx0Rms+/Wb12L+5++D9icnsSmgzWNO3ONkSEkfYdEgJnK+dMBEEaRAzb5oKdxrnV7hShpp5OwYTC4/6eO87F5RefeRThfvTpIjz5tx8RSYKwK7ji7LWXj8W9d1zgV+Xnztix8yDOmv4i0rJ9V8pm9xEHJyjIumhrc/ddWyvNXbuIemq/r6NvjLVvdrBdev5o/N+Dl4pF8g7weup1t75HxNt41PNgcJ8GBUmQkBBOpJAjLAsuIVNPRL1idT72lzSj1Wykfnd5dXsxyosMWL3ysaOsBA5Y+ea7taJclIETyD0RK4ETL/k+WPjzOg9v/c2KA0hRc9L9c7FKT+3vAJMab7b3+ks3iy2Vu4Ll4PfzNwi3la92cH/wZdVKGaQcZOCO3Wp1OWmu2cRaia9+4ErWk8fl4Ik/X4a0VN6MjgiLY+YXLS0UA1uu0KBvzqkdRtwdmKU5qYkrvfKe2eznTYiPRASZpqcCoTB4Z8I7b5uJF565VGizTocdH364Es89/7/TqiClKPpJliAv/FXXm1BdqxWaZQC+wVolRyrecctskYTHwsUTeE5yspqFJrdea4BJp4dZp4OBXo1E6LyjJxOsB7krlCme27Nnj8WF5084oVZw7tA+eOrpOWKLWV9gi4yJz8hbOhiM4uAdMdvDeL1HGfF9cYWLB+698AhCYaSmxGLY4ASvglAQOBFXTU0zvvh2Ix556ms88uQ3+MdbS4TFZzPohUvOlyDlSr+P/2W2x5QL9n7w9upjRg8QYb3eni0TJj87m9UOk94Ao1YHs8EAi8kilA5fhMKERNIfD97DW6F7LpTLcnD2rDNw9vSRdD4mMM8N4f5gtyDvSGokC048AzrYauGu8tUPXBstOUGDG66bQv0ec2gcBh8kMzxIHgSVQoK+GeHChA7g+IP317j+mrPw1j9uQShpiiGkDH7x8zb86alPUVHZ4P7WqQ2e9IMHJAl3kVQahLKyar8WIAPgRFk5rrviTDx89yzoTXahEXoD93OHEOKD/83CgP7vEax9sqUxfdowOv950NC1TiQ4s/umG2fiijlDUKf1HRzAt8D3wvfU3X0x2JKUymR4/+07Pe45w9fmrRlcJqkQpp7A52+/JglNsvpCgnmHSz7a+9fX9SubLLji/KG4+YYZXteoNKoQUXC2b1IqjEYujeP+wAM6nm3n+/cFHie8L82fH7kE488YIO7XG9RkBT1812yMPGOgsOZ9t+Pwc+DX7trB7lFe63rongtFbmDndgSzb5ezLPmC3/+0DcMm/R9e+PsXotJuVXWzSFRiQRHQQHsf7IOfMXUoXn7hOtI4YhChkmHdhkLcfu+/UHCwSuSBnGpgLYrHA28YVkXaXl09WSfsZqExxP5o3jkvAP/AyXf33DkHr/3tOmjIkjaT1cqEcKzgn/Iuhbx/8OUXjsXfnroKarXnDaOONzjH7bknriViGYEWnVOMkWO9Nf4dE4SZtwNPj8aqhU+Kzei8gdcu//7yxfR9soSElu7+4BghXER06JqcuOf6yXie7ou3pfYFTnf48KNbMPqMvnDwc6F5481a8AfcBrYMFPIQvPzMFbjionFkfXoOM+4MbufbL16HC2eNaN8p91f2h1BY6DlERofi+aeuwJzZY44iYcmwEWc9tWtvpQgF4zUpl92BzTvK8dk3m/DJlyuxa9dBVNc2oUnLZikXhOP4cmJ11ph8mEYB+A+eBKzxF5Y0gkvtNzQZ8fPCraIkSnJiFPXzybMemUS42kJzixFlFY0isICLb771zk945sUfsHDpXuEDF/Xh2loxg8xtrhHW22Cl84MPl8Fis7LlLyZ5x8Gx+n2zk3DOVP8X6tesO4CDRQ0kf4OOOBfved4nIwazZ/m3UN9K9/zl16tR22AiFa1Lu6wujByWgTGjDi/UdwV3G++sOHlcP7H7YGOzCQ67UwgQBs9Xb24gugT1Rfu1OJNbSZpphDICTzw2F7fddG63QofDlpetyIeMFILO7e5oe+6QVLEIfKxuY17DnDh+IBISNMgrrBM7yXLILwum9lvybW3xM3c628Tir7RVgdv+OAmvvngzEVb3RMm5GsMGx2PxT3kIktH9iLDkjot5vy5d9lCf8npWED2gkBAFjYl4PP3ERbjqyilkIfk3vnnP/EvOH4vo8BBs31QLiZIX5J1kbbSXfmnvAmoLv3YB3z+PAP5uK31HIZFj+MBM/PXZK8gCHd4jmcAuwhlnD0d8rAo7NlWjTeqCiXePpQu390P3z4ETR7n/FHIFRgzJwgtPXEbP1nMSadAfb3upbdnqAsGAIVGRcDkccFotaON6OqQpc8dydI3RSoNWFoQp4/sInykLwsx0Xq+IELsuiuJr7pMGcGw4WFSJ1179Bas2HCCtwgnee/25x6/AeTOHn9AabFwmhLdaravTig2MysprsGtPMZauzofJ7KJJJSXTlyYbCWQeaHzwBOCp8v0X/4fsrIT2E/UiuLT6LTe9gSoiNyGJO6GVxug5U4bg7ttmCMHaHWpISXr//WVYuf4gTfQjFSO7xYVpEzPxxJ+vdr/jG0y6dz3wDvJKWkj4HXkup9GFqy8fg8sunditZtuB3XuL8NlXa7H9QC0cZhPMRgua9Vbw2ryYYDz72yWfWFxVaUKgUqshl6lw5cW5mHPuOOFa9QfffLsK//rXasgijiYfp8GFSy8ehmuvOcujm6mn4D7/ft5GLF9TQJaLEQ5SDqxmO7QGljN0M+5HyrenVEhFFJVSpYQ8RIVJ47Jw+cUTkJYW59Pd4wl83Y8+oWe9phh2lwVmEx0kUFm4dy0Rr1RK6NoyKGgMyeRyBBOZ9O8Th4vOHY6Rw/v6/Qw9gT0+y5Zvw7cLdqKWlIdWvn9S1swmh4hUa2VHED9aOsLpmcqpHSoOj5YrkZoSjesuHoNRI/qJ+mK/Bhw5uHDJFnz9wx6YbWZ6DhZYjDYY2QVL88i9Ti/Gl0IhIQLnMaZEELWjX3oMrrr4DIwemSPkvTcEzb7gsba8wgYoIyORdNXFcJktsNbVwVbXCBc/fKsZLoOe/m0Qg5lJxkz2HJuz6clhGDU8C1kZqeiTGY8+WbwwHiPMem/aVQC+wZnpr725ED8v2kJ97UBLsx333nYOrrt2EhITjgwJ7S3Q+GmvhFrdiKKSBhQU14pyGjt2FyP/YJOoo8T1hZRcf4jGQJBMBklEOGQqFaQaDex19bC3tKCi1oI1i5/EwJyk9hP3Mmpqm0mL95y4pqYxFxEZJvzk3YEjY7REmt7yalizi4/3f3c8jubjLG5PCA1TkuWm8Rxe6wMcXlpQWCHCanfkNZCi5yKN0UVCp43ukTT3oGCkp4Qhp2+csHRyBmR6DB31BR3Nb96QzxvkZF1xHldveiQ4ka68sh5FhdUoLmtAXlEzWjlYhZ4bPzpWVGJJo87pEyusz5x+aSLw5teA3U6NTTqRF1NUXCN2bG1osojrdkZ8nJLmWCjSUmORRnIsNbV9u4veBCshtUR0xaU1KC2tR0lFM+pqSM6yj4y7mRSTzBRqQ3IkKe1xyMhIEoE9vQ12rXNVj+KSWuqTOpSWaWEwOtFK+oVYUyH5Hh2toDZEYWD/ZHpNRLKfu+cGjZl0X5u2xYyQiEik3/oHBGtCBSGw9tBqMQlhYW9sgq2mAQ76t8Ogg71ZC5feQIM8SIR62i2tiI9RI2dgEtJTk0SeCCfGZWUk+mS0ADyDhd1HX6zGJ58ubXc7moNw4SWjcMPVkzBoQIb7W78eHHpdVlYr9vLfm1+Pyooq7NlfKfbh521kSVGhcc6UE0QkEgZFTAxptRHiUKQmIIQUEVlUNOoWLIR28xZU1lqxkkhlyIDk9gsE0CvgJ8BlWxw2JlQiFSJ1rjnVxWA7rcGWKDuCesiLAfQi2GBkt1/7Yr37zWNA0OCRd7RxaKIsnEjl7psRLO3kk3ZbGxxDza4wEb+t1QtysdcR0WibYK+ugaOeNDX2l9KgsNnbEBejEgUe42KiMXZ0qgif7JMVEDQ9Afsxf/5lM15/ewEKy5qFf3zC6GzccsNZGDvmcK2fnoJd9cVFlaK+1KatFURaLSgrrUV1rVFYIzypJfSsg5UKyJPiIScikUfHQhYXiZCoKKF8UGOEVskaYJBEgroff0ILk0qdBct+fhK5g5LF5wEEEMDvD0E5ubeJcABZeATS77gJwXIflkUHybAl43TCRZaMk0mGLBlzbS0slVWwllWhlT6zkY7rcrYhIV6DGCKXvkQy588eKorOhWp6fyH3t4qNmw/g1TfmY83mUpG13j87Abf8cSbOmprrl6unA+yi2bI1H4sW5aG6oRF1dNTXk4VKRMLKocTlgjRcA2VWOhTJqZDHRhOBhEEaGkoEo2pXLGicCHS8EgSpzPs5QCoBBBCAwBGkknbrHyBR9cB/6SYZsBVjt6HVaoW9xQBrVSX0e/fCUlgOkJnuCAoW0QoREWpkpMXhojnDSSgOQ0S474zbANqtgQP5FXjn34vxzddbEJ2oRGxsOO64eQbOP3e0z2gnk9mK3bsL8b8F27F1dzkcZjN0zWa0BfMjp2dO5B+sUSM0dwDUqWmQx8dDGqYhxUIh1k0OoROJdAWTTe0PC6Ddug2V9dYAqQQQwO8ckpiEUU+JfyjkCB0yEBI1kYoPIeIRRC5BUilptErISLtVJichbOhghI0YDolSitaWZrQaTLA4XGIPlGVrD+KXpTsRIm1DZnq8R8HIeyFziWguW8/+5BC57HcZwsxWYUx0GIYOTgeHr67bWETPx4nlawtEqOWAfkfWDOMnp9Vb8NU3vGfMN/jkm00oKa6GifqfC+UFOx2QhUgRMWIQYqZNQvyMsxHavx8USUlEKGGHSkb4DRorhn15sFXXQG924fqrp4iS+AFSCSCA3ycOkUpwSAg0JFxkJFh6TCpdQUKJSUZKWrA6uw+ixp4BZUYynI2NcNY3EzmQFm2y4rvFe7Fk6TYM7JcoIhxYgHI9qX+++T1uu/9D/POd5fj4f+vxL3qdt2ADiPeQnZUkShCczmjUmfHs858gMSEScbGH92PwBu4Xzv0YOSILKk6Q3HQQcuqCxb/sI+HtwpAh6SIknGta/fPN7/CHmz/A5h2FsJotCCIiauM6SkQ3oQP7IW7mNCReOBdhAwdBHhcvnnuQhE7WYXX2BPSbNoedSOUA7A2NRCrOAKkEEMDvHEETz3qwraHBSJaKAnEXzCJhM1gsyvcqSPiw752pylJejoZFy2ApLqX3guEkAisvN+HuW8fjgrkTcMd9/0ZtoxlhGhl71UTyjcS9eFDbbMOkUSn44J17RLz2tu0F+N93a7B0VQGKy/QIVUkxakQyZp41FOfNHif2N5Cd4ErE/oB3nxwz4UkkRofib3+7GOfOOsPvislsbXz+9Sq89e5CWIks6ppsuOqi4aiva8H8JYVIjFdATYwj1AJnK0LiohE5YTTCBg0iK7Td3djWW9UR6Lk6mhpRO38hzMUlYk1lzaKnMLD/8QkpDiCAAE59SIaNnP5UfaMJbdJgyGNjoEpP//WWiicIhmgVllD48FyoMtPaQ5OtVkSGSrBrfzU++nK9KDLH+6QkkDC88pJRmDNzGOJiQlFDRCMNakVNnR5r1u7Cho378een5qGspkloxTHRCqiUUhKyJqxaX4j3P1mJNqcd2ZkJ3e5FfaIRTlbHoP7xmPfTLqzdWkD324acvik+10c6wOQzPDeLLByN2O2Ss6YKCuvQ0GxCbKQCUiUdMrI6hw5A0sXnI3b6WVCmprVbI/wMevPZEqnYGxqgy8uH02iCxegUxeVi6XkFEEAAv09Ipkw7/yne3Uza1kqCRybWQk4EZJGRRC7DIA1VwlFTD4nTBpVCCqVchj9cNRl/f/5aTD5zKAYPysLUybmYPT1X1CIrr2hCi9aC0vImaEJDREZ/dGw00lNjEB0TCYlSKba8DEYrli7PQw2de9zYHGHZ8OJ0x17qoqzISQJnBWdwYlN6JFatyMfmHQfJOnSiT1YilCo5yeru29Y/J1XsJJlfVAednktb829akXDeDCTMmYXwYcPbgy7ouQoyOQ7gtRdTUREMe/ejzeFERIQCV152JqL83K41gAAC+O1BMvu8y5/atqtclD+WEKmo+2ZCojhxIb+sRbfBBcP+QvDO0ueeMwyP/d9lR2ntbG2MHZMtCi42NuugIPIZOSIHD989E/ffeS6uuvRMXHbhWFxy3kgM6JeA2kYjmrUG7NpdDaWiXUhv2lSCbXtKsT+/CnUNWqHlKxUhJ2WNhi0O3lwsLjYUWzaWYP2WAmj1JmFZcQaxP8SSlZmIflkx2LG7FHq9mTdZQOy5M0RSIod8E6O0f/F4weWEYfd+WApLxLPLzozG3NlnHLeNugIIIIBTH5Lrrr/lqcUrDpCQlqCNiEWREAtFfPzxcYF5AGu7zRs3wtbQBIMFeOe1G72WZVByhJpGgm/n7cRtf5yOJ/90MbL7JB9BQPxv3tVxxNA07Murgslkwt595Vi/cT8++XQ9Fq/ei8XLd9PfeWJto65Bh5ioULEQfqKtFyYzJpaoKBV2767EBiKWukYDsrPihbbvT3uSkmIQ1ObAqo2FvDc0gogfNTk5x806OQReT9Fpod29F/bGZpERPSI3HWdNyf3V9YkCCCCA0xeS++574Kn/fr0RYWoZ2ngXOY2GrBXed/nEkEqwVIrGZSvgMplhMLfhmccucX/iGRzlZCT2eexPl0HuowprRLgG0ZFKzFuyR1gkFXVkBWSFi5pCvEVnPQnvguIG7NlbioIDtchIi0ZcXLhwTZ1ICBLMjKX2KnFgXzU2by9CaXEjsrKikRAf5ZfFwvvF//vTtZwSBNhtiBo/rvcW472B+slaUQnttp1oczhgtbfi7KlDcMaoHFE761QCEx6XoOCDK/adRM/nCQXfL5dRMtm5Xl8r9UN7X8ioA/wYVr0GrrRroDYYbK302gojHVZne/VbUZTU/b0AfhsIKi2raes7/GFkpWqEIFJmZiDxwvMgi4w6IdYKh7SWvPEWLDX1aNC2oib/dfcnnsEVdNnVwzs7dgez2YqhYx5GYqIal1w0CYP6J4utWY1mG4pKGoX1smVbEfQ6G3JzM/Cvf9wkSs2fDBiNFvz0yza8+tovqKlrRv++KXjiibmYOH6I+xvewYUBh01+EpoQFxSxkejzwH1otR/nfU2cTjSt20AKwUoR2VfXYsWrz1+Ni+ee4VfAwfFCi4UUCKMT5QYnqkytMJFAY6HWARamXNsoTBqETLJ6+0WGIJFe29ekfj1YWFbQtSsNDjRaW9HCAp2kZ4fdKKfLRIUEI1oRjAS1BMlqKSKUkh5VR/AGvs2DLXZx/TKjC9oOIiH9ggU4l+DhyyhI+YiXByMrTIascCkSNL3v/q2lZ7C/2YFSaksTkwi1gcundzwK3kuIizor6dIJcgn6R0qpLTJEUl8EcHojqLlF13bOnCfRojO3FxIjSyB2+lREjj3j+Gu7BBZI1T98j+Ytu2GyAr9884DHbTqPFa+/+QPGjx+EQQPSjihuyXs7cOmST79cgR8XbBNRY08/egGuvnwaCcXen2T+gElw4aIdeObZ76E3mxCTGIm/PDQbc2aPc3/DM7ZsO4Brb3sfEjgRmTsAyZdddnyfHY0Te30dan5cAEtFtbDuWgx2/PfdOzB5wkC/rKveBAuqUr0DS8otKNS7oCchZiPhbqGD/u8R7QKNyIUEWr8wCaanKZEdITsm4c6X0BKBrKq0YFuTAy30b4ujDXZqmJ0EKQv0jmbw+dlS4GKdUvojlAgmURWMkTEhGB4nRzgJ+56Cr7G6woIVdXbo6Np87wY3oXiDnNoQHhIEFV2/X7gE56arkBr268d9XrMd3xdb0EDtMJJlou+mHQw59YNaFoRoIpQRUVJMTVEilgg3gNMTkscee+ypmtoGbN9VITbqauOsa5kMqvQUUa7jeIMFUDBptrr1WyFTylBU2oDZs8cIgusK1uYlUokozewvBhKZZGYkHLUYz9n5EREaDBiYjnWbilFL1kFhUTUuu2iC1w2VegK9wYSS0lpqb7BYC/IHYo0lMx4ZmdFY9Ms+2FwWrNp4EGp5G4YNZZfk0dDrTXj4ya/Q0tyCYIsdMdMnQxGfcHytTCIsY0EhtBu3IZiUAt7VbnBOAi6YcwZiY8LdXzoxaDS78EmeEd8UWXBQ50KThQR6JzJhA8TTwR/biXeZgKpMLmyqt8NG/x4YHSKsGX/B51lHZPLKLiO2NzrQQO1hVw+7mZhMGHy+jusymATpUmILCS0J3hq6/h7S6jfW2iCh55ZMloO/lhNbJi/vNGJltQ31dB4TndNGF+BLd1zT08Fy3kIN5OuXklWzi9rO21mkhUoF6fUUejrPxwcM+IYIpVTnFH/70w4+uD/4mTEZs1Kwm4hZQR+kUD/w5wGcXpA8/vjjT1ltLnz2/RaEq2RiBrhIS5YnxEMRF3d8hRODzh8SEwNzWTHsOgPq67XYvacIo0b0OaLw5IG8MvzhD//AkMHpSEiIFGTkD7rz76vJetG2NKGgoAp5B1vIUhmPqMhfn2excs0ePPzw51i/8QCGDcsQG5n5A44Ky8pMwNChSfj0o03QhAdj/eYSGA06DB2SKXJ4OrBj10Hccv9HKDxYKdwa8tgIJF144XG3UlwmIxpWrYVdq6VJHyQ2E5s6aSCmTh4idrs7EeBRWaZ34s+b9DjQ4hDaOgsnHhZ+Do1D3+Vz8e93tzixi8iFrRZ/8fk+Az46aBbWQcdU6en1GVw9msloGwl3Pc3HwURu3RHLxmor3t5nFKTE1+58Pn/R8X0mo91EbA1mJ7JCZVCTBeMvqgxOvLbLgK1MzNSPx9oOPvgZ6ohxtzQQydFN9Q2X9ZprMoATg2B2XQzsnw6Ve9c6Fta8OZdxfx6cel3PR8cxoM3pQuqNN4qNjFytrVixJg9jpz+FG299FU888xHOv+xZTL/oRazfVQN1qH/htj1Bv+wkqDQKSOXBojZZb2DiuIHIHdcXi9fn47Z7/4XSsjr3J92DiWXa1GGYN/8eFJcZud4z3v5gFQaMegRX3/Ai7rz3DQw782HMuOQVVJRVg74u+i7j7ruPv8uSJrq5pBymvfmHNp4yGhzI7pMmgiNOFAq1Dty5qhkmEsC9sR7BkNF5ComoHlnTLIimO3yXb8SnpJn33GHlGTys+Vzzy634Ms/Q/qYXFDTb8VmhGY1kmfUa6KZXVNnwzl4DKqkf/EE1Ecpbe43IJ2LvTXBO2RcFJvxUSoTdYfIFcFpAzIfwUDkuP384zLzFJkMmg37PfpiKSkh16MVB6wPs1sp+9EFoUuKhJusiTC3B+i0l+OLbLWIv8Rhqo0Imoeb0/gATSZGuVjGpTUar2PrTbLaJXdqOFWq1Es/+6QLMmT4CeQXNuPrGV7Env4ra7/85x44ZhL8+fi50JofYYjQ6XIoduyvFlqwuqx3xUUqEUL9p0lOQ/ch9RIrHf4HcZTSQlbIKULW79NhlMmxIPAbmxJ+wfB92WT26XgsVsUlv6zysFOeRQH1rp+6IBf6u4LWDz4hQQnk3zF6Gmu7rm1IrynWeBXsLEcnXdO1qo6vX3UMhdMJtjXYsKrdAZ/M9Vnkd6fNCE/KIUHqL2DuDXWBfFpixrd4mLJgATg8I9xevL1hI4/v+l53QKKTtE5UEKpdQUaYkt1cuPt4gwc7hxRG5QxEcphLhzVJqCO9TLVGEkAbO++Q7cO7Zg8V2n71prezaXYT1mwqIQF0oK63B9p0F2J9fDovVRYJSItZY/K3N1Rm8ljJmVAYO7K5GQXEd5v20AUMHpyE5Mdrv0OW0tHi89M9FiAwPEWtdirAwyOi8MqUSSiKT2GlnIu7s6e374BxvBYCeUeOatTDuOgCJm0DMViemTcnFuTNGnBDXF/ven9qghc7e7mbxBRZEHLKqkgYjiLqbF6fZzUS34fO3PO5qSGCmcXRW6NFEya6yN3YbxBqAN7AMVNC1lbJgqMgEYneSmv7Nrhz+jNvmqx3cBg4DHpt4ZJ+ynrOswoJ1NaT08Im6Ad9/CBGfgvqACYivydfu7v73ElH0ISWG13f4d13Ba0bLqR3LKmzdWnX8ew3dPwdGiFfuB2oXzyhexPfaFnrfQQ2uIJIfECVDhEISCD8+DXCIVDjRbtOm/dCTps7hfpyUaK9vRDAJClVaKv19gqIx6Dqq1DSEjxiG8FHDETEyF4rkeFiqatBmMUOjlmLC2IHHJOQ9weVy4cuv12PX3jKyVmgA1+ixt6AOm7aW4Ieft+HAvhKRGxMfH3ZMWyPzutDgwQnYvbcKFbUt+OmXrejTJ0HsP+1PKX+2zF57YyEiIkKg6NsHaX+4GmG5gxA9cRz10XDIeVH+BIDHAxcDrf7hp0OEwhaeJFiKC+aMI6uqX7dCvjewgjTonyusPheTWWiqSIBlhMswNlaGcQkhGBMXgj5hUhJq9DtqKJMTC2hvbebPqskiGBsvF9FJncGut/llVvEdb4hRSjA5MQRzM5SYlabEuelKTE9RYFRsCDI0EjHHmskS4HBfb23gsOBLstnd636DwKG6iyqtKDP4tlLCSHgPiZZhSqJcXHdSkgK59HcEvd9KP/RFiAwmCv7OSOq3Dtd4ZxSTFTWvxII66iNv7eBzRMmDxTnmcB+4+2IqtWUEPZd4RTCs9KVG+o+3W+GAHQ5JDqM29IsIrK+cDhCkwv/gMFqjyY7V6/Oh5LrqDIkEtpo6yBPixGL6CQOrU3RwuDHv7yFVqWAuLgUMOhwsrCNtPwXppMH3BgxGCz77fAPsTgcGDEpHdnYK0tJjkRithsNmQ1FpE5FtochUz8qIh1rdc208JiYC/XNisZ2Iq7HRgFVr9yM+LhzZWQndkuOq1buwYOkuaMIUCO/fF5qc/pBwVB6TPFsm3FfHGzSxXSYDqr/5Dk6ThYRI+8TmhMdRwzJx5SVjT0jUFy+Gv7nHKHJBvAliJpRIElZnkyC9YaAGZ5Cm34eEUToRTL8oIpd4BQZGymAlRmCB6Euoc/RSJJEQ/74zVpKGztFansCPI1oZjCv6qkmIqoSlE0aCVSGshSBqmwRZdL6h0SEib2O/1ulRKHObOMfm/EzlIVLjc29rsGEFkSp1gVckEKFd2lclCGlQTAiSyNqIU0mQQm0ZFifH8BgZWojQivTe16NYmFeZXRhOJJigcnsv3OCoteWVFhFx5o3c2YpKIkvvSuqHi6gd6WT1sKXBBMVWG5NuDj2P0UQ4Rvpyic77WiBbTiXU1pHxIaL/vDQ5gFMEh0lF+OODsXlLAcwWm7BceCBxtrStth6a7MwT4wbrCppJ7NoJpsFoLi6DlYTavrwKhGkUSEuLhUx62D3hcDixlywLo8kqSr34U+aklYSLUi3DWZMH4upLJuDC80bjnKmDMHxohiiVojWYUVLZhINFtQhVy5HT9/CmWCUlNcgvKEdKSpz42xcS4qPRJy0Km7YchN5gwdbtxZArQkRCpjdi4XP/+fmv4SJyCyFijZ40EbLw8N7fmsAXaBDwnim1ZKGYD5Yg2N1WFnAyIv1Z54zA2WcN6zXL0RfK9U78WGr1KVQ43+ECEsSzMlUiB6QreExzLkgmCVjO7q42tXp1I3HIsYt+MCpWLmrjdeDbYtLQSeB6Ap9qTIIcs0krZ5eTN7Bbilc0dzc6vJIkNQ8zUxUIpfYyTI5WrCFBziG3nkLuGazJX9lPhbPIIvCm1bNgHxwlI0HtFPfvjVjYfpAHtWEEWWudr8cJjd8VWmCkdnu8BHUCG+F3DgnFWLJKfE1DJswRRFxNZBUVEMF6a4uFujuUzjmYnoUf0zqAk4hDpMLPSa2Sob5ejy3b2eXTLiTY7eHSG0VtrlDSlIPIcjgh2nEXiCKJrS7Yy6vQ0GTA3v2l2LOvBg67mUjQQhZMFb6btxnvvrcc0UQGAwekkKHVvaDjxeWcfsmiQnBoqEpYbLwWEh8XidwhGUiMj0AFkUpxaQMaGrQYkJOM1JRY8dt5C9bh1TeWQKs1iJ0Zu1uoTiXyySQi3LDpABGLldpfAV7o7pcdD0WnXBYLkfripdvw0r8WYX9eldgfJXRwf0SOHtUuFU8ogtCwdBm0m3eIfKIO2EjFz+6ThD9eNwXJSSfGil1TaRVhr97A2vukJBLomWphHfgCC9Y40pYPkmDlCCpP3cqjnAVYNmnZsaTpM3hN5udyC5pJCHb9CVM9E9kUasMA0sK7Ay+E72u0e10fEqSSphAaPqPS6MTKSpsQwN4Ea1aYFNf113TrJmJSS9ZIsLSKFEj3e13BAr6W+mY2WVwdFgkHL+yhNi+hdlAXeoSVvnMxkfoM+p0/4HtPD5XgQHN7X3gCt6WaiPw8Uhi8EWoApwYOkQpDLg+hwdqGvIKK9gx790DizbTsTU2w1jYgbOiQ9kXmE00sRBCKhDhIQ9WwFZfCqDUhv7iWyKUMqzcUCJfSZrIC8osbMGpkFkbkZv7qaCTWvpOTowXB7tlTjNJqLdJSYzB0UJo4N0d4ffPdOqzfehBl5U2YOLZftyVKMjPikZ4ai9Vr9sJstWHPgUrs2FOGupp6VFXVY8WqXXj7Pyvwy+JtKCyugyaoFepB/RA3YzqClTRJT2S/0+RtWrsOzes3CwHaMZe5CVzd+dyZw3HujFEnxEphfFVkQb0XC4ERSUQykyyEvpGyowS+JzAB1JucpHm7vForbBRyxju7ajqQRMJ4DGnvE4g8uh4T6RhI3+VFaV8QeTEknFfX2AV5eQKTyux05SFS4eTOJRVWsc7m6QYd9PbV2Spk0/37Aw4caCYT4KCuPSjGE/TE1BcQQbDrjsG5NKuJ3PP5N16Iiy2c/xsZDnk3fdAZHTXANtbbvbaFS97wGhdn3gdw6uIIUuGIqri4CFTX6bF9VzFkncx3tlisTc0IaqqHcsBAvyZtb4O3KFYkJoiCl0GyINiqa2EmctE2GWGgV87flRABREcpMGJoFsK8VDvuCVhghmoUKKtowP78GsRE0rlzs9oLVkaFYcyYHHz7/XrkF9Zg195qTBib3e26S2pyDORKGX5auo8mK1BV3UTkWIH1m4uwbWcJEVQ9TGSthNjtiJw0FvEzzyEy7YVtnnsAXs/Sbt6MhjUb0Ebk11l+2G0upMUn4OEH5iA6mtp1gvA/IhWj42gLgcFWSk6EVCxIR3RjpXSAZRcHG+xpdorkv66yjP/m6CQuGTIqrt2S5PfiSahxtjdHRnU++L0Esmh8EQo/wTqjC4vKzPih1CrKuXS9bge6kkqh3oHVZFl4i++gr+Pe3LAjXHW+wGtj3NZlRBLe1kaYqCYmHhbkHEb8C7Vb76XdPETHx4dgag8SSBkd63RsiXnrD34WKcpgDIj+9RUvAjh+OGp4qpRyzJmRi/4D0mDsyFtxg5PdmvYdRM0PP7jfOQlgiyU1GfGzZqLfg3ch7frLkXL5HKRedSHChw6Cgiyteb/sxfyF28Q++J5gNFl6lOQYGxuOpOQEsd9VZUU9dERgHRgyMBUfv3c3LFYHNm7Yj3vu/ljUFPMFdrGNH9MfYTRR2ZTnDdIsdE5Dow6WFiOkTgfC+/dB+u03In7G2ZCoNSecUPR796B59XpQJx5BKLy9c1iEEldcOQqpqd2vJfUWWLPnrae9yBvRPXEk/HmRvCfIjgwRaxbeepftIqOzVSxO9wRMUiU6B3bU2rCw2IR/79bhqY1a/GFZEx7a0CLKmfCajjcB2hW8qM+lT1q9tJSNlzSyqJScwekn+LnGKoIRR4ev4cUZ/h3g4phlZN154SBYqCG5Mf5ZSp3BpwslyykjVOK1LRyizetJAZza8DgDhwzOxAUzhiImXCGESAd4AgTR3y0796P6hx9peLeHHp8MBEllYvfIsCFDEDl6DMJHjETUmeOgSktBGCmVTz//A55/8SsYDGb3L9pRQwL/gQffw0MPfYjGJp37Xd8Q+7iolIJU9Hqr2Bu+AzwZeHvfj96+DY16G7bsLsB9935C1obvDHruN4PFiVanC6qsTKTdfA0y77gR2Q/dif7PPY7Uq68S7/N9nmhCMRzYj4ZflsKh09MzP1J6cFMy0uJx1RVT/QqE6C1wD3TXDRxGLPcjTLsz+Dc+1tMFWKZ2l9XNn++st+FfO3W4YWkjrlzciHvWtuCJrTq8ud+ERZV27Gt2wEJEYueFeffv/AVbYt0RWxpZSj0Fu53Y8vIFJqwOuOhJmLgxXsDfTQ3rOakw2CBLJEuPo+48gfvsgMF3HwRw8uFxOrEgufzSyRiQkw0rmbudJzPLGCkNLMPOfWj8/ju4uMS6v+rWcQBHQonD5YIiOQXR086EPCYK8bFyfPH9ZiQPvBf3PPAm3nr3RzzxzH8xfe4z+HlVHuwkELVao/ssvmG12mG0WHkrDoSFKaHosm7Ca0xnjh+ID/55I2ymVmzeUYDH//INiktq2v3fXcAL+x99vBCh7PuSSCFLTISmX3+oMrMgT0wCZCfJvKd+1G7fjtrvF8ChJULpojBwUAHa5Hjhqcvb19VOMbALpzuC8AQNaci+kmk57NjOK/RdwDzD2f3vkRVy5cJG/HmTDgsrbTDa20DKP5TUHiUJbc78Z/79NdOEF8itHtrQAbYgWMvvKbjP4snC8SbIO4PlAEeqdQfOkTkW8BoNbwngDdyHui7ekwBOPXh9gpwd/fB9M5DRN1Fkz3ZGx+Ro3LUfNf/7Do6mxvY3TjKYWEL7D0DCJedDkUoWS4QamUlqLF6eh7//cyE+/99mYWlFhIagqUmLopI6L86EI1HfoEVlZY3IAk5Pj0Okhz3YeeH+7Om5ePIvF0Aul2Pl2n145vnvsHN3kbCItFwsk86Tf7AGz7zwBf7z1WYoafKp01MRPWb4IWIUtbu6U8mPA1oddjRv2YranxbBQQTKwRmdwU1iF8yjD56NPlnJ7nd/GwiTtkES1LM+5+TJ1ZUWYZHML7cJMtOQ1cMuGn/Joyccw1PwZNfAYkrrqRswgN8ffKoUAwdk4M7rJyMyQnWEG4zBE4f0Oxj25aF23kJYKiqEpnuywUKZ971Pu/YKJMyeDlV6OsKTExGfmYyo5ASoEhMgVSlRWNqEn5fvQ1Oz78J9bKVs3JKPLVsPQkICIyUlAeHhngMAeIH+kkvG4vo/TIA6IgQrNh3A3Y/8B089/yle+ef3+PMTH2HKnGcxf/FuJEcqoEhJRsxZZyIkJvakEIkAPUinToumFWtQ/8sStNk950AYLA7MOmswrrpiuvud3w5cZIL66n7WkDtvt8CL64tKzSIRk+t0sTXiC0wIzAd8sDbOWebpYVKRnxFJioW/j57bcTzAp/Xn3PyVHnoXA/gdotshcv6c8bjiwnHCr9x18AtikUphLixC3fyfodu9G602W/sHJxPU0CC5AuHDRiLtj9ch9aZrkXLNpUj5w5VIu5HLnAwmQQBs3rgXX3y5Eg1kSXia11abHSvW7MHHX66BzmCDSi7B/rxK/LR4u8iT4R0XO/cJl3wxmx3QqOQIU4cgTCWFttGIJUv346v/bcK69QcRp5EgNDEGoUOHIGHuTOHyEtbJiYb7GXHplToik6aVa0hosJvm6Gdn0DsweGAmnn3iGvc7vy1oiSR8qUMyGitcP6sDa6utYqHdF5cwkXCcGoc5ZxCBcO2qMxJDMCtVjuty1HgoNxQX9lEh1M+Fdb6Wr2RK/txXAUxv4PHLc1vmx5zlr3gq2dIVFh9uOl/wxxo7HgU8A+hdHBFS7A1DB2egqk6PrRuLoVIfvRjIrhKn0QRzeQUcVisUURGQcva9vyrYcQNdnwkmRC5yPIIVSgRJQyClfzuqa6Cvb0ZBcY2o98XxP5xuwcRgNFpRUFiBH+ZtxmffrCUiqRGlJThvp6SsAWs25KGwsBr7DtZhb14VSoqrsWtPKZasPoD5C7dg2YpdMOgskEdFQpPTF+rkeKgTYqFOSSISyUDk2BGInjihPUz4JFh3vBjfZrfBtH07GpavJKWgVOz46Umu6I0ODMxOwZuvXY84P7ZwPl5gWbOw3CrcTp7AAqlvpFRkinsiRm/g83LuB2/u5eln/HQyiRTGJciFlcF5HR/mmbzWzuIhzyG9XNplVFyICHGemkJHskLs05IbKxc7LHJhRU5i3FbvO/mxI6SY748z4Hc1OTzmcbB1mawOxqiEnpUR4jWhhaUWryHC7O3iZE4uN8Mf814nyyuODDHvDG7zaLLAuCRMT8Hh4hwyzQmXngib+6BPqATTqU8COHURZLFY6FF1D15cfvqZ/+Gb7zYhJsHzQ+1wkakzMhAxZhhCBw5qV29OOrl0ARGHqagIjctWw1hVLfzE2RkxSE2NFVWRXU4XmhtbsO9AlSAZVZiGLIv2e7EWFsJa3yQWLIWAo/e4LD/nO3D0FyuTaiInRUwUoiZPQNgQ+h2hzeVEsIwEN1ckEG+chD6htop8o6pKtGzYCvO+fXDYHYJkPEFLVteA7EQ8/eeLMXpkDv3ciyQ5AWAN9t41LUKoewLnMExJDiErQNOjfc75fC9s14vdCj0JSn7E01LkuGNImPj8lxIzviw0eyU3LjtyRrwMM9NVYhdFUY7FC7h8/ju7jaLGlqeu5TIo/5oUKQpjMvktrbDgX3sMotpyV7DAzQyT4aWJPSN+ztJ/aG2L+L0nmOjCT44Mwxh3tWTe//6vW3Ro9FIWn0nlonSyxgb3PH+pnM795CatCMf2BA4mmEXP4rbcE7u7aAA9g98e0oiIUPz5zxfi4gtGoaHG4n73SLCGyIeZBHbNwmWo+X6e8Ndz0uIpBRKi6j59EDfnXESNHYmIMCWqy+qxdtVe/LxwGxYt3Ym9u0ohaWtFeN8sxM+egdhpk8WRcMFcxM86B9HDByE2KRIR0jbYDWZRaJELGcakxyN68njEXzAH4blDhHXEh0QderjEzUkgFGGd8GL8hg2onfczdDt2wuEk7dwLoRitTvTrE4dH7puD4bnZJ5VQ/AHL7gpDqyjl0RNwaRADCUhvmjevl3AuR8fnB3QOn9YSr5Vc1Ect9rv3RSgMJkKO2vIHfKpwsm40Xlxg3D7OH+kaVOML/FXetdFXiHBXcH+kaCSi7Z5ATcSyGrv7L//BbeF6ao1eLEAGe9Vy/KwWEMDJg1/urw5wRNiQIWkwGUzYuLEU6lDPD5i1YV5bcdQ3wHSwmP5tFSVWuOLwKWO1UBtlYaFQpSRD0zcbyqR4KOMioY6PQnhmKiKGDETkGaMQdcZoKFNTESSTCXKURkRAkZRI1lgaQgf0R9jgIQgdPhThI4cjctQIhI/IRWhOP8hjY70K7BMKJgM62DKr/3kJ9Lv2wKHViWfkjSeYUPoSoTx891xMHD+w29IzJwIse325v/he2DWTqpGK+lcdJYZ8gYXUgjIL8ls8h6myoOPik5NJS2eXFVu0y6psolSMp77jRezhMSGYnKz02redwYUZl1VYvRIaa/2XEEGxq4zB1nGh1ikEr6ffWIlPszTBfueJWKlTv8w3+yxf39n9xWClkft5e4NduAM9gcupDI+WicrI/sJM9/ZDoQlVJh9tof64Y2hYtyVwAji58NtS6UByUjTuv38ubrz+TNRXe7ZYGB1+bVtjI+qXr0X5R5/BWFBwSMidKpCo1FCkpSJyzGjEn3M2ks6bjcQZZyN6wjhBGkwiR7SXSZHIQhIahpD4BCizMhDatw802VlQZqYjJJbIk0vTn2xQm5k4HC3NqP1xPqq++h7GomK0Edn7sjp0Zgf69InH/917PiZNGHTEnvinOvjRLCUhzVsC+4MN1Vbsa/SdoR1BVkpmeLtA5QVoX5YAa/G8R4g/w5vJkTef4k2ovILO07nScqxSgowwideseq5Ow6Vf/EVekx1bGu0e1y+8get5pRBpyX0EDWjohG/s9S8HjMF3U0wW4No6723hbhpKVkoo74cTwCmNHpMKC6SkxCg8cP8c3HHH2ahvsPo0Pvj7wa1O2KprUPXfL1H56RewN9S3a/H+zL4TBWqPWNDnxXwmBXbZkVD2eXPis06f89++vn+C0O7qcqBxxUqUvvlv6Lfv4tjodg3QR5/zonz/Pkl49tFLcOaEwaeEhdIT8K2VG5349IARNfTqC/tJoPImU/U+3C3cU/HKYCS4g1O6e7xsWei8+YW6oM7kElZKiI/nwcK5c9kVrrycShaDt0gtfrfK6MJX3exvz2gka+u57foeEQqDv56plmBigozu13NncPN4reqlbf5VrOBaaH/bxsEy3sHlX+ZmBSoUnw7okfurA0wUvAviiOGZUJGJu2FroRhIPqNu2r8gdpNs2rAF9pYmqJISEKwMRHL0GriPnS7otm5G3SefQ5dXKKSAsEx8PBoOMjAanBjSNx3/fPVaDBmUdUJLsPiD7txfHWChw+sqm2ttSCBCiKHxyaHS/Cs++Pcba6z48IBJ7KzoTeFm8mC30wWZ7PpqJ1duw0bSphtIYHoa6swnGrJUxsS1R4p5Arehidr3xi4DiqjPvRVyZHl9Xqocw+LdgR0E/iYnWNZYWgV5ePop70bJG3/pqY0Z1G6ORONrdhwuurGNVVY8sF4rCM3TfXRGV/cXg8OKOQx5e73vtZMaIk7eIXIAWRidy+ccbguwqdqCBzdoBaF4aws/iySy0q7op+lRbbMATg78jv7yBh4Y389bj7fe/QV19QYxiLsbqIw2hxO873z4mFxEjBsPRUy0WLdo//BXNen3A+5okYnvgMtohnb3bjQvX4NWu5OsLt6tr/sHwbkNwUHBmDhhAJ59/DJER52akTXdRX91BQ8h1m5VMgmGhAeLfBFec+C913kbXwVL5G66h3dNfHL0kf3xt+06bK21exToDDUJfQ4DPpsOLhfP3+O2sNuMBTEHBny034g6spA4+94beE+SNydGIc3teuuMH4vN+Oqg2WdeChMclxVKIVLN1EhIqAMGYojtTQ6xfsHt9Addo786wJbO5wVGrKr27T7jdSvmk4ERUgyKlCKKyIGbzZbaijoH6s1OUcbGF9j2uz83FGe4w7oDOLXxq0mlA5u3HsDL/1yEffnlpHW0+rVQymByabU5oB4+EFHDhkGeGA+JWoXgEBrELBQDBHMkOojC6YTLYha7cuoK8mHYvJPIxOE3mXC3Wi1ORCVE4OoLx+DWW8/zqjWfCugpqXTA0/Dxo3uEq+lPw8OO2pvk63wj5pVZRdVkb+BrcsLj2PgQsdDPC+wVBgd2NzlRScKYCc1XG9gYGxEjw+NjPIcH8+ZeH1M7eBdIofL7QNf79+feO8MbqTB2Ndjw8QGzcDl2d14mua7rRxwa3Q2fCKV1eoocV+VoRF8GcOqj10iFUVnVgNffX4b16/agtsEAjXv3SH/AxQqDbHaEJMVC0z+nvbhibBSkGg1ZMO4Ci54kxO8BHTOWrBKXyQh7Uwus1dUwHCyEpagMLrL4JKSR+ysvuDhiiDQY6fHJeOT/zsGE8UPdn5y68IdUuHQ6+/m7y8ruDtzdF2UqcTkJsq6o1Dvx0k49qo2eXWAdYA29qxDtjkwYrMUnqCV4bGQ4EsnC8IaDZHH9N8+EfC0pEu73jgUs1LnftLwg5AG+SIW7eUm5BV8XmkVYdnf31lNw9w2MkuGPAzVII5IO4PTAMa2peANvijV10mDERCrRrLehpLxBDDR/rBZejwmSSUn7tsJaXAZjXgGs9fVwtmjRauUoszZIQuSHc156ewSfauD+cIcku4wGWKtqYDiQB92OXWjesAnG3fvhaGkPDZZIuApb9xBrJ3oH0jNiMPfcUXjmyUuRk5Pu/vTUBgswn2sq1F9nuC2DWrIGjhUs1GelK3BlTqhHFxdbMBZSu/O1ZGF7aQqDf8uWX+ejuyHL98jb6v6hvxpZEVwZwP2BB/CmWVHyIDRYWkWIsT/P3xPGJ4Qgmu6Jd7/0dD1Payod4O9zCDevS/HvbfRsemNaMpnwebi0zRX9qC/CZb1y3gBODHqVVBg80PrnpGL0sAwiAQUMWh3KK/WQ08D1xy3D3xHRSzRjHc3NMJeUwlRWAWtNLQnWWjgNOhp1pJkr5AgOYQuGzsnnPd0HnbgH6iMiCC6h4tTrRJFO3dad0O/dB+3uPTDs2gNbbR1aHU4Ec7SaH4KKwZPUZHeKmmRTJw7BTTdMw1WXT4JGffoESXRLKoSxCXJMSJSjxtQqhK0/fdMBds/wOgPvgX41EYqPiFmxAM5rJEwsorjxrxx7fG9cUmt4bAguy1aJtRx/1g44Ko0TEe1kqbJQ503M/IqOouvZ6bsz05WYk6ES1k4RWWCerumLVBj8Gy5jw0UytWStNLgJrid93xlM1LwWNT4xBJf0VaNvN+QawKmHXnV/dYWDBvumTfvxy+I9WLR8Oxq1FoQre651cPkXLlnPoS1BGhXkERGibpY0OgLKlETIY2LEIUKBGfxdfjkFqiZ7A1sYAvTaZrcLEuGcHieRp7maLDSzGXaDHo66xnaioe/5jK7zAn4GTmcrcnMzccHskZg+OVfsZOkPwZ9K8Mf9dVlfFS7JViOvxYElZWasqbGLBW+5+1673jIPE+YoFlpcp2scae0TkhTCqugORnsrVtfY8HOxGeVkGfHTDPFT+vF1eYSyYOcM+YGRUuQSoYyKlSNeLemxEG2g62+qt2N9tVUEInBbPIUdM0Fwjksfsi6mpSkwJVkBJ/XrW7sNYgHf09q9L/dXVxTQtbc32LCt1o58Ayk+9B63w9dQc09V2OgfvGA/ivqB+2IYEWtsD5InAzh1cFxJhcEul5YWAzZvL8KChVuwfNV+2B0uqOWkafsabV7A52uflXRIpQhWqyDj/BKlErKocMiTEiCPixUkIw0l4cm5Fp2qAIubPVFkIyZUp3t0u7OcLc2wt2hhb26CpaoGtrpmwGKGgyyUNpP5cKVn8Vv/rJGu4DUqrcmOzPRYXHfZBJHIyHvBnE7JjJ3RE1JhcNhumcmF/Y027CGBWWLkWm2HfysjkuYclIGREgwlYZ4TLhPbEfdEoLOFcZC1fJ0DO0mos+XS4mVtogN8/mSlBNnhUlHSJYNeE+hvFqDdlXXxBW4Ll1yppHsubLGjRMclT1zQudN1YkPIooiQYEBUiHBZccFLvhxHYT23WSuKOHoaZ0wqfz0jXPSRP+CqAzVmaofRhYJmO722opja5W3NhpNF+1Lfp4by3vNyJFE/8JbQgSiv0xfHnVQ64OQijUQuu/eW4ZMvV2LV+oMIIZtfyQvMv2L8MMlwJD5zDIJJaJPQlJDwDpZwFFQwZAlkxSSSMI2JgiwiElKVChK1WmTSd6zP9MrGWHQTHWsgYsMtqwUOgwEusjgcOh3sTc3CnWctqxGJiW2tLrjolQtWBnVc/1eQSAc4D0FntCM8QoN7bzkLkybmIiUxAipV95rmqYyekkoHTI5WGGxtQjiyls7uFRbAbFXISZXmRWrOWu+URtFjcCQY7x/PBSB5P3uTvU24x3hTsw4o6TpqEuwcRswL9uxq4/fY1dOb4pOHEd8zhw237+vf/j4n5qvJKuJq251de1zE8T7qV09WCoP77YOp0cKC6gm4n9ma48g3rm/GQQscvNC5PcwbbEVyXyhk9Mo+wABOe5wwUukARyoZjRbs2luMD/67FAtXH0Q4aSfKkN6J7uCbEa4yN9po0LYGScSrTLxPI5lHPJGZNDIU0jA6wjWQhYYR0SjaS6zQV6Tq0PYTeIHLahZk1Gq3i+ACQR7NWrgMRrJEDGi1cGIYXYfOxcTnohnE5fWDulpJv4ZBOsFJ523W2RERJsdDd8/EeeeOQ3ioCnL56WmZdMWxkoonuEfBcQGfm4dZ+yv/tx1ssbIQPV7XPRZwnsviMjPe3mfyutEYk8rXM2JJ4PdOyzt65FTqhwB6FyecVDqDJ11efjn++9kSvPHqOsT3UUGj7Nl+GL8GPOdZs++Y/IJrnP7VjeoMh5TdJu0WBi+Unqj1Cm631e5CbaMNuQOi8fgjF2P6tJGiHafbmkl36E1SOV3BWj8nHfraT57XMDwlTHqCniyqm1e2oNXpOTyap8XgSCn+NCZClPQPIAB/cFJJpTNatAb8OH8d3v5gJWpbrAiTBwk3EpcLOVEkc6qDJzlRoND2nK1BRChBmHNOf1x35SQMG9oXUt5l7DeKAKm0Jz3+O8+IH0otCGOzxwM0ZFFcS/0wM1PlM+CACerd3XosqbZ5zWhnt9XdgzWYnq7qNkkxgAA6cMqQSgfsdge27yjAt/O3YOX6YjIl7LDZ7HCQNsX5Lu2WgPvLvwNw5BsvujOTKJUhkEhCkJ4ai4vn5pJVMgLR0b+PDYsCpNKOFVVWfLDfBKvDe8g0l0q6JFOBM1OUIm+nM7nwOgvvcvlDsRE/lXsnFFZgOEDx9UlRiA9EYQXQA5xypNIZzS16bNt+ED8t24v9hXVwmM0w6kzQ6a2QSIlgaEJIOLfjN0QyHSTiIE1SLgtGZKQaKrUaEWFhOGdqNiZOHIKszOQjFlt/DwiQSjs4qu2jfCPW1/guE8+LFry18vjE9jBlXhIhQwe1Jhd+KjGj1Ojyuo7CsFB/X5jRXlWgt9ZTAvh94JQmlc5g99iBvDIimRJs310Ns80CbYsW9XUG6Aw2SGngS5lkJMHCmjkdIBbw6eBcAYe9VUTDxcVqEBUVDnVoKFITwzB+dBYGDc5EalqCX/kTv1V0RyrcNVf2U+P8LJX7nd8uVlRa8Fm+WbjDfA11jrTixXiubMwbW/Fe+FzGhiPffA0lNozZOnlgeGh7Nrv7/QAC8AenDal0htliQ319C0pKa3GgoAYl5TroDToiGQPq6ppRXWMQpTRCiGjYZcZ1rnhtRvzvJMwQtj6EBcLkQYfN2Ypgko0xUQqkpUQhgkgkVKNBQlw4+veLQ5/MeGSkxyMsLPR35erzBV+kwkIwkbTx6/urMapTqfjfKgykgPzvoAmLK23trlE/wNaLP2OJT8cEdE2OSuxgySHPAQTQE5yWpNIZ3HirzYHmJh2amvSoqmkhUtGjvpksGJ0eWq0eLfTv+gYdamrZqnGCg/KDyarhZDPOT+iI2OJJJ+qUueeRCANt/+ch8PWYIMS/+YWODtJopRnJk5KjhjlPwUXExi6s+BgVEuPDERGpQWxsJFShGsREhCM+VkmkEonYmHCyTsIQGqoiayvgv/YEb6TC/c2+/3NSFLicLJXOOyX+llFN4/gLIpZNdT3fD94bRF/S2D83TYEL+qjFrpcBBNBTnPak4g1Wqx1GkwUmOgwGC1kyFrTorPS3A1q9kT4zw0yfcRCAyWiBxWqDwWiFw+Gk3zpgsdhhp3+zddEZTDoymQRyuRQqhRyyEAkUihCo1XLI6e+wUDU0ahVUGiVUKpWotxURJkNEuErs8R8RoYaSvqfSBCJqegImletWNMNodaGDdjnrOkMjwcREOcYlKnxW9f0topKI5Ydik9jThJUbfywRb2BCYSWLy8zPzVIhRhlQbgI4NvxmScUbeB3DbncK8nDyniSuVvq3C06XS7y2kpnhpPf4/VYSZB1WSQfYemFiYUuHrQp2q3EorzjI7GHCkUql9CqFlA5/KwgH4Bss9A5oHWINqqM/uWdDyepkAaj6nS4ms+W2qc6Gj/NMIqPfn/L6XcF6E29idn6GApPcEWMBBHCs+N2RSgAB/NbAYcIttlasr7Li5zILqt377vNyCCdDEs8cAdaTeNLzzpi8iH9BuhKTU5Wi5lYgyTGAXwfg/wE/vy20WkvcYgAAAABJRU5ErkJggg==;" vertex="1" parent="1">
          <mxGeometry x="1870" y="608" width="198.53" height="50" as="geometry" />
        </mxCell>
        <mxCell id="wPpARk4BYiCBTALR3I8P-40" value="" style="rounded=1;whiteSpace=wrap;html=1;arcSize=5;fillColor=#fff2cc;strokeWidth=1;strokeColor=#d6b656;" vertex="1" parent="1">
          <mxGeometry x="840" y="278" width="440" height="380" as="geometry" />
        </mxCell>
        <mxCell id="wPpARk4BYiCBTALR3I8P-41" value="" style="rounded=1;whiteSpace=wrap;html=1;arcSize=5;fillColor=#e1d5e7;strokeWidth=1;strokeColor=#9673a6;" vertex="1" parent="1">
          <mxGeometry x="905" y="298" width="320" height="50" as="geometry" />
        </mxCell>
        <mxCell id="wPpARk4BYiCBTALR3I8P-42" value="" style="rounded=1;whiteSpace=wrap;html=1;arcSize=5;fillColor=#e1d5e7;strokeWidth=1;strokeColor=#9673a6;" vertex="1" parent="1">
          <mxGeometry x="899" y="304" width="320" height="50" as="geometry" />
        </mxCell>
        <mxCell id="wPpARk4BYiCBTALR3I8P-43" value="&lt;b&gt;Cliente&lt;/b&gt;" style="text;html=1;align=center;verticalAlign=middle;whiteSpace=wrap;rounded=0;fontFamily=Open Sans;fontSource=https%3A%2F%2Ffonts.googleapis.com%2Fcss%3Ffamily%3DOpen%2BSans;fontStyle=0" vertex="1" parent="1">
          <mxGeometry x="1005" y="314" width="110" height="30" as="geometry" />
        </mxCell>
        <mxCell id="wPpARk4BYiCBTALR3I8P-44" value="" style="rounded=1;whiteSpace=wrap;html=1;arcSize=5;fillColor=#e1d5e7;strokeWidth=1;strokeColor=#9673a6;" vertex="1" parent="1">
          <mxGeometry x="905" y="368" width="320" height="50" as="geometry" />
        </mxCell>
        <mxCell id="wPpARk4BYiCBTALR3I8P-45" value="" style="rounded=1;whiteSpace=wrap;html=1;arcSize=5;fillColor=#e1d5e7;strokeWidth=1;strokeColor=#9673a6;" vertex="1" parent="1">
          <mxGeometry x="899" y="374" width="320" height="50" as="geometry" />
        </mxCell>
        <mxCell id="wPpARk4BYiCBTALR3I8P-46" value="&lt;b&gt;Produto&lt;/b&gt;" style="text;html=1;align=center;verticalAlign=middle;whiteSpace=wrap;rounded=0;fontFamily=Open Sans;fontSource=https%3A%2F%2Ffonts.googleapis.com%2Fcss%3Ffamily%3DOpen%2BSans;fontStyle=0" vertex="1" parent="1">
          <mxGeometry x="1005" y="384" width="110" height="30" as="geometry" />
        </mxCell>
        <mxCell id="wPpARk4BYiCBTALR3I8P-47" value="" style="rounded=1;whiteSpace=wrap;html=1;arcSize=5;fillColor=#e1d5e7;strokeWidth=1;strokeColor=#9673a6;" vertex="1" parent="1">
          <mxGeometry x="905" y="440" width="320" height="50" as="geometry" />
        </mxCell>
        <mxCell id="wPpARk4BYiCBTALR3I8P-48" value="" style="rounded=1;whiteSpace=wrap;html=1;arcSize=5;fillColor=#e1d5e7;strokeWidth=1;strokeColor=#9673a6;" vertex="1" parent="1">
          <mxGeometry x="899" y="446" width="320" height="50" as="geometry" />
        </mxCell>
        <mxCell id="wPpARk4BYiCBTALR3I8P-49" value="&lt;b&gt;Pedido&lt;/b&gt;" style="text;html=1;align=center;verticalAlign=middle;whiteSpace=wrap;rounded=0;fontFamily=Open Sans;fontSource=https%3A%2F%2Ffonts.googleapis.com%2Fcss%3Ffamily%3DOpen%2BSans;fontStyle=0" vertex="1" parent="1">
          <mxGeometry x="1005" y="456" width="105" height="28.64" as="geometry" />
        </mxCell>
        <mxCell id="wPpARk4BYiCBTALR3I8P-50" value="" style="rounded=1;whiteSpace=wrap;html=1;arcSize=5;fillColor=#e1d5e7;strokeWidth=1;strokeColor=#9673a6;" vertex="1" parent="1">
          <mxGeometry x="905" y="512" width="320" height="50" as="geometry" />
        </mxCell>
        <mxCell id="wPpARk4BYiCBTALR3I8P-51" value="" style="rounded=1;whiteSpace=wrap;html=1;arcSize=5;fillColor=#e1d5e7;strokeWidth=1;strokeColor=#9673a6;" vertex="1" parent="1">
          <mxGeometry x="899" y="518" width="320" height="50" as="geometry" />
        </mxCell>
        <mxCell id="wPpARk4BYiCBTALR3I8P-52" value="&lt;b&gt;Pagamento&lt;/b&gt;" style="text;html=1;align=center;verticalAlign=middle;whiteSpace=wrap;rounded=0;fontFamily=Open Sans;fontSource=https%3A%2F%2Ffonts.googleapis.com%2Fcss%3Ffamily%3DOpen%2BSans;fontStyle=0" vertex="1" parent="1">
          <mxGeometry x="1005" y="528" width="110" height="30" as="geometry" />
        </mxCell>
        <mxCell id="wPpARk4BYiCBTALR3I8P-53" value="" style="rounded=1;whiteSpace=wrap;html=1;arcSize=5;fillColor=#e1d5e7;strokeWidth=1;strokeColor=#9673a6;" vertex="1" parent="1">
          <mxGeometry x="905" y="585" width="320" height="50" as="geometry" />
        </mxCell>
        <mxCell id="wPpARk4BYiCBTALR3I8P-54" value="" style="rounded=1;whiteSpace=wrap;html=1;arcSize=5;fillColor=#e1d5e7;strokeWidth=1;strokeColor=#9673a6;" vertex="1" parent="1">
          <mxGeometry x="899" y="591" width="320" height="50" as="geometry" />
        </mxCell>
        <mxCell id="wPpARk4BYiCBTALR3I8P-55" value="&lt;b&gt;Webhook&lt;/b&gt;" style="text;html=1;align=center;verticalAlign=middle;whiteSpace=wrap;rounded=0;fontFamily=Open Sans;fontSource=https%3A%2F%2Ffonts.googleapis.com%2Fcss%3Ffamily%3DOpen%2BSans;fontStyle=0" vertex="1" parent="1">
          <mxGeometry x="1005" y="601" width="110" height="30" as="geometry" />
        </mxCell>
        <mxCell id="wPpARk4BYiCBTALR3I8P-56" value="" style="rounded=1;whiteSpace=wrap;html=1;arcSize=5;fillColor=#fff2cc;strokeWidth=1;strokeColor=#d6b656;" vertex="1" parent="1">
          <mxGeometry x="1310" y="278" width="101" height="380" as="geometry" />
        </mxCell>
        <mxCell id="wPpARk4BYiCBTALR3I8P-57" value="&lt;span style=&quot;font-size: 16px;&quot;&gt;&lt;b&gt;&lt;font color=&quot;#999900&quot;&gt;HPA-Backend - min 1 / max 10 pods&lt;/font&gt;&lt;/b&gt;&lt;/span&gt;" style="text;html=1;align=center;verticalAlign=middle;whiteSpace=wrap;rounded=0;fontFamily=Open Sans;fontSource=https%3A%2F%2Ffonts.googleapis.com%2Fcss%3Ffamily%3DOpen%2BSans;fontStyle=0" vertex="1" parent="1">
          <mxGeometry x="605" y="238" width="465" height="30" as="geometry" />
        </mxCell>
        <mxCell id="wPpARk4BYiCBTALR3I8P-58" value="" style="ellipse;whiteSpace=wrap;html=1;aspect=fixed;fillColor=#e1d5e7;strokeColor=#9673a6;" vertex="1" parent="1">
          <mxGeometry x="1335.5" y="460" width="10" height="10" as="geometry" />
        </mxCell>
        <mxCell id="wPpARk4BYiCBTALR3I8P-59" value="" style="ellipse;whiteSpace=wrap;html=1;aspect=fixed;fillColor=#e1d5e7;strokeColor=#9673a6;" vertex="1" parent="1">
          <mxGeometry x="1355.5" y="460" width="10" height="10" as="geometry" />
        </mxCell>
        <mxCell id="wPpARk4BYiCBTALR3I8P-60" value="" style="ellipse;whiteSpace=wrap;html=1;aspect=fixed;fillColor=#e1d5e7;strokeColor=#9673a6;" vertex="1" parent="1">
          <mxGeometry x="1375.5" y="460" width="10" height="10" as="geometry" />
        </mxCell>
        <mxCell id="wPpARk4BYiCBTALR3I8P-61" value="&lt;b&gt;&lt;font face=&quot;Open Sans&quot;&gt;Data Base&lt;/font&gt;&lt;/b&gt;" style="shape=cylinder3;whiteSpace=wrap;html=1;boundedLbl=1;backgroundOutline=1;size=15;fillColor=#d5e8d4;strokeColor=#82b366;" vertex="1" parent="1">
          <mxGeometry x="2100" y="253" width="175" height="95" as="geometry" />
        </mxCell>
        <mxCell id="wPpARk4BYiCBTALR3I8P-62" value="&lt;span style=&quot;font-size: 16px;&quot;&gt;&lt;b&gt;&lt;font color=&quot;#009900&quot;&gt;HPA - Data Base - min 1 / max 10 pods&lt;/font&gt;&lt;/b&gt;&lt;/span&gt;" style="text;html=1;align=center;verticalAlign=middle;whiteSpace=wrap;rounded=0;fontFamily=Open Sans;fontSource=https%3A%2F%2Ffonts.googleapis.com%2Fcss%3Ffamily%3DOpen%2BSans;fontStyle=0" vertex="1" parent="1">
          <mxGeometry x="1870" y="148" width="465" height="30" as="geometry" />
        </mxCell>
        <mxCell id="wPpARk4BYiCBTALR3I8P-63" value="" style="shape=cylinder3;whiteSpace=wrap;html=1;boundedLbl=1;backgroundOutline=1;size=15;fillColor=#d5e8d4;strokeColor=#82b366;" vertex="1" parent="1">
          <mxGeometry x="2300" y="253" width="90" height="95" as="geometry" />
        </mxCell>
        <mxCell id="wPpARk4BYiCBTALR3I8P-64" value="" style="group" vertex="1" connectable="0" parent="1">
          <mxGeometry x="2320" y="301" width="50" height="10" as="geometry" />
        </mxCell>
        <mxCell id="wPpARk4BYiCBTALR3I8P-65" value="" style="ellipse;whiteSpace=wrap;html=1;aspect=fixed;fillColor=#d5e8d4;strokeColor=#82b366;" vertex="1" parent="wPpARk4BYiCBTALR3I8P-64">
          <mxGeometry width="10" height="10" as="geometry" />
        </mxCell>
        <mxCell id="wPpARk4BYiCBTALR3I8P-66" value="" style="ellipse;whiteSpace=wrap;html=1;aspect=fixed;fillColor=#d5e8d4;strokeColor=#82b366;" vertex="1" parent="wPpARk4BYiCBTALR3I8P-64">
          <mxGeometry x="20" width="10" height="10" as="geometry" />
        </mxCell>
        <mxCell id="wPpARk4BYiCBTALR3I8P-67" value="" style="ellipse;whiteSpace=wrap;html=1;aspect=fixed;fillColor=#d5e8d4;strokeColor=#82b366;" vertex="1" parent="wPpARk4BYiCBTALR3I8P-64">
          <mxGeometry x="40" width="10" height="10" as="geometry" />
        </mxCell>
      </root>
    </mxGraphModel>
  </diagram>
</mxfile>
